M48
METRIC,LZ,000.000
;FILE_FORMAT=3:3
;TYPE=PLATED
;Layer: PTH_Through
;EasyEDA v6.5.34, 2023-10-25 23:35:01
;b0c90d07580345d6a9a575a3640b0f1e,d8e1fe4a71354f51b54a745932dbb16f,10
;Gerber Generator version 0.2
;Holesize 1 = 0.701 mm
T01C0.701
;Holesize 2 = 0.711 mm
T02C0.711
;Holesize 3 = 0.712 mm
T03C0.712
;Holesize 4 = 0.800 mm
T04C0.800
;Holesize 5 = 0.889 mm
T05C0.889
;Holesize 6 = 0.900 mm
T06C0.900
;Holesize 7 = 1.000 mm
T07C1.000
;Holesize 8 = 1.101 mm
T08C1.101
;Holesize 9 = 1.199 mm
T09C1.199
;Holesize 10 = 1.400 mm
T10C1.400
;Holesize 11 = 2.000 mm
T11C2.000
%
G05
G90
T01
X018790Y015329
X032252Y015329
X034792Y015329
X018790Y031077
X032252Y031077
X034792Y031077
T02
X027051Y057277
T03
X022092Y057239
X024632Y057239
X045040Y028300
X039960Y028300
X013589Y027432
X013589Y022352
X045440Y048800
X040360Y048800
X028442Y045174
X023362Y045174
T04
X040326Y057150
X045426Y057150
X045266Y020155
X040166Y020155
X004191Y029016
X004191Y023916
T05
X012072Y041051
X012072Y038511
X012114Y038504
X012114Y041055
T06
X043180Y041148
X053340Y041148
X043180Y038354
X053340Y038354
T07
X021965Y051143
X024505Y051143
X027045Y051143
X016250Y053243
X012694Y053243
X016631Y058509
X012948Y058509
X053467Y033401
X046349Y034828
T08
X058547Y016002
X058547Y010922
X009392Y058128
X004312Y058128
X009392Y053302
X004312Y053302
X058674Y066167
X058674Y061087
X058547Y006096
X006223Y059817
X006350Y051562
X063881Y006096
X064008Y056134
X058674Y056134
X068326Y006223
X068326Y010795
X071501Y010795
X071501Y006223
X074676Y010795
X074676Y006223
X068326Y066167
X071501Y066167
X074549Y066040
X074549Y061087
X071501Y061087
X068326Y061087
X064008Y066167
X064008Y061087
X063881Y016002
X063881Y010922
T09
X018790Y012770
X003550Y012770
T10
X058547Y032334G85X058547Y031949
X058547Y043233G85X058547Y042848
X058547Y037785G85X058547Y037399
T11
X006852Y035971
X006852Y046131
X017012Y035971
M30
