G04 Layer: TopLayer*
G04 EasyEDA v6.5.34, 2023-10-25 23:35:01*
G04 b0c90d07580345d6a9a575a3640b0f1e,d8e1fe4a71354f51b54a745932dbb16f,10*
G04 Gerber Generator version 0.2*
G04 Scale: 100 percent, Rotated: No, Reflected: No *
G04 Dimensions in millimeters *
G04 leading zeros omitted , absolute positions ,4 integer and 5 decimal *
%FSLAX45Y45*%
%MOMM*%

%ADD10C,2.2000*%
%ADD11C,0.8000*%
%ADD12C,1.5000*%
%ADD13C,2.1000*%
%ADD14C,3.0000*%
%ADD15C,1.2500*%
%ADD16C,1.2000*%
%ADD17C,0.6000*%
%ADD18C,1.0000*%
%ADD19C,2.0000*%
%ADD20C,1.6000*%
%ADD21C,2.5000*%
%ADD22C,0.2540*%
%ADD23O,1.1999976X0.6999986*%
%ADD24R,1.5748X1.5748*%
%ADD25C,2.9000*%
%ADD26R,2.9000X2.9000*%
%ADD27C,1.8796*%
%ADD28C,1.9000*%
%ADD29C,1.8000*%
%ADD30C,1.4000*%
%ADD31C,1.7780*%
%ADD32R,1.8000X1.8000*%
%ADD33C,4.0000*%
%ADD34C,1.4500*%
%ADD35C,0.0192*%

%LPD*%
D10*
X5346700Y3340100D02*
G01*
X5537200Y3289300D01*
X5854700Y3214166D01*
D11*
X3973916Y3558997D02*
G01*
X3819768Y3713144D01*
X3819768Y3766896D01*
X3973829Y4358998D02*
G01*
X3819768Y4204947D01*
X3819768Y4147896D01*
D12*
X4051300Y4686300D02*
G01*
X3987192Y4622192D01*
X3987192Y4359097D01*
D13*
X5346700Y3340100D02*
G01*
X5346700Y3336582D01*
X5884644Y2798638D01*
D14*
X5854700Y3214166D02*
G01*
X5854700Y1600200D01*
D15*
X4032605Y5715000D02*
G01*
X4413605Y6096000D01*
X5003800Y6096000D01*
X5003192Y3634130D01*
X4901592Y2084730D01*
X4901592Y961593D01*
X2997200Y977900D01*
X3009900Y3111500D01*
X3225192Y3107893D01*
D16*
X4013200Y3848100D02*
G01*
X4317390Y3851097D01*
X4342790Y3825697D01*
D17*
X3987190Y3851097D02*
G01*
X3987190Y3851097D01*
X3899776Y3896898D01*
D18*
X2844190Y4517364D02*
G01*
X3002457Y4359097D01*
X3173829Y4359097D01*
X1211483Y4105582D02*
G01*
X3173729Y4098795D01*
D17*
X3899776Y3896898D02*
G01*
X3896774Y3893896D01*
X3819768Y3893896D01*
X3309772Y4020896D02*
G01*
X3215787Y4020896D01*
X3209795Y4026900D01*
X3173729Y4098795D02*
G01*
X3209795Y4026900D01*
D18*
X164490Y5311597D02*
G01*
X431190Y5330164D01*
D19*
X431190Y5812764D02*
G01*
X453359Y5812764D01*
X622310Y5981710D01*
X635010Y5156210D02*
G01*
X765235Y5156210D01*
X939190Y5330164D01*
D18*
X634997Y5156202D02*
G01*
X605157Y5156202D01*
X431190Y5330164D01*
D19*
X939190Y5812764D02*
G01*
X431190Y5812764D01*
D18*
X634997Y5156202D02*
G01*
X634997Y4663290D01*
X685190Y4613097D01*
X419100Y2901594D02*
G01*
X577494Y2743200D01*
X1358900Y2743200D01*
D19*
X1624990Y5324297D02*
G01*
X1269390Y5324297D01*
D18*
X431190Y5330164D02*
G01*
X939190Y5330164D01*
D12*
X685185Y3597097D02*
G01*
X1701190Y3597097D01*
D18*
X1207180Y3851097D02*
G01*
X1207180Y3838397D01*
D12*
X685185Y4613097D02*
G01*
X685185Y3597097D01*
X4032605Y5715000D02*
G01*
X4036006Y5711598D01*
X4036006Y4880000D01*
X4036009Y4880000D02*
G01*
X4051300Y4864709D01*
X4051300Y4686300D01*
X3996004Y2829991D02*
G01*
X3996004Y3132404D01*
X4000500Y3136900D01*
X4508500Y3136900D02*
G01*
X4504004Y3132404D01*
X4504004Y2829991D01*
X4559300Y4686300D02*
G01*
X4544009Y4701590D01*
X4544009Y4880000D01*
X4544006Y4880000D02*
G01*
X4542586Y4881422D01*
X4542586Y5715000D01*
D18*
X2336190Y4517364D02*
G01*
X2450490Y4631664D01*
X2450490Y5114264D01*
X2704490Y5114264D02*
G01*
X2844190Y4974564D01*
X2844190Y4517364D01*
X1211486Y3850309D02*
G01*
X1358900Y3702893D01*
X1358900Y2743200D01*
X419100Y2391613D02*
G01*
X419100Y1341114D01*
X354992Y1277007D01*
X419100Y2391613D02*
G01*
X1202486Y2391613D01*
X1358900Y2235200D01*
X939190Y5330164D02*
G01*
X945057Y5324297D01*
X1269390Y5324297D01*
X1624990Y5324297D02*
G01*
X1269390Y5324297D01*
D19*
X939190Y5330164D02*
G01*
X945057Y5324297D01*
X1269390Y5324297D01*
D18*
X1878990Y1277010D02*
G01*
X1878990Y1532864D01*
D12*
X3225190Y3107664D02*
G01*
X3328649Y3107664D01*
X3479190Y3107664D01*
X4000500Y3136900D02*
G01*
X4000500Y2031573D01*
X4016611Y2015462D01*
X3987192Y3597097D02*
G01*
X3996004Y3588283D01*
X3996004Y2829991D01*
X4526582Y2015462D02*
G01*
X4526582Y3118817D01*
X4508500Y3136900D01*
X3479192Y1533550D02*
G01*
X3479192Y1532862D01*
X4016611Y2015462D01*
X4000500Y2031573D01*
X4000500Y3136900D01*
D15*
X3225190Y1532864D02*
G01*
X3225190Y1253390D01*
X4526579Y1253390D01*
X4526579Y2015464D01*
D12*
X4634892Y3482797D02*
G01*
X4634892Y4610707D01*
X4559300Y4686300D01*
D18*
X1205890Y3243470D02*
G01*
X1341696Y3107664D01*
X1878990Y3107664D01*
D19*
X6832600Y5448300D02*
G01*
X7353300Y5130800D01*
X7353300Y5384800D01*
X5334000Y4114800D02*
G01*
X5334000Y3835400D01*
D12*
X4504004Y2829991D02*
G01*
X4504004Y3132404D01*
X4634892Y3263292D01*
X4634892Y3482797D01*
D18*
X685190Y5330164D02*
G01*
X634997Y5279971D01*
X634997Y5156202D01*
X2450490Y5114264D02*
G01*
X2463190Y5126964D01*
X2463190Y5723864D01*
D16*
X2463190Y5723864D02*
G01*
X2701264Y5723864D01*
X2705100Y5727700D01*
X4013200Y4102100D02*
G01*
X4330090Y4105097D01*
X4342790Y4092397D01*
D17*
X4013200Y4102100D02*
G01*
X3895793Y4020896D01*
X3819768Y4020896D01*
X4013200Y4102100D02*
G01*
X4013200Y4102100D01*
X3898900Y4025900D01*
D14*
X5854700Y3759174D02*
G01*
X6118854Y3759174D01*
X6537957Y4178277D01*
D19*
X1663090Y5850864D02*
G01*
X1294790Y5850864D01*
D14*
X7467600Y5549900D02*
G01*
X7454900Y4419600D01*
X7429500Y4394200D01*
X5867400Y5613400D02*
G01*
X5867400Y5613400D01*
X7467600Y5549900D01*
X5867400Y6616700D02*
G01*
X5880100Y6604000D01*
X7454900Y6604000D01*
X5867400Y5613400D02*
G01*
X5867400Y6616700D01*
X5854700Y609600D02*
G01*
X7467600Y622300D01*
X5854700Y1600200D02*
G01*
X5854700Y1600200D01*
X5854700Y1600200D01*
X5854700Y609600D01*
D17*
X3173829Y4359097D02*
G01*
X3309772Y4223130D01*
X3309772Y4147896D01*
D19*
X5854700Y4304233D02*
G01*
X5474743Y4304233D01*
X5448300Y4267200D01*
X5334000Y4113733D01*
D20*
X6400800Y5612333D02*
G01*
X6464300Y4495800D01*
X6102017Y3759174D01*
X5854700Y3759174D01*
D14*
X7467600Y1689100D02*
G01*
X7515859Y2641549D01*
X5854700Y3214164D01*
D19*
X6388100Y1600200D02*
G01*
X6400800Y3225800D01*
D21*
X6400800Y3225800D02*
G01*
X6093053Y3214166D01*
X5854700Y3214166D01*
D14*
X6692900Y1828800D02*
G01*
X6718300Y3060700D01*
X6845300Y1828800D02*
G01*
X6939279Y2841193D01*
X5854700Y3214164D01*
X5854700Y3759174D02*
G01*
X6857974Y3759174D01*
X7454900Y4419600D01*
X7429500Y4394200D02*
G01*
X7193279Y4131513D01*
D19*
X5854700Y3214164D02*
G01*
X6515100Y3175000D01*
X6591300Y1803400D01*
D14*
X7515859Y2641549D02*
G01*
X6400800Y3225800D01*
X5854700Y3214164D01*
D18*
X1211483Y3850309D02*
G01*
X3309787Y3893898D01*
X3309787Y3893898D02*
G01*
X3309787Y3766898D01*
D19*
X939190Y5812764D02*
G01*
X1294790Y5850864D01*
X1294790Y5850864D01*
X622310Y5981710D02*
G01*
X723900Y5918200D01*
X939190Y5812764D01*
D12*
X2209190Y5723864D02*
G01*
X2209190Y5126964D01*
X2196490Y5114264D01*
X1663090Y5850864D02*
G01*
X1866290Y5800064D01*
X2209190Y5724552D01*
D22*
X3284345Y4383900D02*
G01*
X3287927Y4377183D01*
X3287927Y4377183D02*
G01*
X3285123Y4379988D01*
X3285123Y4379988D02*
G01*
X3284345Y4383900D01*
X357827Y821944D02*
G01*
X88624Y948173D01*
X88624Y948173D02*
G01*
X139828Y6197345D01*
X139828Y6197345D02*
G01*
X2833716Y6197345D01*
X2833716Y6197345D02*
G01*
X2997101Y5154195D01*
X2997101Y5154195D02*
G01*
X2997580Y5152196D01*
X2997580Y5152196D02*
G01*
X3162680Y4644196D01*
X3162680Y4644196D02*
G01*
X3162972Y4643388D01*
X3162972Y4643388D02*
G01*
X3213772Y4516388D01*
X3213772Y4516388D02*
G01*
X3214370Y4515103D01*
X3214370Y4515103D02*
G01*
X3255884Y4437263D01*
X3255884Y4437263D02*
G01*
X3254067Y4439335D01*
X3254067Y4439335D02*
G01*
X3242907Y4449122D01*
X3242907Y4449122D02*
G01*
X3230566Y4457369D01*
X3230566Y4457369D02*
G01*
X3217253Y4463933D01*
X3217253Y4463933D02*
G01*
X3203198Y4468705D01*
X3203198Y4468705D02*
G01*
X3188640Y4471600D01*
X3188640Y4471600D02*
G01*
X3173829Y4472571D01*
X3173829Y4472571D02*
G01*
X3049460Y4472571D01*
X3049460Y4472571D02*
G01*
X2996073Y4525958D01*
X2996073Y4525958D02*
G01*
X2995571Y4534733D01*
X2995571Y4534733D02*
G01*
X2992605Y4551876D01*
X2992605Y4551876D02*
G01*
X2987703Y4568569D01*
X2987703Y4568569D02*
G01*
X2980931Y4584595D01*
X2980931Y4584595D02*
G01*
X2972376Y4599744D01*
X2972376Y4599744D02*
G01*
X2962150Y4613819D01*
X2962150Y4613819D02*
G01*
X2957664Y4618706D01*
X2957664Y4618706D02*
G01*
X2957664Y4974564D01*
X2957664Y4974564D02*
G01*
X2956694Y4989376D01*
X2956694Y4989376D02*
G01*
X2953798Y5003933D01*
X2953798Y5003933D02*
G01*
X2949027Y5017989D01*
X2949027Y5017989D02*
G01*
X2942462Y5031301D01*
X2942462Y5031301D02*
G01*
X2934215Y5043643D01*
X2934215Y5043643D02*
G01*
X2924429Y5054803D01*
X2924429Y5054803D02*
G01*
X2857565Y5121666D01*
X2857565Y5121666D02*
G01*
X2857401Y5127398D01*
X2857401Y5127398D02*
G01*
X2854907Y5144743D01*
X2854907Y5144743D02*
G01*
X2850453Y5161690D01*
X2850453Y5161690D02*
G01*
X2844095Y5178020D01*
X2844095Y5178020D02*
G01*
X2835918Y5193518D01*
X2835918Y5193518D02*
G01*
X2826027Y5207983D01*
X2826027Y5207983D02*
G01*
X2814551Y5221226D01*
X2814551Y5221226D02*
G01*
X2801641Y5233075D01*
X2801641Y5233075D02*
G01*
X2787464Y5243375D01*
X2787464Y5243375D02*
G01*
X2772206Y5251992D01*
X2772206Y5251992D02*
G01*
X2756065Y5258813D01*
X2756065Y5258813D02*
G01*
X2739251Y5263750D01*
X2739251Y5263750D02*
G01*
X2721985Y5266738D01*
X2721985Y5266738D02*
G01*
X2704490Y5267739D01*
X2704490Y5267739D02*
G01*
X2686995Y5266738D01*
X2686995Y5266738D02*
G01*
X2669728Y5263750D01*
X2669728Y5263750D02*
G01*
X2652915Y5258813D01*
X2652915Y5258813D02*
G01*
X2636774Y5251992D01*
X2636774Y5251992D02*
G01*
X2621515Y5243375D01*
X2621515Y5243375D02*
G01*
X2607339Y5233075D01*
X2607339Y5233075D02*
G01*
X2594428Y5221226D01*
X2594428Y5221226D02*
G01*
X2582953Y5207983D01*
X2582953Y5207983D02*
G01*
X2573062Y5193518D01*
X2573062Y5193518D02*
G01*
X2564885Y5178020D01*
X2564885Y5178020D02*
G01*
X2558527Y5161690D01*
X2558527Y5161690D02*
G01*
X2554072Y5144743D01*
X2554072Y5144743D02*
G01*
X2551578Y5127398D01*
X2551578Y5127398D02*
G01*
X2551078Y5109882D01*
X2551078Y5109882D02*
G01*
X2552578Y5092422D01*
X2552578Y5092422D02*
G01*
X2556058Y5075248D01*
X2556058Y5075248D02*
G01*
X2561473Y5058582D01*
X2561473Y5058582D02*
G01*
X2568752Y5042643D01*
X2568752Y5042643D02*
G01*
X2577801Y5027636D01*
X2577801Y5027636D02*
G01*
X2588502Y5013760D01*
X2588502Y5013760D02*
G01*
X2600714Y5001193D01*
X2600714Y5001193D02*
G01*
X2614280Y4990101D01*
X2614280Y4990101D02*
G01*
X2629021Y4980627D01*
X2629021Y4980627D02*
G01*
X2644747Y4972895D01*
X2644747Y4972895D02*
G01*
X2661251Y4967007D01*
X2661251Y4967007D02*
G01*
X2678319Y4963038D01*
X2678319Y4963038D02*
G01*
X2695728Y4961040D01*
X2695728Y4961040D02*
G01*
X2697237Y4961040D01*
X2697237Y4961040D02*
G01*
X2730715Y4927561D01*
X2730715Y4927561D02*
G01*
X2730715Y4618912D01*
X2730715Y4618912D02*
G01*
X2720916Y4606928D01*
X2720916Y4606928D02*
G01*
X2711510Y4592292D01*
X2711510Y4592292D02*
G01*
X2703834Y4576679D01*
X2703834Y4576679D02*
G01*
X2697988Y4560293D01*
X2697988Y4560293D02*
G01*
X2694047Y4543347D01*
X2694047Y4543347D02*
G01*
X2692064Y4526063D01*
X2692064Y4526063D02*
G01*
X2692064Y4508665D01*
X2692064Y4508665D02*
G01*
X2694047Y4491381D01*
X2694047Y4491381D02*
G01*
X2697988Y4474435D01*
X2697988Y4474435D02*
G01*
X2703834Y4458049D01*
X2703834Y4458049D02*
G01*
X2711510Y4442436D01*
X2711510Y4442436D02*
G01*
X2720916Y4427801D01*
X2720916Y4427801D02*
G01*
X2731929Y4414332D01*
X2731929Y4414332D02*
G01*
X2744406Y4402207D01*
X2744406Y4402207D02*
G01*
X2758183Y4391583D01*
X2758183Y4391583D02*
G01*
X2773082Y4382599D01*
X2773082Y4382599D02*
G01*
X2788907Y4375372D01*
X2788907Y4375372D02*
G01*
X2805453Y4369996D01*
X2805453Y4369996D02*
G01*
X2822505Y4366540D01*
X2822505Y4366540D02*
G01*
X2835667Y4365410D01*
X2835667Y4365410D02*
G01*
X2922219Y4278858D01*
X2922219Y4278858D02*
G01*
X2933378Y4269071D01*
X2933378Y4269071D02*
G01*
X2945720Y4260825D01*
X2945720Y4260825D02*
G01*
X2959032Y4254260D01*
X2959032Y4254260D02*
G01*
X2973088Y4249489D01*
X2973088Y4249489D02*
G01*
X2987646Y4246593D01*
X2987646Y4246593D02*
G01*
X3002457Y4245622D01*
X3002457Y4245622D02*
G01*
X3155102Y4245622D01*
X3155102Y4245622D02*
G01*
X3189609Y4211109D01*
X3189609Y4211109D02*
G01*
X3188930Y4211247D01*
X3188930Y4211247D02*
G01*
X3174122Y4212269D01*
X3174122Y4212269D02*
G01*
X1343242Y4218601D01*
X1343242Y4218601D02*
G01*
X1338731Y4225044D01*
X1338731Y4225044D02*
G01*
X1330907Y4232868D01*
X1330907Y4232868D02*
G01*
X1321843Y4239214D01*
X1321843Y4239214D02*
G01*
X1311816Y4243890D01*
X1311816Y4243890D02*
G01*
X1301128Y4246753D01*
X1301128Y4246753D02*
G01*
X1290106Y4247718D01*
X1290106Y4247718D02*
G01*
X1132626Y4247718D01*
X1132626Y4247718D02*
G01*
X1117423Y4246349D01*
X1117423Y4246349D02*
G01*
X1106736Y4243486D01*
X1106736Y4243486D02*
G01*
X1096708Y4238810D01*
X1096708Y4238810D02*
G01*
X1087645Y4232464D01*
X1087645Y4232464D02*
G01*
X1079821Y4224640D01*
X1079821Y4224640D02*
G01*
X1073475Y4215577D01*
X1073475Y4215577D02*
G01*
X1068799Y4205549D01*
X1068799Y4205549D02*
G01*
X1065935Y4194862D01*
X1065935Y4194862D02*
G01*
X1064971Y4183839D01*
X1064971Y4183839D02*
G01*
X1064971Y4026359D01*
X1064971Y4026359D02*
G01*
X1065935Y4015337D01*
X1065935Y4015337D02*
G01*
X1068799Y4004650D01*
X1068799Y4004650D02*
G01*
X1073475Y3994622D01*
X1073475Y3994622D02*
G01*
X1079821Y3985558D01*
X1079821Y3985558D02*
G01*
X1087645Y3977735D01*
X1087645Y3977735D02*
G01*
X1096708Y3971389D01*
X1096708Y3971389D02*
G01*
X1106736Y3966713D01*
X1106736Y3966713D02*
G01*
X1117423Y3963849D01*
X1117423Y3963849D02*
G01*
X1128445Y3962885D01*
X1128445Y3962885D02*
G01*
X1285925Y3962885D01*
X1285925Y3962885D02*
G01*
X1301128Y3964253D01*
X1301128Y3964253D02*
G01*
X1311816Y3967117D01*
X1311816Y3967117D02*
G01*
X1321843Y3971792D01*
X1321843Y3971792D02*
G01*
X1330907Y3978139D01*
X1330907Y3978139D02*
G01*
X1338731Y3985962D01*
X1338731Y3985962D02*
G01*
X1342715Y3991653D01*
X1342715Y3991653D02*
G01*
X3125994Y3985485D01*
X3125994Y3985485D02*
G01*
X3127707Y3982190D01*
X3127707Y3982190D02*
G01*
X3133059Y3973523D01*
X3133059Y3973523D02*
G01*
X3134906Y3970962D01*
X3134906Y3970962D02*
G01*
X3141436Y3963146D01*
X3141436Y3963146D02*
G01*
X3149620Y3954869D01*
X3149620Y3954869D02*
G01*
X3154574Y3950252D01*
X3154574Y3950252D02*
G01*
X3159690Y3946125D01*
X3159690Y3946125D02*
G01*
X3165251Y3942260D01*
X3165251Y3942260D02*
G01*
X3170902Y3938902D01*
X3170902Y3938902D02*
G01*
X3176956Y3935868D01*
X3176956Y3935868D02*
G01*
X3183028Y3933349D01*
X3183028Y3933349D02*
G01*
X3189452Y3931208D01*
X3189452Y3931208D02*
G01*
X3193481Y3930177D01*
X3193481Y3930177D02*
G01*
X3190301Y3921652D01*
X3190301Y3921652D02*
G01*
X3187315Y3907923D01*
X3187315Y3907923D02*
G01*
X3186313Y3893908D01*
X3186313Y3893908D02*
G01*
X3187315Y3879894D01*
X3187315Y3879894D02*
G01*
X3190301Y3866165D01*
X3190301Y3866165D02*
G01*
X3195212Y3853001D01*
X3195212Y3853001D02*
G01*
X3201945Y3840669D01*
X3201945Y3840669D02*
G01*
X3210365Y3829421D01*
X3210365Y3829421D02*
G01*
X3220300Y3819486D01*
X3220300Y3819486D02*
G01*
X3231548Y3811066D01*
X3231548Y3811066D02*
G01*
X3243879Y3804333D01*
X3243879Y3804333D02*
G01*
X3257044Y3799423D01*
X3257044Y3799423D02*
G01*
X3270773Y3796436D01*
X3270773Y3796436D02*
G01*
X3284787Y3795434D01*
X3284787Y3795434D02*
G01*
X3314445Y3795434D01*
X3314445Y3795434D02*
G01*
X3314445Y3683253D01*
X3314445Y3683253D02*
G01*
X2463800Y3683253D01*
X2463800Y3683253D02*
G01*
X2458842Y3682267D01*
X2458842Y3682267D02*
G01*
X2454640Y3679459D01*
X2454640Y3679459D02*
G01*
X2451832Y3675257D01*
X2451832Y3675257D02*
G01*
X2450848Y3670531D01*
X2450848Y3670531D02*
G01*
X2400273Y838352D01*
X2400273Y838352D02*
G01*
X357827Y821944D01*
X2095468Y4961754D02*
G01*
X2106490Y4960790D01*
X2106490Y4960790D02*
G01*
X2286490Y4960790D01*
X2286490Y4960790D02*
G01*
X2297512Y4961754D01*
X2297512Y4961754D02*
G01*
X2308199Y4964618D01*
X2308199Y4964618D02*
G01*
X2318227Y4969294D01*
X2318227Y4969294D02*
G01*
X2327291Y4975640D01*
X2327291Y4975640D02*
G01*
X2335114Y4983463D01*
X2335114Y4983463D02*
G01*
X2341460Y4992527D01*
X2341460Y4992527D02*
G01*
X2346136Y5002555D01*
X2346136Y5002555D02*
G01*
X2349000Y5013242D01*
X2349000Y5013242D02*
G01*
X2349964Y5024264D01*
X2349964Y5024264D02*
G01*
X2349964Y5204264D01*
X2349964Y5204264D02*
G01*
X2349000Y5215286D01*
X2349000Y5215286D02*
G01*
X2347664Y5220271D01*
X2347664Y5220271D02*
G01*
X2347664Y5723864D01*
X2347664Y5723864D02*
G01*
X2347621Y5728001D01*
X2347621Y5728001D02*
G01*
X2346196Y5744662D01*
X2346196Y5744662D02*
G01*
X2342774Y5761030D01*
X2342774Y5761030D02*
G01*
X2337403Y5776865D01*
X2337403Y5776865D02*
G01*
X2330162Y5791938D01*
X2330162Y5791938D02*
G01*
X2321158Y5806029D01*
X2321158Y5806029D02*
G01*
X2310521Y5818931D01*
X2310521Y5818931D02*
G01*
X2298406Y5830457D01*
X2298406Y5830457D02*
G01*
X2284990Y5840438D01*
X2284990Y5840438D02*
G01*
X2270469Y5848730D01*
X2270469Y5848730D02*
G01*
X2255054Y5855211D01*
X2255054Y5855211D02*
G01*
X2238970Y5859787D01*
X2238970Y5859787D02*
G01*
X1897979Y5934878D01*
X1897979Y5934878D02*
G01*
X1780539Y5964238D01*
X1780539Y5964238D02*
G01*
X1775511Y5969546D01*
X1775511Y5969546D02*
G01*
X1762020Y5981005D01*
X1762020Y5981005D02*
G01*
X1747370Y5990938D01*
X1747370Y5990938D02*
G01*
X1731731Y5999230D01*
X1731731Y5999230D02*
G01*
X1715287Y6005781D01*
X1715287Y6005781D02*
G01*
X1698232Y6010517D01*
X1698232Y6010517D02*
G01*
X1680764Y6013380D01*
X1680764Y6013380D02*
G01*
X1663090Y6014338D01*
X1663090Y6014338D02*
G01*
X1294790Y6014338D01*
X1294790Y6014338D02*
G01*
X1277374Y6013408D01*
X1277374Y6013408D02*
G01*
X968703Y5980336D01*
X968703Y5980336D02*
G01*
X803390Y6061296D01*
X803390Y6061296D02*
G01*
X708967Y6120326D01*
X708967Y6120326D02*
G01*
X702768Y6124014D01*
X702768Y6124014D02*
G01*
X693472Y6128882D01*
X693472Y6128882D02*
G01*
X686910Y6131878D01*
X686910Y6131878D02*
G01*
X677143Y6135714D01*
X677143Y6135714D02*
G01*
X670295Y6137983D01*
X670295Y6137983D02*
G01*
X660171Y6140739D01*
X660171Y6140739D02*
G01*
X653118Y6142255D01*
X653118Y6142255D02*
G01*
X642755Y6143901D01*
X642755Y6143901D02*
G01*
X635579Y6144645D01*
X635579Y6144645D02*
G01*
X625099Y6145160D01*
X625099Y6145160D02*
G01*
X617885Y6145124D01*
X617885Y6145124D02*
G01*
X607410Y6144504D01*
X607410Y6144504D02*
G01*
X600243Y6143688D01*
X600243Y6143688D02*
G01*
X589896Y6141938D01*
X589896Y6141938D02*
G01*
X582859Y6140352D01*
X582859Y6140352D02*
G01*
X572763Y6137495D01*
X572763Y6137495D02*
G01*
X565938Y6135157D01*
X565938Y6135157D02*
G01*
X556210Y6131224D01*
X556210Y6131224D02*
G01*
X549678Y6128163D01*
X549678Y6128163D02*
G01*
X540432Y6123201D01*
X540432Y6123201D02*
G01*
X534270Y6119452D01*
X534270Y6119452D02*
G01*
X525614Y6113519D01*
X525614Y6113519D02*
G01*
X519893Y6109125D01*
X519893Y6109125D02*
G01*
X511930Y6102292D01*
X511930Y6102292D02*
G01*
X506718Y6097305D01*
X506718Y6097305D02*
G01*
X375829Y5966421D01*
X375829Y5966421D02*
G01*
X362549Y5961130D01*
X362549Y5961130D02*
G01*
X346910Y5952838D01*
X346910Y5952838D02*
G01*
X332259Y5942905D01*
X332259Y5942905D02*
G01*
X318769Y5931446D01*
X318769Y5931446D02*
G01*
X306596Y5918595D01*
X306596Y5918595D02*
G01*
X295884Y5904504D01*
X295884Y5904504D02*
G01*
X286758Y5889337D01*
X286758Y5889337D02*
G01*
X279326Y5873272D01*
X279326Y5873272D02*
G01*
X273674Y5856498D01*
X273674Y5856498D02*
G01*
X269869Y5839211D01*
X269869Y5839211D02*
G01*
X267955Y5821614D01*
X267955Y5821614D02*
G01*
X267955Y5803914D01*
X267955Y5803914D02*
G01*
X269869Y5786317D01*
X269869Y5786317D02*
G01*
X273674Y5769030D01*
X273674Y5769030D02*
G01*
X279326Y5752256D01*
X279326Y5752256D02*
G01*
X286758Y5736191D01*
X286758Y5736191D02*
G01*
X295884Y5721024D01*
X295884Y5721024D02*
G01*
X306596Y5706933D01*
X306596Y5706933D02*
G01*
X318769Y5694082D01*
X318769Y5694082D02*
G01*
X332259Y5682623D01*
X332259Y5682623D02*
G01*
X346910Y5672690D01*
X346910Y5672690D02*
G01*
X362549Y5664399D01*
X362549Y5664399D02*
G01*
X378992Y5657847D01*
X378992Y5657847D02*
G01*
X396048Y5653112D01*
X396048Y5653112D02*
G01*
X413515Y5650248D01*
X413515Y5650248D02*
G01*
X431190Y5649290D01*
X431190Y5649290D02*
G01*
X939190Y5649290D01*
X939190Y5649290D02*
G01*
X953272Y5649897D01*
X953272Y5649897D02*
G01*
X956605Y5650220D01*
X956605Y5650220D02*
G01*
X1303522Y5687390D01*
X1303522Y5687390D02*
G01*
X1663090Y5687390D01*
X1663090Y5687390D02*
G01*
X1680764Y5688348D01*
X1680764Y5688348D02*
G01*
X1698232Y5691212D01*
X1698232Y5691212D02*
G01*
X1713641Y5695490D01*
X1713641Y5695490D02*
G01*
X1832705Y5665724D01*
X1832705Y5665724D02*
G01*
X1836509Y5664830D01*
X1836509Y5664830D02*
G01*
X2070715Y5613254D01*
X2070715Y5613254D02*
G01*
X2070715Y5256408D01*
X2070715Y5256408D02*
G01*
X2065689Y5252888D01*
X2065689Y5252888D02*
G01*
X2057866Y5245065D01*
X2057866Y5245065D02*
G01*
X2051519Y5236001D01*
X2051519Y5236001D02*
G01*
X2046844Y5225974D01*
X2046844Y5225974D02*
G01*
X2043980Y5215286D01*
X2043980Y5215286D02*
G01*
X2043015Y5204264D01*
X2043015Y5204264D02*
G01*
X2043015Y5024264D01*
X2043015Y5024264D02*
G01*
X2043980Y5013242D01*
X2043980Y5013242D02*
G01*
X2046844Y5002555D01*
X2046844Y5002555D02*
G01*
X2051519Y4992527D01*
X2051519Y4992527D02*
G01*
X2057866Y4983463D01*
X2057866Y4983463D02*
G01*
X2065689Y4975640D01*
X2065689Y4975640D02*
G01*
X2074753Y4969294D01*
X2074753Y4969294D02*
G01*
X2084780Y4964618D01*
X2084780Y4964618D02*
G01*
X2095468Y4961754D01*
X337361Y1120545D02*
G01*
X354990Y1119555D01*
X354990Y1119555D02*
G01*
X372619Y1120545D01*
X372619Y1120545D02*
G01*
X390027Y1123503D01*
X390027Y1123503D02*
G01*
X406994Y1128391D01*
X406994Y1128391D02*
G01*
X423307Y1135148D01*
X423307Y1135148D02*
G01*
X438761Y1143689D01*
X438761Y1143689D02*
G01*
X453161Y1153907D01*
X453161Y1153907D02*
G01*
X466327Y1165673D01*
X466327Y1165673D02*
G01*
X478093Y1178839D01*
X478093Y1178839D02*
G01*
X488310Y1193239D01*
X488310Y1193239D02*
G01*
X496852Y1208693D01*
X496852Y1208693D02*
G01*
X503609Y1225006D01*
X503609Y1225006D02*
G01*
X508497Y1241973D01*
X508497Y1241973D02*
G01*
X511454Y1259381D01*
X511454Y1259381D02*
G01*
X512444Y1277003D01*
X512444Y1277003D02*
G01*
X517371Y1284377D01*
X517371Y1284377D02*
G01*
X523936Y1297690D01*
X523936Y1297690D02*
G01*
X528707Y1311745D01*
X528707Y1311745D02*
G01*
X531603Y1326303D01*
X531603Y1326303D02*
G01*
X532574Y1341114D01*
X532574Y1341114D02*
G01*
X532574Y2278138D01*
X532574Y2278138D02*
G01*
X1155484Y2278138D01*
X1155484Y2278138D02*
G01*
X1206945Y2226677D01*
X1206945Y2226677D02*
G01*
X1208076Y2213514D01*
X1208076Y2213514D02*
G01*
X1211531Y2196463D01*
X1211531Y2196463D02*
G01*
X1216907Y2179917D01*
X1216907Y2179917D02*
G01*
X1224134Y2164091D01*
X1224134Y2164091D02*
G01*
X1233118Y2149193D01*
X1233118Y2149193D02*
G01*
X1243743Y2135415D01*
X1243743Y2135415D02*
G01*
X1255868Y2122939D01*
X1255868Y2122939D02*
G01*
X1269336Y2111926D01*
X1269336Y2111926D02*
G01*
X1283972Y2102520D01*
X1283972Y2102520D02*
G01*
X1299585Y2094844D01*
X1299585Y2094844D02*
G01*
X1315971Y2088997D01*
X1315971Y2088997D02*
G01*
X1332916Y2085057D01*
X1332916Y2085057D02*
G01*
X1350201Y2083073D01*
X1350201Y2083073D02*
G01*
X1367598Y2083073D01*
X1367598Y2083073D02*
G01*
X1384883Y2085057D01*
X1384883Y2085057D02*
G01*
X1401828Y2088997D01*
X1401828Y2088997D02*
G01*
X1418214Y2094844D01*
X1418214Y2094844D02*
G01*
X1433827Y2102520D01*
X1433827Y2102520D02*
G01*
X1448463Y2111926D01*
X1448463Y2111926D02*
G01*
X1461931Y2122939D01*
X1461931Y2122939D02*
G01*
X1474056Y2135415D01*
X1474056Y2135415D02*
G01*
X1484681Y2149193D01*
X1484681Y2149193D02*
G01*
X1493665Y2164091D01*
X1493665Y2164091D02*
G01*
X1500892Y2179917D01*
X1500892Y2179917D02*
G01*
X1506268Y2196463D01*
X1506268Y2196463D02*
G01*
X1509723Y2213514D01*
X1509723Y2213514D02*
G01*
X1511212Y2230848D01*
X1511212Y2230848D02*
G01*
X1510715Y2248239D01*
X1510715Y2248239D02*
G01*
X1508239Y2265460D01*
X1508239Y2265460D02*
G01*
X1503816Y2282286D01*
X1503816Y2282286D02*
G01*
X1497504Y2298498D01*
X1497504Y2298498D02*
G01*
X1489385Y2313885D01*
X1489385Y2313885D02*
G01*
X1479565Y2328247D01*
X1479565Y2328247D02*
G01*
X1468172Y2341395D01*
X1468172Y2341395D02*
G01*
X1455354Y2353159D01*
X1455354Y2353159D02*
G01*
X1441279Y2363385D01*
X1441279Y2363385D02*
G01*
X1426131Y2371940D01*
X1426131Y2371940D02*
G01*
X1410105Y2378713D01*
X1410105Y2378713D02*
G01*
X1393412Y2383614D01*
X1393412Y2383614D02*
G01*
X1376269Y2386581D01*
X1376269Y2386581D02*
G01*
X1367494Y2387083D01*
X1367494Y2387083D02*
G01*
X1282725Y2471851D01*
X1282725Y2471851D02*
G01*
X1271565Y2481638D01*
X1271565Y2481638D02*
G01*
X1259224Y2489885D01*
X1259224Y2489885D02*
G01*
X1245911Y2496449D01*
X1245911Y2496449D02*
G01*
X1231856Y2501221D01*
X1231856Y2501221D02*
G01*
X1217298Y2504116D01*
X1217298Y2504116D02*
G01*
X1202486Y2505087D01*
X1202486Y2505087D02*
G01*
X520602Y2505087D01*
X520602Y2505087D02*
G01*
X518884Y2506757D01*
X518884Y2506757D02*
G01*
X505106Y2517381D01*
X505106Y2517381D02*
G01*
X490208Y2526365D01*
X490208Y2526365D02*
G01*
X474382Y2533592D01*
X474382Y2533592D02*
G01*
X457836Y2538969D01*
X457836Y2538969D02*
G01*
X440785Y2542424D01*
X440785Y2542424D02*
G01*
X423451Y2543912D01*
X423451Y2543912D02*
G01*
X406060Y2543416D01*
X406060Y2543416D02*
G01*
X388839Y2540940D01*
X388839Y2540940D02*
G01*
X372013Y2536517D01*
X372013Y2536517D02*
G01*
X355801Y2530205D01*
X355801Y2530205D02*
G01*
X340414Y2522086D01*
X340414Y2522086D02*
G01*
X326052Y2512266D01*
X326052Y2512266D02*
G01*
X312904Y2500873D01*
X312904Y2500873D02*
G01*
X301140Y2488055D01*
X301140Y2488055D02*
G01*
X290914Y2473980D01*
X290914Y2473980D02*
G01*
X282359Y2458831D01*
X282359Y2458831D02*
G01*
X275586Y2442805D01*
X275586Y2442805D02*
G01*
X270685Y2426112D01*
X270685Y2426112D02*
G01*
X267718Y2408969D01*
X267718Y2408969D02*
G01*
X266725Y2391600D01*
X266725Y2391600D02*
G01*
X267718Y2374231D01*
X267718Y2374231D02*
G01*
X270685Y2357088D01*
X270685Y2357088D02*
G01*
X275586Y2340395D01*
X275586Y2340395D02*
G01*
X282359Y2324369D01*
X282359Y2324369D02*
G01*
X290914Y2309220D01*
X290914Y2309220D02*
G01*
X301140Y2295145D01*
X301140Y2295145D02*
G01*
X305625Y2290258D01*
X305625Y2290258D02*
G01*
X305625Y1426389D01*
X305625Y1426389D02*
G01*
X302986Y1425629D01*
X302986Y1425629D02*
G01*
X286673Y1418872D01*
X286673Y1418872D02*
G01*
X271219Y1410330D01*
X271219Y1410330D02*
G01*
X256819Y1400113D01*
X256819Y1400113D02*
G01*
X243653Y1388347D01*
X243653Y1388347D02*
G01*
X231887Y1375181D01*
X231887Y1375181D02*
G01*
X221669Y1360781D01*
X221669Y1360781D02*
G01*
X213128Y1345327D01*
X213128Y1345327D02*
G01*
X206371Y1329014D01*
X206371Y1329014D02*
G01*
X201483Y1312047D01*
X201483Y1312047D02*
G01*
X198525Y1294639D01*
X198525Y1294639D02*
G01*
X197535Y1277010D01*
X197535Y1277010D02*
G01*
X198525Y1259381D01*
X198525Y1259381D02*
G01*
X201483Y1241973D01*
X201483Y1241973D02*
G01*
X206371Y1225006D01*
X206371Y1225006D02*
G01*
X213128Y1208693D01*
X213128Y1208693D02*
G01*
X221669Y1193239D01*
X221669Y1193239D02*
G01*
X231887Y1178839D01*
X231887Y1178839D02*
G01*
X243653Y1165673D01*
X243653Y1165673D02*
G01*
X256819Y1153907D01*
X256819Y1153907D02*
G01*
X271219Y1143689D01*
X271219Y1143689D02*
G01*
X286673Y1135148D01*
X286673Y1135148D02*
G01*
X302986Y1128391D01*
X302986Y1128391D02*
G01*
X319953Y1123503D01*
X319953Y1123503D02*
G01*
X337361Y1120545D01*
X930246Y5211793D02*
G01*
X945057Y5210822D01*
X945057Y5210822D02*
G01*
X1624990Y5210822D01*
X1624990Y5210822D02*
G01*
X1639801Y5211793D01*
X1639801Y5211793D02*
G01*
X1654359Y5214689D01*
X1654359Y5214689D02*
G01*
X1668415Y5219460D01*
X1668415Y5219460D02*
G01*
X1681727Y5226025D01*
X1681727Y5226025D02*
G01*
X1694069Y5234271D01*
X1694069Y5234271D02*
G01*
X1705229Y5244058D01*
X1705229Y5244058D02*
G01*
X1715015Y5255218D01*
X1715015Y5255218D02*
G01*
X1723262Y5267559D01*
X1723262Y5267559D02*
G01*
X1729827Y5280872D01*
X1729827Y5280872D02*
G01*
X1734598Y5294927D01*
X1734598Y5294927D02*
G01*
X1737494Y5309485D01*
X1737494Y5309485D02*
G01*
X1738464Y5324297D01*
X1738464Y5324297D02*
G01*
X1737494Y5339108D01*
X1737494Y5339108D02*
G01*
X1734598Y5353666D01*
X1734598Y5353666D02*
G01*
X1729827Y5367722D01*
X1729827Y5367722D02*
G01*
X1723262Y5381034D01*
X1723262Y5381034D02*
G01*
X1715015Y5393376D01*
X1715015Y5393376D02*
G01*
X1705229Y5404535D01*
X1705229Y5404535D02*
G01*
X1694069Y5414322D01*
X1694069Y5414322D02*
G01*
X1681727Y5422569D01*
X1681727Y5422569D02*
G01*
X1668415Y5429133D01*
X1668415Y5429133D02*
G01*
X1654359Y5433905D01*
X1654359Y5433905D02*
G01*
X1639801Y5436800D01*
X1639801Y5436800D02*
G01*
X1624990Y5437771D01*
X1624990Y5437771D02*
G01*
X974453Y5437771D01*
X974453Y5437771D02*
G01*
X968559Y5439772D01*
X968559Y5439772D02*
G01*
X954001Y5442668D01*
X954001Y5442668D02*
G01*
X939190Y5443639D01*
X939190Y5443639D02*
G01*
X924378Y5442668D01*
X924378Y5442668D02*
G01*
X909821Y5439772D01*
X909821Y5439772D02*
G01*
X895765Y5435001D01*
X895765Y5435001D02*
G01*
X882453Y5428436D01*
X882453Y5428436D02*
G01*
X870111Y5420190D01*
X870111Y5420190D02*
G01*
X858951Y5410403D01*
X858951Y5410403D02*
G01*
X849164Y5399243D01*
X849164Y5399243D02*
G01*
X840918Y5386901D01*
X840918Y5386901D02*
G01*
X834353Y5373589D01*
X834353Y5373589D02*
G01*
X829582Y5359533D01*
X829582Y5359533D02*
G01*
X826686Y5344976D01*
X826686Y5344976D02*
G01*
X825715Y5330164D01*
X825715Y5330164D02*
G01*
X826686Y5315353D01*
X826686Y5315353D02*
G01*
X829582Y5300795D01*
X829582Y5300795D02*
G01*
X834353Y5286739D01*
X834353Y5286739D02*
G01*
X840918Y5273427D01*
X840918Y5273427D02*
G01*
X849164Y5261085D01*
X849164Y5261085D02*
G01*
X858951Y5249926D01*
X858951Y5249926D02*
G01*
X864819Y5244058D01*
X864819Y5244058D02*
G01*
X875978Y5234271D01*
X875978Y5234271D02*
G01*
X888320Y5226025D01*
X888320Y5226025D02*
G01*
X901632Y5219460D01*
X901632Y5219460D02*
G01*
X915688Y5214689D01*
X915688Y5214689D02*
G01*
X930246Y5211793D01*
X1861361Y1120545D02*
G01*
X1878990Y1119555D01*
X1878990Y1119555D02*
G01*
X1896619Y1120545D01*
X1896619Y1120545D02*
G01*
X1914027Y1123503D01*
X1914027Y1123503D02*
G01*
X1930994Y1128391D01*
X1930994Y1128391D02*
G01*
X1947307Y1135148D01*
X1947307Y1135148D02*
G01*
X1962761Y1143689D01*
X1962761Y1143689D02*
G01*
X1977161Y1153907D01*
X1977161Y1153907D02*
G01*
X1990327Y1165673D01*
X1990327Y1165673D02*
G01*
X2002093Y1178839D01*
X2002093Y1178839D02*
G01*
X2012310Y1193239D01*
X2012310Y1193239D02*
G01*
X2020852Y1208693D01*
X2020852Y1208693D02*
G01*
X2027609Y1225006D01*
X2027609Y1225006D02*
G01*
X2032497Y1241973D01*
X2032497Y1241973D02*
G01*
X2035454Y1259381D01*
X2035454Y1259381D02*
G01*
X2036445Y1277010D01*
X2036445Y1277010D02*
G01*
X2035454Y1294639D01*
X2035454Y1294639D02*
G01*
X2032497Y1312047D01*
X2032497Y1312047D02*
G01*
X2027609Y1329014D01*
X2027609Y1329014D02*
G01*
X2020852Y1345327D01*
X2020852Y1345327D02*
G01*
X2012310Y1360781D01*
X2012310Y1360781D02*
G01*
X2002093Y1375181D01*
X2002093Y1375181D02*
G01*
X1992464Y1385956D01*
X1992464Y1385956D02*
G01*
X1992464Y1458212D01*
X1992464Y1458212D02*
G01*
X1999390Y1469668D01*
X1999390Y1469668D02*
G01*
X2006129Y1484642D01*
X2006129Y1484642D02*
G01*
X2011014Y1500318D01*
X2011014Y1500318D02*
G01*
X2013974Y1516469D01*
X2013974Y1516469D02*
G01*
X2014965Y1532859D01*
X2014965Y1532859D02*
G01*
X2013974Y1549249D01*
X2013974Y1549249D02*
G01*
X2011014Y1565400D01*
X2011014Y1565400D02*
G01*
X2006129Y1581076D01*
X2006129Y1581076D02*
G01*
X1999390Y1596050D01*
X1999390Y1596050D02*
G01*
X1990895Y1610102D01*
X1990895Y1610102D02*
G01*
X1980769Y1623027D01*
X1980769Y1623027D02*
G01*
X1969158Y1634638D01*
X1969158Y1634638D02*
G01*
X1956233Y1644764D01*
X1956233Y1644764D02*
G01*
X1942181Y1653259D01*
X1942181Y1653259D02*
G01*
X1927207Y1659998D01*
X1927207Y1659998D02*
G01*
X1911531Y1664883D01*
X1911531Y1664883D02*
G01*
X1895380Y1667843D01*
X1895380Y1667843D02*
G01*
X1878990Y1668834D01*
X1878990Y1668834D02*
G01*
X1862600Y1667843D01*
X1862600Y1667843D02*
G01*
X1846449Y1664883D01*
X1846449Y1664883D02*
G01*
X1830773Y1659998D01*
X1830773Y1659998D02*
G01*
X1815799Y1653259D01*
X1815799Y1653259D02*
G01*
X1801747Y1644764D01*
X1801747Y1644764D02*
G01*
X1788822Y1634638D01*
X1788822Y1634638D02*
G01*
X1777211Y1623027D01*
X1777211Y1623027D02*
G01*
X1767085Y1610102D01*
X1767085Y1610102D02*
G01*
X1758590Y1596050D01*
X1758590Y1596050D02*
G01*
X1751851Y1581076D01*
X1751851Y1581076D02*
G01*
X1746966Y1565400D01*
X1746966Y1565400D02*
G01*
X1744006Y1549249D01*
X1744006Y1549249D02*
G01*
X1743015Y1532859D01*
X1743015Y1532859D02*
G01*
X1744006Y1516469D01*
X1744006Y1516469D02*
G01*
X1746966Y1500318D01*
X1746966Y1500318D02*
G01*
X1751851Y1484642D01*
X1751851Y1484642D02*
G01*
X1758590Y1469668D01*
X1758590Y1469668D02*
G01*
X1765515Y1458212D01*
X1765515Y1458212D02*
G01*
X1765515Y1385956D01*
X1765515Y1385956D02*
G01*
X1755887Y1375181D01*
X1755887Y1375181D02*
G01*
X1745669Y1360781D01*
X1745669Y1360781D02*
G01*
X1737128Y1345327D01*
X1737128Y1345327D02*
G01*
X1730371Y1329014D01*
X1730371Y1329014D02*
G01*
X1725483Y1312047D01*
X1725483Y1312047D02*
G01*
X1722525Y1294639D01*
X1722525Y1294639D02*
G01*
X1721535Y1277010D01*
X1721535Y1277010D02*
G01*
X1722525Y1259381D01*
X1722525Y1259381D02*
G01*
X1725483Y1241973D01*
X1725483Y1241973D02*
G01*
X1730371Y1225006D01*
X1730371Y1225006D02*
G01*
X1737128Y1208693D01*
X1737128Y1208693D02*
G01*
X1745669Y1193239D01*
X1745669Y1193239D02*
G01*
X1755887Y1178839D01*
X1755887Y1178839D02*
G01*
X1767653Y1165673D01*
X1767653Y1165673D02*
G01*
X1780819Y1153907D01*
X1780819Y1153907D02*
G01*
X1795219Y1143689D01*
X1795219Y1143689D02*
G01*
X1810673Y1135148D01*
X1810673Y1135148D02*
G01*
X1826986Y1128391D01*
X1826986Y1128391D02*
G01*
X1843953Y1123503D01*
X1843953Y1123503D02*
G01*
X1861361Y1120545D01*
X307802Y845400D02*
G01*
X2400399Y845400D01*
X199463Y896200D02*
G01*
X2401306Y896200D01*
X91125Y947000D02*
G01*
X2402213Y947000D01*
X89109Y997800D02*
G01*
X2403120Y997800D01*
X89604Y1048600D02*
G01*
X2404027Y1048600D01*
X90100Y1099400D02*
G01*
X2404934Y1099400D01*
X90595Y1150200D02*
G01*
X262042Y1150200D01*
X447937Y1150200D02*
G01*
X1786042Y1150200D01*
X1971937Y1150200D02*
G01*
X2405842Y1150200D01*
X91091Y1201000D02*
G01*
X217380Y1201000D01*
X492600Y1201000D02*
G01*
X1741380Y1201000D01*
X2016600Y1201000D02*
G01*
X2406749Y1201000D01*
X91586Y1251800D02*
G01*
X199813Y1251800D01*
X510167Y1251800D02*
G01*
X1723813Y1251800D01*
X2034167Y1251800D02*
G01*
X2407656Y1251800D01*
X92082Y1302600D02*
G01*
X199878Y1302600D01*
X525603Y1302600D02*
G01*
X1723878Y1302600D01*
X2034102Y1302600D02*
G01*
X2408563Y1302600D01*
X92577Y1353400D02*
G01*
X217590Y1353400D01*
X532574Y1353400D02*
G01*
X1741590Y1353400D01*
X2016389Y1353400D02*
G01*
X2409470Y1353400D01*
X93073Y1404200D02*
G01*
X262579Y1404200D01*
X532574Y1404200D02*
G01*
X1765515Y1404200D01*
X1992464Y1404200D02*
G01*
X2410377Y1404200D01*
X93568Y1455000D02*
G01*
X305625Y1455000D01*
X532574Y1455000D02*
G01*
X1765515Y1455000D01*
X1992464Y1455000D02*
G01*
X2411284Y1455000D01*
X94064Y1505800D02*
G01*
X305625Y1505800D01*
X532574Y1505800D02*
G01*
X1745961Y1505800D01*
X2012019Y1505800D02*
G01*
X2412192Y1505800D01*
X94559Y1556600D02*
G01*
X305625Y1556600D01*
X532574Y1556600D02*
G01*
X1745353Y1556600D01*
X2012626Y1556600D02*
G01*
X2413099Y1556600D01*
X95055Y1607400D02*
G01*
X305625Y1607400D01*
X532574Y1607400D02*
G01*
X1765452Y1607400D01*
X1992528Y1607400D02*
G01*
X2414006Y1607400D01*
X95550Y1658200D02*
G01*
X305625Y1658200D01*
X532574Y1658200D02*
G01*
X1826778Y1658200D01*
X1931201Y1658200D02*
G01*
X2414913Y1658200D01*
X96046Y1709000D02*
G01*
X305625Y1709000D01*
X532574Y1709000D02*
G01*
X2415820Y1709000D01*
X96542Y1759800D02*
G01*
X305625Y1759800D01*
X532574Y1759800D02*
G01*
X2416727Y1759800D01*
X97037Y1810600D02*
G01*
X305625Y1810600D01*
X532574Y1810600D02*
G01*
X2417634Y1810600D01*
X97533Y1861400D02*
G01*
X305625Y1861400D01*
X532574Y1861400D02*
G01*
X2418542Y1861400D01*
X98028Y1912200D02*
G01*
X305625Y1912200D01*
X532574Y1912200D02*
G01*
X2419449Y1912200D01*
X98524Y1963000D02*
G01*
X305625Y1963000D01*
X532574Y1963000D02*
G01*
X2420356Y1963000D01*
X99019Y2013800D02*
G01*
X305625Y2013800D01*
X532574Y2013800D02*
G01*
X2421263Y2013800D01*
X99515Y2064600D02*
G01*
X305625Y2064600D01*
X532574Y2064600D02*
G01*
X2422170Y2064600D01*
X100010Y2115400D02*
G01*
X305625Y2115400D01*
X532574Y2115400D02*
G01*
X1265087Y2115400D01*
X1452712Y2115400D02*
G01*
X2423077Y2115400D01*
X100506Y2166200D02*
G01*
X305625Y2166200D01*
X532574Y2166200D02*
G01*
X1223171Y2166200D01*
X1494628Y2166200D02*
G01*
X2423984Y2166200D01*
X101001Y2217000D02*
G01*
X305625Y2217000D01*
X532574Y2217000D02*
G01*
X1207776Y2217000D01*
X1510023Y2217000D02*
G01*
X2424892Y2217000D01*
X101497Y2267800D02*
G01*
X305625Y2267800D01*
X532574Y2267800D02*
G01*
X1165821Y2267800D01*
X1507624Y2267800D02*
G01*
X2425799Y2267800D01*
X101992Y2318600D02*
G01*
X285616Y2318600D01*
X1486161Y2318600D02*
G01*
X2426706Y2318600D01*
X102488Y2369400D02*
G01*
X268554Y2369400D01*
X1430628Y2369400D02*
G01*
X2427613Y2369400D01*
X102984Y2420200D02*
G01*
X269662Y2420200D01*
X1334376Y2420200D02*
G01*
X2428520Y2420200D01*
X103479Y2471000D02*
G01*
X289231Y2471000D01*
X1283576Y2471000D02*
G01*
X2429427Y2471000D01*
X103974Y2521800D02*
G01*
X339996Y2521800D01*
X497778Y2521800D02*
G01*
X2430334Y2521800D01*
X104470Y2572600D02*
G01*
X2431242Y2572600D01*
X104966Y2623400D02*
G01*
X2432149Y2623400D01*
X105461Y2674200D02*
G01*
X2433056Y2674200D01*
X105957Y2725000D02*
G01*
X2433963Y2725000D01*
X106452Y2775800D02*
G01*
X2434870Y2775800D01*
X106948Y2826600D02*
G01*
X2435777Y2826600D01*
X107443Y2877400D02*
G01*
X2436684Y2877400D01*
X107939Y2928200D02*
G01*
X2437592Y2928200D01*
X108434Y2979000D02*
G01*
X2438499Y2979000D01*
X108930Y3029800D02*
G01*
X2439406Y3029800D01*
X109425Y3080600D02*
G01*
X2440313Y3080600D01*
X109921Y3131400D02*
G01*
X2441220Y3131400D01*
X110416Y3182200D02*
G01*
X2442127Y3182200D01*
X110912Y3233000D02*
G01*
X2443034Y3233000D01*
X111407Y3283800D02*
G01*
X2443942Y3283800D01*
X111903Y3334600D02*
G01*
X2444849Y3334600D01*
X112399Y3385400D02*
G01*
X2445756Y3385400D01*
X112894Y3436200D02*
G01*
X2446663Y3436200D01*
X113390Y3487000D02*
G01*
X2447570Y3487000D01*
X113885Y3537800D02*
G01*
X2448477Y3537800D01*
X114381Y3588600D02*
G01*
X2449384Y3588600D01*
X114876Y3639400D02*
G01*
X2450292Y3639400D01*
X115372Y3690200D02*
G01*
X3314445Y3690200D01*
X115867Y3741000D02*
G01*
X3314445Y3741000D01*
X116363Y3791800D02*
G01*
X3314445Y3791800D01*
X116858Y3842600D02*
G01*
X3200890Y3842600D01*
X117354Y3893400D02*
G01*
X3186349Y3893400D01*
X117849Y3944200D02*
G01*
X3162459Y3944200D01*
X118345Y3995000D02*
G01*
X1073298Y3995000D01*
X118841Y4045800D02*
G01*
X1064971Y4045800D01*
X119336Y4096600D02*
G01*
X1064971Y4096600D01*
X119831Y4147400D02*
G01*
X1064971Y4147400D01*
X120327Y4198200D02*
G01*
X1066830Y4198200D01*
X120822Y4249000D02*
G01*
X2975543Y4249000D01*
X121318Y4299800D02*
G01*
X2901276Y4299800D01*
X121814Y4350600D02*
G01*
X2850476Y4350600D01*
X122309Y4401400D02*
G01*
X2745452Y4401400D01*
X122805Y4452200D02*
G01*
X2706710Y4452200D01*
X3238300Y4452200D02*
G01*
X3247918Y4452200D01*
X123300Y4503000D02*
G01*
X2692714Y4503000D01*
X3019031Y4503000D02*
G01*
X3220824Y4503000D01*
X123796Y4553800D02*
G01*
X2696478Y4553800D01*
X2992040Y4553800D02*
G01*
X3198807Y4553800D01*
X124291Y4604600D02*
G01*
X2719421Y4604600D01*
X2968847Y4604600D02*
G01*
X3178487Y4604600D01*
X124787Y4655400D02*
G01*
X2730715Y4655400D01*
X2957664Y4655400D02*
G01*
X3159038Y4655400D01*
X125282Y4706200D02*
G01*
X2730715Y4706200D01*
X2957664Y4706200D02*
G01*
X3142528Y4706200D01*
X125778Y4757000D02*
G01*
X2730715Y4757000D01*
X2957664Y4757000D02*
G01*
X3126018Y4757000D01*
X126273Y4807800D02*
G01*
X2730715Y4807800D01*
X2957664Y4807800D02*
G01*
X3109508Y4807800D01*
X126769Y4858600D02*
G01*
X2730715Y4858600D01*
X2957664Y4858600D02*
G01*
X3092998Y4858600D01*
X127264Y4909400D02*
G01*
X2730715Y4909400D01*
X2957664Y4909400D02*
G01*
X3076488Y4909400D01*
X127760Y4960200D02*
G01*
X2698076Y4960200D01*
X2957664Y4960200D02*
G01*
X3059978Y4960200D01*
X128256Y5011000D02*
G01*
X2044580Y5011000D01*
X2348399Y5011000D02*
G01*
X2591183Y5011000D01*
X2951399Y5011000D02*
G01*
X3043468Y5011000D01*
X128751Y5061800D02*
G01*
X2043015Y5061800D01*
X2349964Y5061800D02*
G01*
X2560427Y5061800D01*
X2917431Y5061800D02*
G01*
X3026958Y5061800D01*
X129247Y5112600D02*
G01*
X2043015Y5112600D01*
X2349964Y5112600D02*
G01*
X2551156Y5112600D01*
X2866631Y5112600D02*
G01*
X3010448Y5112600D01*
X129742Y5163400D02*
G01*
X2043015Y5163400D01*
X2349964Y5163400D02*
G01*
X2559193Y5163400D01*
X2849787Y5163400D02*
G01*
X2995660Y5163400D01*
X130238Y5214200D02*
G01*
X918143Y5214200D01*
X1651904Y5214200D02*
G01*
X2043885Y5214200D01*
X2349095Y5214200D02*
G01*
X2588341Y5214200D01*
X2820639Y5214200D02*
G01*
X2987703Y5214200D01*
X130733Y5265000D02*
G01*
X846548Y5265000D01*
X1721552Y5265000D02*
G01*
X2070715Y5265000D01*
X2347664Y5265000D02*
G01*
X2676954Y5265000D01*
X2732026Y5265000D02*
G01*
X2979746Y5265000D01*
X131229Y5315800D02*
G01*
X826657Y5315800D01*
X1737908Y5315800D02*
G01*
X2070715Y5315800D01*
X2347664Y5315800D02*
G01*
X2971790Y5315800D01*
X131724Y5366600D02*
G01*
X831981Y5366600D01*
X1730207Y5366600D02*
G01*
X2070715Y5366600D01*
X2347664Y5366600D02*
G01*
X2963833Y5366600D01*
X132220Y5417400D02*
G01*
X866931Y5417400D01*
X1689462Y5417400D02*
G01*
X2070715Y5417400D01*
X2347664Y5417400D02*
G01*
X2955876Y5417400D01*
X132715Y5468200D02*
G01*
X2070715Y5468200D01*
X2347664Y5468200D02*
G01*
X2947920Y5468200D01*
X133211Y5519000D02*
G01*
X2070715Y5519000D01*
X2347664Y5519000D02*
G01*
X2939963Y5519000D01*
X133706Y5569800D02*
G01*
X2070715Y5569800D01*
X2347664Y5569800D02*
G01*
X2932007Y5569800D01*
X134202Y5620600D02*
G01*
X2037356Y5620600D01*
X2347664Y5620600D02*
G01*
X2924050Y5620600D01*
X134697Y5671400D02*
G01*
X349342Y5671400D01*
X1154289Y5671400D02*
G01*
X1810000Y5671400D01*
X2347664Y5671400D02*
G01*
X2916093Y5671400D01*
X135193Y5722200D02*
G01*
X295176Y5722200D01*
X2347664Y5722200D02*
G01*
X2908137Y5722200D01*
X135689Y5773000D02*
G01*
X272800Y5773000D01*
X2338714Y5773000D02*
G01*
X2900180Y5773000D01*
X136184Y5823800D02*
G01*
X268193Y5823800D01*
X2305402Y5823800D02*
G01*
X2892224Y5823800D01*
X136679Y5874600D02*
G01*
X279941Y5874600D01*
X2171701Y5874600D02*
G01*
X2884267Y5874600D01*
X137175Y5925400D02*
G01*
X313042Y5925400D01*
X1941017Y5925400D02*
G01*
X2876310Y5925400D01*
X137671Y5976200D02*
G01*
X385609Y5976200D01*
X1767677Y5976200D02*
G01*
X2868354Y5976200D01*
X138166Y6027000D02*
G01*
X436411Y6027000D01*
X873419Y6027000D02*
G01*
X2860397Y6027000D01*
X138662Y6077800D02*
G01*
X487212Y6077800D01*
X776990Y6077800D02*
G01*
X2852440Y6077800D01*
X139157Y6128600D02*
G01*
X550612Y6128600D01*
X694010Y6128600D02*
G01*
X2844484Y6128600D01*
X139653Y6179400D02*
G01*
X2836527Y6179400D01*
X3263900Y3683253D02*
G01*
X3263900Y3797931D01*
X3213100Y3683253D02*
G01*
X3213100Y3826687D01*
X3213100Y4465344D02*
G01*
X3213100Y4518070D01*
X3162300Y3683253D02*
G01*
X3162300Y3944311D01*
X3162300Y4212310D02*
G01*
X3162300Y4238424D01*
X3162300Y4472571D02*
G01*
X3162300Y4645366D01*
X3111500Y3683253D02*
G01*
X3111500Y3985535D01*
X3111500Y4212485D02*
G01*
X3111500Y4245622D01*
X3111500Y4472571D02*
G01*
X3111500Y4801673D01*
X3060700Y3683253D02*
G01*
X3060700Y3985711D01*
X3060700Y4212661D02*
G01*
X3060700Y4245622D01*
X3060700Y4472571D02*
G01*
X3060700Y4957981D01*
X3009900Y3683253D02*
G01*
X3009900Y3985886D01*
X3009900Y4212837D02*
G01*
X3009900Y4245622D01*
X3009900Y4512132D02*
G01*
X3009900Y5114289D01*
X2959100Y3683253D02*
G01*
X2959100Y3986062D01*
X2959100Y4213012D02*
G01*
X2959100Y4254237D01*
X2959100Y4617142D02*
G01*
X2959100Y5396823D01*
X2908300Y3683253D02*
G01*
X2908300Y3986238D01*
X2908300Y4213188D02*
G01*
X2908300Y4292777D01*
X2908300Y5070932D02*
G01*
X2908300Y5721162D01*
X2857500Y3683253D02*
G01*
X2857500Y3986413D01*
X2857500Y4213364D02*
G01*
X2857500Y4343577D01*
X2857500Y5123961D02*
G01*
X2857500Y6045500D01*
X2806700Y3683253D02*
G01*
X2806700Y3986589D01*
X2806700Y4213540D02*
G01*
X2806700Y4369743D01*
X2806700Y5228433D02*
G01*
X2806700Y6197345D01*
X2755900Y3683253D02*
G01*
X2755900Y3986765D01*
X2755900Y4213715D02*
G01*
X2755900Y4393344D01*
X2755900Y5258862D02*
G01*
X2755900Y6197345D01*
X2705100Y3683253D02*
G01*
X2705100Y3986941D01*
X2705100Y4213891D02*
G01*
X2705100Y4455475D01*
X2705100Y4579253D02*
G01*
X2705100Y4953177D01*
X2705100Y5267704D02*
G01*
X2705100Y6197345D01*
X2654300Y3683253D02*
G01*
X2654300Y3987116D01*
X2654300Y4214067D02*
G01*
X2654300Y4969487D01*
X2654300Y5259220D02*
G01*
X2654300Y6197345D01*
X2603500Y3683253D02*
G01*
X2603500Y3987292D01*
X2603500Y4214243D02*
G01*
X2603500Y4998916D01*
X2603500Y5229551D02*
G01*
X2603500Y6197345D01*
X2552700Y3683253D02*
G01*
X2552700Y3987468D01*
X2552700Y4214418D02*
G01*
X2552700Y5091821D01*
X2552700Y5135195D02*
G01*
X2552700Y6197345D01*
X2501900Y3683253D02*
G01*
X2501900Y3987644D01*
X2501900Y4214594D02*
G01*
X2501900Y6197345D01*
X2451100Y3671741D02*
G01*
X2451100Y3987819D01*
X2451100Y4214770D02*
G01*
X2451100Y6197345D01*
X2400300Y839839D02*
G01*
X2400300Y3987995D01*
X2400300Y4214945D02*
G01*
X2400300Y6197345D01*
X2349500Y837944D02*
G01*
X2349500Y3988171D01*
X2349500Y4215121D02*
G01*
X2349500Y5018951D01*
X2349500Y5209577D02*
G01*
X2349500Y6197345D01*
X2298700Y837536D02*
G01*
X2298700Y3988346D01*
X2298700Y4215297D02*
G01*
X2298700Y4962072D01*
X2298700Y5830177D02*
G01*
X2298700Y6197345D01*
X2247900Y837128D02*
G01*
X2247900Y3988522D01*
X2247900Y4215472D02*
G01*
X2247900Y4960790D01*
X2247900Y5857246D02*
G01*
X2247900Y6197345D01*
X2197100Y836719D02*
G01*
X2197100Y3988698D01*
X2197100Y4215648D02*
G01*
X2197100Y4960790D01*
X2197100Y5869007D02*
G01*
X2197100Y6197345D01*
X2146300Y836312D02*
G01*
X2146300Y3988873D01*
X2146300Y4215824D02*
G01*
X2146300Y4960790D01*
X2146300Y5880194D02*
G01*
X2146300Y6197345D01*
X2095500Y835903D02*
G01*
X2095500Y3989049D01*
X2095500Y4215999D02*
G01*
X2095500Y4961751D01*
X2095500Y5891381D02*
G01*
X2095500Y6197345D01*
X2044700Y835495D02*
G01*
X2044700Y3989225D01*
X2044700Y4216175D02*
G01*
X2044700Y5010556D01*
X2044700Y5217972D02*
G01*
X2044700Y5618983D01*
X2044700Y5902568D02*
G01*
X2044700Y6197345D01*
X1993900Y835087D02*
G01*
X1993900Y1169670D01*
X1993900Y1384350D02*
G01*
X1993900Y1460586D01*
X1993900Y1605132D02*
G01*
X1993900Y3989400D01*
X1993900Y4216351D02*
G01*
X1993900Y5630170D01*
X1993900Y5913755D02*
G01*
X1993900Y6197345D01*
X1943100Y834679D02*
G01*
X1943100Y1133405D01*
X1943100Y1652704D02*
G01*
X1943100Y3989576D01*
X1943100Y4216527D02*
G01*
X1943100Y5641357D01*
X1943100Y5924942D02*
G01*
X1943100Y6197345D01*
X1892300Y834271D02*
G01*
X1892300Y1120303D01*
X1892300Y1668029D02*
G01*
X1892300Y3989752D01*
X1892300Y4216702D02*
G01*
X1892300Y5652544D01*
X1892300Y5936298D02*
G01*
X1892300Y6197345D01*
X1841500Y833863D02*
G01*
X1841500Y1124210D01*
X1841500Y1663341D02*
G01*
X1841500Y3989928D01*
X1841500Y4216878D02*
G01*
X1841500Y5663731D01*
X1841500Y5948998D02*
G01*
X1841500Y6197345D01*
X1790700Y833455D02*
G01*
X1790700Y1146896D01*
X1790700Y1636109D02*
G01*
X1790700Y3990103D01*
X1790700Y4217054D02*
G01*
X1790700Y5676225D01*
X1790700Y5961698D02*
G01*
X1790700Y6197345D01*
X1739900Y833047D02*
G01*
X1739900Y1203679D01*
X1739900Y1350341D02*
G01*
X1739900Y3990279D01*
X1739900Y4217229D02*
G01*
X1739900Y5688925D01*
X1739900Y5994899D02*
G01*
X1739900Y6197345D01*
X1689100Y832638D02*
G01*
X1689100Y3990455D01*
X1689100Y4217405D02*
G01*
X1689100Y5230951D01*
X1689100Y5417642D02*
G01*
X1689100Y5689714D01*
X1689100Y6012014D02*
G01*
X1689100Y6197345D01*
X1638300Y832230D02*
G01*
X1638300Y3990630D01*
X1638300Y4217581D02*
G01*
X1638300Y5211694D01*
X1638300Y5436899D02*
G01*
X1638300Y5687390D01*
X1638300Y6014338D02*
G01*
X1638300Y6197345D01*
X1587500Y831822D02*
G01*
X1587500Y3990806D01*
X1587500Y4217756D02*
G01*
X1587500Y5210822D01*
X1587500Y5437771D02*
G01*
X1587500Y5687390D01*
X1587500Y6014338D02*
G01*
X1587500Y6197345D01*
X1536700Y831414D02*
G01*
X1536700Y3990982D01*
X1536700Y4217932D02*
G01*
X1536700Y5210822D01*
X1536700Y5437771D02*
G01*
X1536700Y5687390D01*
X1536700Y6014338D02*
G01*
X1536700Y6197345D01*
X1485900Y831006D02*
G01*
X1485900Y2151214D01*
X1485900Y2318983D02*
G01*
X1485900Y3991158D01*
X1485900Y4218108D02*
G01*
X1485900Y5210822D01*
X1485900Y5437771D02*
G01*
X1485900Y5687390D01*
X1485900Y6014338D02*
G01*
X1485900Y6197345D01*
X1435100Y830598D02*
G01*
X1435100Y2103338D01*
X1435100Y2366875D02*
G01*
X1435100Y3991333D01*
X1435100Y4218284D02*
G01*
X1435100Y5210822D01*
X1435100Y5437771D02*
G01*
X1435100Y5687390D01*
X1435100Y6014338D02*
G01*
X1435100Y6197345D01*
X1384300Y830190D02*
G01*
X1384300Y2084990D01*
X1384300Y2385191D02*
G01*
X1384300Y3991509D01*
X1384300Y4218459D02*
G01*
X1384300Y5210822D01*
X1384300Y5437771D02*
G01*
X1384300Y5687390D01*
X1384300Y6014338D02*
G01*
X1384300Y6197345D01*
X1333500Y829782D02*
G01*
X1333500Y2084990D01*
X1333500Y2421077D02*
G01*
X1333500Y3980731D01*
X1333500Y4230275D02*
G01*
X1333500Y5210822D01*
X1333500Y5437771D02*
G01*
X1333500Y5687390D01*
X1333500Y6014338D02*
G01*
X1333500Y6197345D01*
X1282700Y829374D02*
G01*
X1282700Y2103338D01*
X1282700Y2471874D02*
G01*
X1282700Y3962885D01*
X1282700Y4247718D02*
G01*
X1282700Y5210822D01*
X1282700Y5437771D02*
G01*
X1282700Y5685159D01*
X1282700Y6013693D02*
G01*
X1282700Y6197345D01*
X1231900Y828966D02*
G01*
X1231900Y2151214D01*
X1231900Y2501206D02*
G01*
X1231900Y3962885D01*
X1231900Y4247718D02*
G01*
X1231900Y5210822D01*
X1231900Y5437771D02*
G01*
X1231900Y5679716D01*
X1231900Y6008536D02*
G01*
X1231900Y6197345D01*
X1181100Y828558D02*
G01*
X1181100Y2252522D01*
X1181100Y2505087D02*
G01*
X1181100Y3962885D01*
X1181100Y4247718D02*
G01*
X1181100Y5210822D01*
X1181100Y5437771D02*
G01*
X1181100Y5674273D01*
X1181100Y6003093D02*
G01*
X1181100Y6197345D01*
X1130300Y828149D02*
G01*
X1130300Y2278138D01*
X1130300Y2505087D02*
G01*
X1130300Y3962885D01*
X1130300Y4247508D02*
G01*
X1130300Y5210822D01*
X1130300Y5437771D02*
G01*
X1130300Y5668830D01*
X1130300Y5997650D02*
G01*
X1130300Y6197345D01*
X1079500Y827741D02*
G01*
X1079500Y2278138D01*
X1079500Y2505087D02*
G01*
X1079500Y3986018D01*
X1079500Y4224181D02*
G01*
X1079500Y5210822D01*
X1079500Y5437771D02*
G01*
X1079500Y5663387D01*
X1079500Y5992207D02*
G01*
X1079500Y6197345D01*
X1028700Y827333D02*
G01*
X1028700Y2278138D01*
X1028700Y2505087D02*
G01*
X1028700Y5210822D01*
X1028700Y5437771D02*
G01*
X1028700Y5657944D01*
X1028700Y5986765D02*
G01*
X1028700Y6197345D01*
X977900Y826925D02*
G01*
X977900Y2278138D01*
X977900Y2505087D02*
G01*
X977900Y5210822D01*
X977900Y5437771D02*
G01*
X977900Y5652502D01*
X977900Y5981322D02*
G01*
X977900Y6197345D01*
X927100Y826517D02*
G01*
X927100Y2278138D01*
X927100Y2505087D02*
G01*
X927100Y5212419D01*
X927100Y5442846D02*
G01*
X927100Y5649290D01*
X927100Y6000711D02*
G01*
X927100Y6197345D01*
X876300Y826109D02*
G01*
X876300Y2278138D01*
X876300Y2505087D02*
G01*
X876300Y5234057D01*
X876300Y5424324D02*
G01*
X876300Y5649290D01*
X876300Y6025589D02*
G01*
X876300Y6197345D01*
X825500Y825701D02*
G01*
X825500Y2278138D01*
X825500Y2505087D02*
G01*
X825500Y5649290D01*
X825500Y6050468D02*
G01*
X825500Y6197345D01*
X774700Y825293D02*
G01*
X774700Y2278138D01*
X774700Y2505087D02*
G01*
X774700Y5649290D01*
X774700Y6079232D02*
G01*
X774700Y6197345D01*
X723900Y824885D02*
G01*
X723900Y2278138D01*
X723900Y2505087D02*
G01*
X723900Y5649290D01*
X723900Y6110990D02*
G01*
X723900Y6197345D01*
X673100Y824477D02*
G01*
X673100Y2278138D01*
X673100Y2505087D02*
G01*
X673100Y5649290D01*
X673100Y6137054D02*
G01*
X673100Y6197345D01*
X622300Y824068D02*
G01*
X622300Y2278138D01*
X622300Y2505087D02*
G01*
X622300Y5649290D01*
X622300Y6145146D02*
G01*
X622300Y6197345D01*
X571500Y823660D02*
G01*
X571500Y2278138D01*
X571500Y2505087D02*
G01*
X571500Y5649290D01*
X571500Y6137062D02*
G01*
X571500Y6197345D01*
X520700Y823252D02*
G01*
X520700Y1291126D01*
X520700Y2505087D02*
G01*
X520700Y5649290D01*
X520700Y6109745D02*
G01*
X520700Y6197345D01*
X469900Y822844D02*
G01*
X469900Y1169670D01*
X469900Y2535049D02*
G01*
X469900Y5649290D01*
X469900Y6060488D02*
G01*
X469900Y6197345D01*
X419100Y822436D02*
G01*
X419100Y1133405D01*
X419100Y2543788D02*
G01*
X419100Y5649945D01*
X419100Y6009690D02*
G01*
X419100Y6197345D01*
X368300Y822028D02*
G01*
X368300Y1120303D01*
X368300Y2535071D02*
G01*
X368300Y5662108D01*
X368300Y5963421D02*
G01*
X368300Y6197345D01*
X317500Y840853D02*
G01*
X317500Y1124210D01*
X317500Y2504855D02*
G01*
X317500Y5695422D01*
X317500Y5930106D02*
G01*
X317500Y6197345D01*
X266700Y864673D02*
G01*
X266700Y1146896D01*
X266700Y1407124D02*
G01*
X266700Y6197345D01*
X215900Y888494D02*
G01*
X215900Y1203679D01*
X215900Y1350341D02*
G01*
X215900Y6197345D01*
X165100Y912314D02*
G01*
X165100Y6197345D01*
X114300Y936134D02*
G01*
X114300Y3580283D01*
D23*
G01*
X3819779Y3766896D03*
G01*
X3819779Y3893896D03*
G01*
X3819779Y4020896D03*
G01*
X3819779Y4147896D03*
G01*
X3309797Y3766896D03*
G01*
X3309797Y3893896D03*
G01*
X3309797Y4020896D03*
G01*
X3309797Y4147896D03*
G36*
X5880100Y1790700D02*
G01*
X7620000Y1790700D01*
X7620000Y609600D01*
X5880100Y609600D01*
G37*
G36*
X7340600Y4165600D02*
G01*
X7353300Y4165600D01*
X7353300Y4152900D01*
X7340600Y4152900D01*
G37*
G36*
X6451600Y5588000D02*
G01*
X7340600Y5588000D01*
X7340600Y4178300D01*
X6451600Y4178300D01*
G37*
G36*
X6997700Y2641600D02*
G01*
X7505700Y2641600D01*
X7505700Y1689100D01*
X6997700Y1689100D01*
G37*
G36*
X6032500Y2019300D02*
G01*
X6527800Y2019300D01*
X6527800Y1727200D01*
X6032500Y1727200D01*
G37*
G36*
X5930900Y6604000D02*
G01*
X7607300Y6604000D01*
X7607300Y5524500D01*
X5930900Y5524500D01*
G37*
G36*
X5943600Y3352800D02*
G01*
X6337300Y3352800D01*
X6337300Y1727200D01*
X5943600Y1727200D01*
G37*
G36*
X5499100Y3225800D02*
G01*
X5626100Y3225800D01*
X5626100Y3073400D01*
X5499100Y3073400D01*
G37*
G36*
X5499100Y3365500D02*
G01*
X5867400Y3365500D01*
X5867400Y3111500D01*
X5499100Y3111500D01*
G37*
G36*
X6413500Y4229100D02*
G01*
X7073900Y4229100D01*
X7073900Y3860800D01*
X6413500Y3860800D01*
G37*
D24*
G01*
X1207185Y4105097D03*
G01*
X1207185Y3851097D03*
D25*
G01*
X5854700Y3214166D03*
D26*
G01*
X5854700Y4304207D03*
D25*
G01*
X5854700Y3759174D03*
D27*
G01*
X1878990Y1277010D03*
G01*
X354990Y1277010D03*
D10*
G01*
X5854700Y1600200D03*
G01*
X5854700Y1092200D03*
D28*
G01*
X939190Y5812764D03*
D29*
G01*
X431190Y5812764D03*
D28*
G01*
X939190Y5330164D03*
D29*
G01*
X431190Y5330164D03*
D24*
G01*
X1211376Y3850436D03*
G01*
X1211376Y4105503D03*
D30*
G01*
X2209190Y5723864D03*
G01*
X2463190Y5723864D03*
D31*
G01*
X4504004Y2829991D03*
G01*
X3996004Y2829991D03*
G01*
X1358900Y2743200D03*
G01*
X1358900Y2235200D03*
G01*
X4544009Y4880000D03*
G01*
X4036009Y4880000D03*
G01*
X2844190Y4517364D03*
G01*
X2336190Y4517364D03*
D32*
G01*
X2196490Y5114264D03*
D29*
G01*
X2450490Y5114264D03*
G01*
X2704490Y5114264D03*
G01*
X4032605Y5715000D03*
G01*
X4542586Y5715000D03*
G01*
X4526584Y2015464D03*
G01*
X4016603Y2015464D03*
D27*
G01*
X4318000Y4114800D03*
G01*
X5334000Y4114800D03*
G01*
X4318000Y3835400D03*
G01*
X5334000Y3835400D03*
D31*
G01*
X419100Y2901594D03*
G01*
X419100Y2391613D03*
D10*
G01*
X5867400Y6616700D03*
G01*
X5867400Y6108700D03*
D33*
G01*
X685190Y3597097D03*
G01*
X685190Y4613097D03*
G01*
X1701190Y3597097D03*
D29*
G01*
X1624990Y5324297D03*
G01*
X1269390Y5324297D03*
G01*
X1663090Y5850864D03*
G01*
X1294790Y5850864D03*
D19*
G01*
X5346700Y3340100D03*
G01*
X4634890Y3482797D03*
D10*
G01*
X5854700Y609600D03*
D34*
G01*
X1878990Y1532864D03*
G01*
X3225190Y1532864D03*
G01*
X3479190Y1532864D03*
G01*
X1878990Y3107664D03*
G01*
X3225190Y3107664D03*
G01*
X3479190Y3107664D03*
D29*
G01*
X622300Y5981700D03*
G01*
X635000Y5156200D03*
D10*
G01*
X6388100Y609600D03*
G01*
X6400800Y5613400D03*
G01*
X5867400Y5613400D03*
G01*
X6832600Y622300D03*
G01*
X6832600Y1079500D03*
G01*
X7150100Y1079500D03*
G01*
X7150100Y622300D03*
G01*
X7467600Y1079500D03*
G01*
X7467600Y622300D03*
G01*
X6832600Y6616700D03*
G01*
X7150100Y6616700D03*
G01*
X7454900Y6604000D03*
G01*
X7454900Y6108700D03*
G01*
X7150100Y6108700D03*
G01*
X6832600Y6108700D03*
D30*
G01*
X2705100Y5727700D03*
D10*
G01*
X6400800Y6616700D03*
G01*
X6400800Y6108700D03*
G01*
X6388100Y1600200D03*
G01*
X6388100Y1092200D03*
M02*
