G04 Layer: BottomLayer*
G04 EasyEDA v6.5.34, 2023-10-25 23:35:01*
G04 b0c90d07580345d6a9a575a3640b0f1e,d8e1fe4a71354f51b54a745932dbb16f,10*
G04 Gerber Generator version 0.2*
G04 Scale: 100 percent, Rotated: No, Reflected: No *
G04 Dimensions in millimeters *
G04 leading zeros omitted , absolute positions ,4 integer and 5 decimal *
%FSLAX45Y45*%
%MOMM*%

%ADD10C,3.0000*%
%ADD11C,1.5000*%
%ADD12C,2.3000*%
%ADD13C,2.1000*%
%ADD14C,1.2500*%
%ADD15C,2.0000*%
%ADD16C,1.0000*%
%ADD17C,3.2000*%
%ADD18C,2.2000*%
%ADD19C,0.2540*%
%ADD20R,1.5748X1.5748*%
%ADD21C,2.9000*%
%ADD22R,2.9000X2.9000*%
%ADD23C,1.8796*%
%ADD24C,1.9000*%
%ADD25C,1.8000*%
%ADD26C,1.4000*%
%ADD27C,1.7780*%
%ADD28R,1.8000X1.8000*%
%ADD29C,4.0000*%
%ADD30C,1.4500*%
%ADD31C,0.0144*%

%LPD*%
D10*
X5854700Y1600200D02*
G01*
X5854700Y1600200D01*
X5854700Y609549D01*
X5854700Y3214166D02*
G01*
X5854700Y1600200D01*
D11*
X4542586Y5715000D02*
G01*
X4542586Y4881422D01*
X4544006Y4880000D01*
X4543996Y4880000D01*
D12*
X5346700Y3340100D02*
G01*
X5854700Y3214164D01*
X5854700Y3214164D01*
D13*
X5854700Y3214166D02*
G01*
X5867400Y3201466D01*
X5867400Y2806700D01*
D14*
X4032605Y5715000D02*
G01*
X4413605Y6096000D01*
X5003800Y6096000D01*
X5003192Y4441162D01*
X5003192Y3634130D01*
X4901592Y2089355D01*
X4901592Y961593D01*
X2997200Y977900D01*
X3004207Y3107893D01*
X3085492Y3107893D01*
X3225192Y3107893D01*
D15*
X939190Y5330164D02*
G01*
X1263522Y5330164D01*
X1269390Y5324297D01*
X431190Y5330164D02*
G01*
X461055Y5330164D01*
X635010Y5156210D01*
X635010Y5156210D02*
G01*
X765235Y5156210D01*
X939190Y5330164D01*
X431190Y5330164D02*
G01*
X939190Y5330164D01*
X1269390Y5324297D02*
G01*
X1624990Y5324297D01*
X622310Y5981710D02*
G01*
X600135Y5981710D01*
X431190Y5812764D01*
D11*
X4000500Y3136900D02*
G01*
X3996004Y3132404D01*
X3996004Y2829991D01*
X3987192Y4359097D02*
G01*
X3987192Y4622192D01*
X4051300Y4686300D01*
X4051300Y4686300D02*
G01*
X4051300Y4864709D01*
X4036009Y4880000D01*
X4036006Y4880000D02*
G01*
X4036006Y5711598D01*
X4032605Y5715000D01*
X4508500Y3136900D02*
G01*
X4504004Y3132404D01*
X4504004Y2829991D01*
X4544009Y4880000D02*
G01*
X4544009Y4701590D01*
X4559300Y4686300D01*
X1878990Y1532864D02*
G01*
X1878990Y1277010D01*
D16*
X2196490Y5114264D02*
G01*
X2171090Y5088864D01*
X2171090Y3369967D01*
D11*
X3479190Y3107664D02*
G01*
X3328649Y3107664D01*
X3225190Y3107664D01*
X4000500Y3136900D02*
G01*
X4016611Y3120788D01*
X4016611Y2015462D01*
X3996004Y2829991D02*
G01*
X3996004Y3588283D01*
X3987192Y3597097D01*
X4526582Y2015462D02*
G01*
X4526582Y3118817D01*
X4508500Y3136900D01*
X3479190Y1533552D02*
G01*
X3479190Y1532864D01*
X4016608Y2015464D01*
D14*
X3225190Y1533552D02*
G01*
X3225190Y1254152D01*
X4526579Y1253390D01*
X4526579Y1663090D01*
X4526579Y2015464D01*
D11*
X4634892Y3482797D02*
G01*
X4634892Y4610707D01*
X4559300Y4686300D01*
D16*
X431190Y5330164D02*
G01*
X164490Y5330164D01*
D15*
X5334000Y3835400D02*
G01*
X5334000Y4114800D01*
D11*
X4504004Y2829991D02*
G01*
X4504004Y3132404D01*
X4634892Y3263292D01*
X4634892Y3482797D01*
D10*
X5867400Y5613400D02*
G01*
X6400800Y5613400D01*
D15*
X6464300Y4495800D02*
G01*
X6438900Y5435600D01*
D10*
X7200900Y4177233D02*
G01*
X6921500Y4177233D01*
D15*
X1294790Y5850864D02*
G01*
X1663090Y5850864D01*
D11*
X1663090Y5850864D02*
G01*
X2209190Y5723864D01*
X2209190Y5723864D01*
D15*
X1294790Y5850864D02*
G01*
X1294790Y5850864D01*
X939190Y5812764D01*
D10*
X7467600Y5638800D02*
G01*
X7454900Y4419600D01*
X7429500Y4394200D01*
X7454900Y6604000D02*
G01*
X5880100Y6604000D01*
X5867400Y6616700D01*
X5867400Y6616700D02*
G01*
X5867400Y5613400D01*
D15*
X6261100Y1816100D02*
G01*
X6197600Y2057400D01*
X5905500Y1739900D01*
X6286500Y1765300D01*
D10*
X7467600Y622249D02*
G01*
X5861050Y609549D01*
D15*
X5854700Y1600200D02*
G01*
X5854700Y1092200D01*
X5854700Y1600200D02*
G01*
X5854700Y609600D01*
D11*
X3987190Y3597097D02*
G01*
X3809390Y3597097D01*
X3810000Y3733800D01*
X3810000Y4216400D02*
G01*
X3809390Y4359097D01*
X3987190Y4359097D01*
D15*
X5854700Y4304233D02*
G01*
X5474743Y4304233D01*
X5334000Y4114800D01*
X5334000Y4114749D01*
D10*
X5854700Y3759172D02*
G01*
X6210300Y3759174D01*
X6578600Y4622800D01*
D17*
X5854700Y3214164D02*
G01*
X6642100Y2895600D01*
X6629400Y1803349D01*
D10*
X5854700Y3214164D02*
G01*
X6896100Y2947873D01*
X6807200Y1828800D01*
D18*
X5346700Y3340100D02*
G01*
X5827839Y2858960D01*
X5854700Y2858960D01*
D10*
X7429500Y4394200D02*
G01*
X6858000Y3759200D01*
X7429500Y4394200D02*
G01*
X6858000Y3759200D01*
X5854700Y3759174D01*
X7493000Y1790700D02*
G01*
X7518400Y2641549D01*
X6400800Y3225800D01*
X5854700Y3214164D01*
D16*
X1358900Y2235200D02*
G01*
X1358900Y2235197D01*
X1485292Y2263597D01*
X1548792Y2327097D01*
X1574800Y3238500D01*
X2171092Y3369513D01*
X1358900Y2235197D02*
G01*
X1202484Y2391613D01*
X419100Y2391613D01*
X419100Y2391613D02*
G01*
X419100Y1341119D01*
X354990Y1277010D01*
X419100Y2391613D02*
G01*
X808017Y2391613D01*
D15*
X939190Y5812764D02*
G01*
X419100Y5803900D01*
X622300Y5981700D02*
G01*
X825500Y5867400D01*
X939190Y5812764D01*
D11*
X2209190Y5723864D02*
G01*
X2209190Y5723864D01*
X2196490Y5114264D01*
D19*
X2400275Y838478D02*
G01*
X358939Y842460D01*
X358939Y842460D02*
G01*
X114493Y976905D01*
X114493Y976905D02*
G01*
X89154Y4178270D01*
X89154Y4178270D02*
G01*
X114392Y6197286D01*
X114392Y6197286D02*
G01*
X2833778Y6184696D01*
X2833778Y6184696D02*
G01*
X3022514Y5027115D01*
X3022514Y5027115D02*
G01*
X3023223Y5024513D01*
X3023223Y5024513D02*
G01*
X3352476Y4176053D01*
X3352476Y4176053D02*
G01*
X3340186Y3745886D01*
X3340186Y3745886D02*
G01*
X2462876Y3683220D01*
X2462876Y3683220D02*
G01*
X2458002Y3681884D01*
X2458002Y3681884D02*
G01*
X2454010Y3678783D01*
X2454010Y3678783D02*
G01*
X2451509Y3674391D01*
X2451509Y3674391D02*
G01*
X2450848Y3670531D01*
X2450848Y3670531D02*
G01*
X2400275Y838478D01*
X337361Y1120545D02*
G01*
X354990Y1119555D01*
X354990Y1119555D02*
G01*
X372619Y1120545D01*
X372619Y1120545D02*
G01*
X390027Y1123503D01*
X390027Y1123503D02*
G01*
X406994Y1128391D01*
X406994Y1128391D02*
G01*
X423307Y1135148D01*
X423307Y1135148D02*
G01*
X438761Y1143689D01*
X438761Y1143689D02*
G01*
X453161Y1153907D01*
X453161Y1153907D02*
G01*
X466327Y1165673D01*
X466327Y1165673D02*
G01*
X478093Y1178839D01*
X478093Y1178839D02*
G01*
X488310Y1193239D01*
X488310Y1193239D02*
G01*
X496852Y1208693D01*
X496852Y1208693D02*
G01*
X503609Y1225006D01*
X503609Y1225006D02*
G01*
X508497Y1241973D01*
X508497Y1241973D02*
G01*
X511454Y1259381D01*
X511454Y1259381D02*
G01*
X512445Y1277009D01*
X512445Y1277009D02*
G01*
X517371Y1284382D01*
X517371Y1284382D02*
G01*
X523936Y1297695D01*
X523936Y1297695D02*
G01*
X528707Y1311750D01*
X528707Y1311750D02*
G01*
X531603Y1326308D01*
X531603Y1326308D02*
G01*
X532574Y1341119D01*
X532574Y1341119D02*
G01*
X532574Y2278138D01*
X532574Y2278138D02*
G01*
X1155481Y2278138D01*
X1155481Y2278138D02*
G01*
X1206946Y2226674D01*
X1206946Y2226674D02*
G01*
X1208076Y2213514D01*
X1208076Y2213514D02*
G01*
X1211531Y2196463D01*
X1211531Y2196463D02*
G01*
X1216907Y2179917D01*
X1216907Y2179917D02*
G01*
X1224134Y2164091D01*
X1224134Y2164091D02*
G01*
X1233118Y2149193D01*
X1233118Y2149193D02*
G01*
X1243743Y2135415D01*
X1243743Y2135415D02*
G01*
X1255868Y2122939D01*
X1255868Y2122939D02*
G01*
X1269336Y2111926D01*
X1269336Y2111926D02*
G01*
X1283972Y2102520D01*
X1283972Y2102520D02*
G01*
X1299585Y2094844D01*
X1299585Y2094844D02*
G01*
X1315971Y2088997D01*
X1315971Y2088997D02*
G01*
X1332916Y2085057D01*
X1332916Y2085057D02*
G01*
X1350201Y2083073D01*
X1350201Y2083073D02*
G01*
X1367598Y2083073D01*
X1367598Y2083073D02*
G01*
X1384883Y2085057D01*
X1384883Y2085057D02*
G01*
X1401828Y2088997D01*
X1401828Y2088997D02*
G01*
X1418214Y2094844D01*
X1418214Y2094844D02*
G01*
X1433827Y2102520D01*
X1433827Y2102520D02*
G01*
X1448463Y2111926D01*
X1448463Y2111926D02*
G01*
X1461931Y2122939D01*
X1461931Y2122939D02*
G01*
X1474056Y2135415D01*
X1474056Y2135415D02*
G01*
X1482780Y2146729D01*
X1482780Y2146729D02*
G01*
X1510169Y2152883D01*
X1510169Y2152883D02*
G01*
X1514662Y2153989D01*
X1514662Y2153989D02*
G01*
X1524407Y2157077D01*
X1524407Y2157077D02*
G01*
X1528717Y2158760D01*
X1528717Y2158760D02*
G01*
X1537977Y2163094D01*
X1537977Y2163094D02*
G01*
X1542030Y2165325D01*
X1542030Y2165325D02*
G01*
X1550644Y2170830D01*
X1550644Y2170830D02*
G01*
X1554371Y2173571D01*
X1554371Y2173571D02*
G01*
X1562193Y2180154D01*
X1562193Y2180154D02*
G01*
X1565531Y2183358D01*
X1565531Y2183358D02*
G01*
X1629031Y2246858D01*
X1629031Y2246858D02*
G01*
X1636811Y2255478D01*
X1636811Y2255478D02*
G01*
X1638818Y2258018D01*
X1638818Y2258018D02*
G01*
X1645406Y2267579D01*
X1645406Y2267579D02*
G01*
X1647064Y2270359D01*
X1647064Y2270359D02*
G01*
X1652348Y2280699D01*
X1652348Y2280699D02*
G01*
X1653629Y2283672D01*
X1653629Y2283672D02*
G01*
X1657518Y2294613D01*
X1657518Y2294613D02*
G01*
X1658400Y2297727D01*
X1658400Y2297727D02*
G01*
X1660828Y2309082D01*
X1660828Y2309082D02*
G01*
X1661296Y2312285D01*
X1661296Y2312285D02*
G01*
X1662221Y2323860D01*
X1662221Y2323860D02*
G01*
X1685700Y3146685D01*
X1685700Y3146685D02*
G01*
X2195443Y3258682D01*
X2195443Y3258682D02*
G01*
X2209701Y3262808D01*
X2209701Y3262808D02*
G01*
X2223299Y3268761D01*
X2223299Y3268761D02*
G01*
X2236003Y3276437D01*
X2236003Y3276437D02*
G01*
X2247596Y3285706D01*
X2247596Y3285706D02*
G01*
X2257881Y3296408D01*
X2257881Y3296408D02*
G01*
X2266681Y3308362D01*
X2266681Y3308362D02*
G01*
X2273844Y3321362D01*
X2273844Y3321362D02*
G01*
X2279250Y3335186D01*
X2279250Y3335186D02*
G01*
X2282805Y3349597D01*
X2282805Y3349597D02*
G01*
X2283594Y3355156D01*
X2283594Y3355156D02*
G01*
X2284449Y3364349D01*
X2284449Y3364349D02*
G01*
X2284564Y3369967D01*
X2284564Y3369967D02*
G01*
X2284564Y4960790D01*
X2284564Y4960790D02*
G01*
X2286490Y4960790D01*
X2286490Y4960790D02*
G01*
X2297512Y4961754D01*
X2297512Y4961754D02*
G01*
X2308199Y4964618D01*
X2308199Y4964618D02*
G01*
X2318227Y4969294D01*
X2318227Y4969294D02*
G01*
X2327291Y4975640D01*
X2327291Y4975640D02*
G01*
X2335114Y4983463D01*
X2335114Y4983463D02*
G01*
X2341460Y4992527D01*
X2341460Y4992527D02*
G01*
X2346136Y5002555D01*
X2346136Y5002555D02*
G01*
X2349000Y5013242D01*
X2349000Y5013242D02*
G01*
X2349964Y5024264D01*
X2349964Y5024264D02*
G01*
X2349964Y5204264D01*
X2349964Y5204264D02*
G01*
X2349000Y5215286D01*
X2349000Y5215286D02*
G01*
X2346136Y5225974D01*
X2346136Y5225974D02*
G01*
X2341460Y5236001D01*
X2341460Y5236001D02*
G01*
X2337644Y5241451D01*
X2337644Y5241451D02*
G01*
X2347634Y5720980D01*
X2347634Y5720980D02*
G01*
X2347664Y5723864D01*
X2347664Y5723864D02*
G01*
X2346972Y5737689D01*
X2346972Y5737689D02*
G01*
X2346423Y5742363D01*
X2346423Y5742363D02*
G01*
X2343640Y5757003D01*
X2343640Y5757003D02*
G01*
X2339661Y5770260D01*
X2339661Y5770260D02*
G01*
X2338008Y5774668D01*
X2338008Y5774668D02*
G01*
X2331803Y5788216D01*
X2331803Y5788216D02*
G01*
X2324766Y5800136D01*
X2324766Y5800136D02*
G01*
X2322107Y5804020D01*
X2322107Y5804020D02*
G01*
X2312839Y5815690D01*
X2312839Y5815690D02*
G01*
X2303154Y5825579D01*
X2303154Y5825579D02*
G01*
X2299643Y5828714D01*
X2299643Y5828714D02*
G01*
X2287852Y5837826D01*
X2287852Y5837826D02*
G01*
X2276082Y5845110D01*
X2276082Y5845110D02*
G01*
X2271923Y5847314D01*
X2271923Y5847314D02*
G01*
X2258294Y5853340D01*
X2258294Y5853340D02*
G01*
X2245122Y5857595D01*
X2245122Y5857595D02*
G01*
X2240556Y5858739D01*
X2240556Y5858739D02*
G01*
X1778738Y5966139D01*
X1778738Y5966139D02*
G01*
X1775511Y5969546D01*
X1775511Y5969546D02*
G01*
X1762020Y5981005D01*
X1762020Y5981005D02*
G01*
X1747370Y5990938D01*
X1747370Y5990938D02*
G01*
X1731731Y5999230D01*
X1731731Y5999230D02*
G01*
X1715287Y6005781D01*
X1715287Y6005781D02*
G01*
X1698232Y6010517D01*
X1698232Y6010517D02*
G01*
X1680764Y6013380D01*
X1680764Y6013380D02*
G01*
X1663090Y6014338D01*
X1663090Y6014338D02*
G01*
X1294790Y6014338D01*
X1294790Y6014338D02*
G01*
X1277374Y6013408D01*
X1277374Y6013408D02*
G01*
X968050Y5980266D01*
X968050Y5980266D02*
G01*
X901054Y6012462D01*
X901054Y6012462D02*
G01*
X702445Y6124180D01*
X702445Y6124180D02*
G01*
X690951Y6130075D01*
X690951Y6130075D02*
G01*
X686570Y6132010D01*
X686570Y6132010D02*
G01*
X674507Y6136627D01*
X674507Y6136627D02*
G01*
X669942Y6138077D01*
X669942Y6138077D02*
G01*
X657452Y6141362D01*
X657452Y6141362D02*
G01*
X652755Y6142312D01*
X652755Y6142312D02*
G01*
X639984Y6144226D01*
X639984Y6144226D02*
G01*
X635211Y6144663D01*
X635211Y6144663D02*
G01*
X622310Y6145184D01*
X622310Y6145184D02*
G01*
X600135Y6145184D01*
X600135Y6145184D02*
G01*
X595709Y6145124D01*
X595709Y6145124D02*
G01*
X582461Y6144226D01*
X582461Y6144226D02*
G01*
X578066Y6143687D01*
X578066Y6143687D02*
G01*
X564993Y6141362D01*
X564993Y6141362D02*
G01*
X560683Y6140352D01*
X560683Y6140352D02*
G01*
X547938Y6136627D01*
X547938Y6136627D02*
G01*
X543762Y6135156D01*
X543762Y6135156D02*
G01*
X531494Y6130075D01*
X531494Y6130075D02*
G01*
X527502Y6128162D01*
X527502Y6128162D02*
G01*
X515856Y6121784D01*
X515856Y6121784D02*
G01*
X512093Y6119450D01*
X512093Y6119450D02*
G01*
X501205Y6111850D01*
X501205Y6111850D02*
G01*
X497717Y6109124D01*
X497717Y6109124D02*
G01*
X487714Y6100391D01*
X487714Y6100391D02*
G01*
X484542Y6097304D01*
X484542Y6097304D02*
G01*
X323383Y5936145D01*
X323383Y5936145D02*
G01*
X317966Y5932335D01*
X317966Y5932335D02*
G01*
X304672Y5920648D01*
X304672Y5920648D02*
G01*
X292720Y5907592D01*
X292720Y5907592D02*
G01*
X282250Y5893320D01*
X282250Y5893320D02*
G01*
X273384Y5878000D01*
X273384Y5878000D02*
G01*
X266227Y5861811D01*
X266227Y5861811D02*
G01*
X260861Y5844943D01*
X260861Y5844943D02*
G01*
X257351Y5827594D01*
X257351Y5827594D02*
G01*
X255738Y5809967D01*
X255738Y5809967D02*
G01*
X256039Y5792269D01*
X256039Y5792269D02*
G01*
X258253Y5774707D01*
X258253Y5774707D02*
G01*
X262352Y5757487D01*
X262352Y5757487D02*
G01*
X268289Y5740812D01*
X268289Y5740812D02*
G01*
X275994Y5724877D01*
X275994Y5724877D02*
G01*
X285377Y5709867D01*
X285377Y5709867D02*
G01*
X296327Y5695960D01*
X296327Y5695960D02*
G01*
X308717Y5683319D01*
X308717Y5683319D02*
G01*
X322401Y5672092D01*
X322401Y5672092D02*
G01*
X337219Y5662409D01*
X337219Y5662409D02*
G01*
X352997Y5654386D01*
X352997Y5654386D02*
G01*
X369549Y5648115D01*
X369549Y5648115D02*
G01*
X386683Y5643671D01*
X386683Y5643671D02*
G01*
X404197Y5641106D01*
X404197Y5641106D02*
G01*
X421885Y5640449D01*
X421885Y5640449D02*
G01*
X941976Y5649313D01*
X941976Y5649313D02*
G01*
X956605Y5650220D01*
X956605Y5650220D02*
G01*
X1303522Y5687390D01*
X1303522Y5687390D02*
G01*
X1663090Y5687390D01*
X1663090Y5687390D02*
G01*
X1680764Y5688348D01*
X1680764Y5688348D02*
G01*
X1698232Y5691212D01*
X1698232Y5691212D02*
G01*
X1715287Y5695947D01*
X1715287Y5695947D02*
G01*
X1716252Y5696331D01*
X1716252Y5696331D02*
G01*
X2068406Y5614435D01*
X2068406Y5614435D02*
G01*
X2060771Y5247970D01*
X2060771Y5247970D02*
G01*
X2057866Y5245065D01*
X2057866Y5245065D02*
G01*
X2051519Y5236001D01*
X2051519Y5236001D02*
G01*
X2046844Y5225974D01*
X2046844Y5225974D02*
G01*
X2043980Y5215286D01*
X2043980Y5215286D02*
G01*
X2043015Y5204264D01*
X2043015Y5204264D02*
G01*
X2043015Y5024264D01*
X2043015Y5024264D02*
G01*
X2043980Y5013242D01*
X2043980Y5013242D02*
G01*
X2046844Y5002555D01*
X2046844Y5002555D02*
G01*
X2051519Y4992527D01*
X2051519Y4992527D02*
G01*
X2057615Y4983821D01*
X2057615Y4983821D02*
G01*
X2057615Y3460761D01*
X2057615Y3460761D02*
G01*
X1550449Y3349330D01*
X1550449Y3349330D02*
G01*
X1548568Y3348901D01*
X1548568Y3348901D02*
G01*
X1534383Y3344532D01*
X1534383Y3344532D02*
G01*
X1520889Y3338350D01*
X1520889Y3338350D02*
G01*
X1508317Y3330459D01*
X1508317Y3330459D02*
G01*
X1496882Y3320994D01*
X1496882Y3320994D02*
G01*
X1486781Y3310118D01*
X1486781Y3310118D02*
G01*
X1478186Y3298017D01*
X1478186Y3298017D02*
G01*
X1471244Y3284897D01*
X1471244Y3284897D02*
G01*
X1466074Y3270983D01*
X1466074Y3270983D02*
G01*
X1462764Y3256514D01*
X1462764Y3256514D02*
G01*
X1461371Y3241736D01*
X1461371Y3241736D02*
G01*
X1436651Y2375432D01*
X1436651Y2375432D02*
G01*
X1430622Y2369404D01*
X1430622Y2369404D02*
G01*
X1426131Y2371940D01*
X1426131Y2371940D02*
G01*
X1410105Y2378713D01*
X1410105Y2378713D02*
G01*
X1393412Y2383614D01*
X1393412Y2383614D02*
G01*
X1376269Y2386581D01*
X1376269Y2386581D02*
G01*
X1367491Y2387083D01*
X1367491Y2387083D02*
G01*
X1282722Y2471851D01*
X1282722Y2471851D02*
G01*
X1271563Y2481638D01*
X1271563Y2481638D02*
G01*
X1259221Y2489885D01*
X1259221Y2489885D02*
G01*
X1245909Y2496449D01*
X1245909Y2496449D02*
G01*
X1231853Y2501221D01*
X1231853Y2501221D02*
G01*
X1217295Y2504116D01*
X1217295Y2504116D02*
G01*
X1202484Y2505087D01*
X1202484Y2505087D02*
G01*
X520602Y2505087D01*
X520602Y2505087D02*
G01*
X518884Y2506757D01*
X518884Y2506757D02*
G01*
X505106Y2517381D01*
X505106Y2517381D02*
G01*
X490208Y2526365D01*
X490208Y2526365D02*
G01*
X474382Y2533592D01*
X474382Y2533592D02*
G01*
X457836Y2538969D01*
X457836Y2538969D02*
G01*
X440785Y2542424D01*
X440785Y2542424D02*
G01*
X423451Y2543912D01*
X423451Y2543912D02*
G01*
X406060Y2543416D01*
X406060Y2543416D02*
G01*
X388839Y2540940D01*
X388839Y2540940D02*
G01*
X372013Y2536517D01*
X372013Y2536517D02*
G01*
X355801Y2530205D01*
X355801Y2530205D02*
G01*
X340414Y2522086D01*
X340414Y2522086D02*
G01*
X326052Y2512266D01*
X326052Y2512266D02*
G01*
X312904Y2500873D01*
X312904Y2500873D02*
G01*
X301140Y2488055D01*
X301140Y2488055D02*
G01*
X290914Y2473980D01*
X290914Y2473980D02*
G01*
X282359Y2458831D01*
X282359Y2458831D02*
G01*
X275586Y2442805D01*
X275586Y2442805D02*
G01*
X270685Y2426112D01*
X270685Y2426112D02*
G01*
X267718Y2408969D01*
X267718Y2408969D02*
G01*
X266725Y2391600D01*
X266725Y2391600D02*
G01*
X267718Y2374231D01*
X267718Y2374231D02*
G01*
X270685Y2357088D01*
X270685Y2357088D02*
G01*
X275586Y2340395D01*
X275586Y2340395D02*
G01*
X282359Y2324369D01*
X282359Y2324369D02*
G01*
X290914Y2309220D01*
X290914Y2309220D02*
G01*
X301140Y2295145D01*
X301140Y2295145D02*
G01*
X305625Y2290258D01*
X305625Y2290258D02*
G01*
X305625Y1426389D01*
X305625Y1426389D02*
G01*
X302986Y1425629D01*
X302986Y1425629D02*
G01*
X286673Y1418872D01*
X286673Y1418872D02*
G01*
X271219Y1410330D01*
X271219Y1410330D02*
G01*
X256819Y1400113D01*
X256819Y1400113D02*
G01*
X243653Y1388347D01*
X243653Y1388347D02*
G01*
X231887Y1375181D01*
X231887Y1375181D02*
G01*
X221669Y1360781D01*
X221669Y1360781D02*
G01*
X213128Y1345327D01*
X213128Y1345327D02*
G01*
X206371Y1329014D01*
X206371Y1329014D02*
G01*
X201483Y1312047D01*
X201483Y1312047D02*
G01*
X198525Y1294639D01*
X198525Y1294639D02*
G01*
X197535Y1277010D01*
X197535Y1277010D02*
G01*
X198525Y1259381D01*
X198525Y1259381D02*
G01*
X201483Y1241973D01*
X201483Y1241973D02*
G01*
X206371Y1225006D01*
X206371Y1225006D02*
G01*
X213128Y1208693D01*
X213128Y1208693D02*
G01*
X221669Y1193239D01*
X221669Y1193239D02*
G01*
X231887Y1178839D01*
X231887Y1178839D02*
G01*
X243653Y1165673D01*
X243653Y1165673D02*
G01*
X256819Y1153907D01*
X256819Y1153907D02*
G01*
X271219Y1143689D01*
X271219Y1143689D02*
G01*
X286673Y1135148D01*
X286673Y1135148D02*
G01*
X302986Y1128391D01*
X302986Y1128391D02*
G01*
X319953Y1123503D01*
X319953Y1123503D02*
G01*
X337361Y1120545D01*
X1878990Y1119555D02*
G01*
X1896619Y1120545D01*
X1896619Y1120545D02*
G01*
X1914027Y1123503D01*
X1914027Y1123503D02*
G01*
X1930994Y1128391D01*
X1930994Y1128391D02*
G01*
X1947307Y1135148D01*
X1947307Y1135148D02*
G01*
X1962761Y1143689D01*
X1962761Y1143689D02*
G01*
X1977161Y1153907D01*
X1977161Y1153907D02*
G01*
X1990327Y1165673D01*
X1990327Y1165673D02*
G01*
X2002093Y1178839D01*
X2002093Y1178839D02*
G01*
X2012310Y1193239D01*
X2012310Y1193239D02*
G01*
X2020852Y1208693D01*
X2020852Y1208693D02*
G01*
X2027609Y1225006D01*
X2027609Y1225006D02*
G01*
X2032497Y1241973D01*
X2032497Y1241973D02*
G01*
X2035454Y1259381D01*
X2035454Y1259381D02*
G01*
X2036445Y1277010D01*
X2036445Y1277010D02*
G01*
X2035454Y1294639D01*
X2035454Y1294639D02*
G01*
X2032497Y1312047D01*
X2032497Y1312047D02*
G01*
X2027609Y1329014D01*
X2027609Y1329014D02*
G01*
X2020852Y1345327D01*
X2020852Y1345327D02*
G01*
X2017464Y1351456D01*
X2017464Y1351456D02*
G01*
X2017464Y1532864D01*
X2017464Y1532864D02*
G01*
X2016455Y1549555D01*
X2016455Y1549555D02*
G01*
X2013440Y1566003D01*
X2013440Y1566003D02*
G01*
X2008466Y1581968D01*
X2008466Y1581968D02*
G01*
X2001603Y1597216D01*
X2001603Y1597216D02*
G01*
X1992952Y1611527D01*
X1992952Y1611527D02*
G01*
X1982639Y1624690D01*
X1982639Y1624690D02*
G01*
X1970815Y1636514D01*
X1970815Y1636514D02*
G01*
X1957652Y1646826D01*
X1957652Y1646826D02*
G01*
X1943342Y1655477D01*
X1943342Y1655477D02*
G01*
X1928094Y1662340D01*
X1928094Y1662340D02*
G01*
X1912129Y1667315D01*
X1912129Y1667315D02*
G01*
X1895681Y1670329D01*
X1895681Y1670329D02*
G01*
X1878990Y1671339D01*
X1878990Y1671339D02*
G01*
X1862299Y1670329D01*
X1862299Y1670329D02*
G01*
X1845851Y1667315D01*
X1845851Y1667315D02*
G01*
X1829886Y1662340D01*
X1829886Y1662340D02*
G01*
X1814638Y1655477D01*
X1814638Y1655477D02*
G01*
X1800327Y1646826D01*
X1800327Y1646826D02*
G01*
X1787164Y1636514D01*
X1787164Y1636514D02*
G01*
X1775340Y1624690D01*
X1775340Y1624690D02*
G01*
X1765028Y1611527D01*
X1765028Y1611527D02*
G01*
X1756377Y1597216D01*
X1756377Y1597216D02*
G01*
X1749514Y1581968D01*
X1749514Y1581968D02*
G01*
X1744539Y1566003D01*
X1744539Y1566003D02*
G01*
X1741525Y1549555D01*
X1741525Y1549555D02*
G01*
X1740515Y1532864D01*
X1740515Y1532864D02*
G01*
X1740515Y1351456D01*
X1740515Y1351456D02*
G01*
X1737128Y1345327D01*
X1737128Y1345327D02*
G01*
X1730371Y1329014D01*
X1730371Y1329014D02*
G01*
X1725483Y1312047D01*
X1725483Y1312047D02*
G01*
X1722525Y1294639D01*
X1722525Y1294639D02*
G01*
X1721535Y1277010D01*
X1721535Y1277010D02*
G01*
X1722525Y1259381D01*
X1722525Y1259381D02*
G01*
X1725483Y1241973D01*
X1725483Y1241973D02*
G01*
X1730371Y1225006D01*
X1730371Y1225006D02*
G01*
X1737128Y1208693D01*
X1737128Y1208693D02*
G01*
X1745669Y1193239D01*
X1745669Y1193239D02*
G01*
X1755887Y1178839D01*
X1755887Y1178839D02*
G01*
X1767653Y1165673D01*
X1767653Y1165673D02*
G01*
X1780819Y1153907D01*
X1780819Y1153907D02*
G01*
X1795219Y1143689D01*
X1795219Y1143689D02*
G01*
X1810673Y1135148D01*
X1810673Y1135148D02*
G01*
X1826986Y1128391D01*
X1826986Y1128391D02*
G01*
X1843953Y1123503D01*
X1843953Y1123503D02*
G01*
X1861361Y1120545D01*
X1861361Y1120545D02*
G01*
X1878990Y1119555D01*
X2713252Y4961040D02*
G01*
X2730661Y4963038D01*
X2730661Y4963038D02*
G01*
X2747729Y4967007D01*
X2747729Y4967007D02*
G01*
X2764233Y4972895D01*
X2764233Y4972895D02*
G01*
X2779958Y4980627D01*
X2779958Y4980627D02*
G01*
X2794700Y4990101D01*
X2794700Y4990101D02*
G01*
X2808265Y5001193D01*
X2808265Y5001193D02*
G01*
X2820478Y5013760D01*
X2820478Y5013760D02*
G01*
X2831179Y5027636D01*
X2831179Y5027636D02*
G01*
X2840228Y5042643D01*
X2840228Y5042643D02*
G01*
X2847507Y5058582D01*
X2847507Y5058582D02*
G01*
X2852922Y5075248D01*
X2852922Y5075248D02*
G01*
X2856402Y5092422D01*
X2856402Y5092422D02*
G01*
X2857902Y5109882D01*
X2857902Y5109882D02*
G01*
X2857401Y5127398D01*
X2857401Y5127398D02*
G01*
X2854907Y5144743D01*
X2854907Y5144743D02*
G01*
X2850453Y5161690D01*
X2850453Y5161690D02*
G01*
X2844095Y5178020D01*
X2844095Y5178020D02*
G01*
X2835918Y5193518D01*
X2835918Y5193518D02*
G01*
X2826027Y5207983D01*
X2826027Y5207983D02*
G01*
X2814551Y5221226D01*
X2814551Y5221226D02*
G01*
X2801641Y5233075D01*
X2801641Y5233075D02*
G01*
X2787464Y5243375D01*
X2787464Y5243375D02*
G01*
X2772206Y5251992D01*
X2772206Y5251992D02*
G01*
X2756065Y5258813D01*
X2756065Y5258813D02*
G01*
X2739251Y5263750D01*
X2739251Y5263750D02*
G01*
X2721985Y5266738D01*
X2721985Y5266738D02*
G01*
X2704490Y5267739D01*
X2704490Y5267739D02*
G01*
X2686995Y5266738D01*
X2686995Y5266738D02*
G01*
X2669728Y5263750D01*
X2669728Y5263750D02*
G01*
X2652915Y5258813D01*
X2652915Y5258813D02*
G01*
X2636774Y5251992D01*
X2636774Y5251992D02*
G01*
X2621515Y5243375D01*
X2621515Y5243375D02*
G01*
X2607339Y5233075D01*
X2607339Y5233075D02*
G01*
X2594428Y5221226D01*
X2594428Y5221226D02*
G01*
X2582953Y5207983D01*
X2582953Y5207983D02*
G01*
X2573062Y5193518D01*
X2573062Y5193518D02*
G01*
X2564885Y5178020D01*
X2564885Y5178020D02*
G01*
X2558527Y5161690D01*
X2558527Y5161690D02*
G01*
X2554072Y5144743D01*
X2554072Y5144743D02*
G01*
X2551578Y5127398D01*
X2551578Y5127398D02*
G01*
X2551078Y5109882D01*
X2551078Y5109882D02*
G01*
X2552578Y5092422D01*
X2552578Y5092422D02*
G01*
X2556058Y5075248D01*
X2556058Y5075248D02*
G01*
X2561473Y5058582D01*
X2561473Y5058582D02*
G01*
X2568752Y5042643D01*
X2568752Y5042643D02*
G01*
X2577801Y5027636D01*
X2577801Y5027636D02*
G01*
X2588502Y5013760D01*
X2588502Y5013760D02*
G01*
X2600714Y5001193D01*
X2600714Y5001193D02*
G01*
X2614280Y4990101D01*
X2614280Y4990101D02*
G01*
X2629021Y4980627D01*
X2629021Y4980627D02*
G01*
X2644747Y4972895D01*
X2644747Y4972895D02*
G01*
X2661251Y4967007D01*
X2661251Y4967007D02*
G01*
X2678319Y4963038D01*
X2678319Y4963038D02*
G01*
X2695728Y4961040D01*
X2695728Y4961040D02*
G01*
X2713252Y4961040D01*
X2839839Y4365052D02*
G01*
X2857229Y4365549D01*
X2857229Y4365549D02*
G01*
X2874450Y4368024D01*
X2874450Y4368024D02*
G01*
X2891276Y4372447D01*
X2891276Y4372447D02*
G01*
X2907488Y4378759D01*
X2907488Y4378759D02*
G01*
X2922876Y4386878D01*
X2922876Y4386878D02*
G01*
X2937237Y4396698D01*
X2937237Y4396698D02*
G01*
X2950386Y4408092D01*
X2950386Y4408092D02*
G01*
X2962150Y4420909D01*
X2962150Y4420909D02*
G01*
X2972376Y4434984D01*
X2972376Y4434984D02*
G01*
X2980931Y4450133D01*
X2980931Y4450133D02*
G01*
X2987703Y4466159D01*
X2987703Y4466159D02*
G01*
X2992605Y4482852D01*
X2992605Y4482852D02*
G01*
X2995571Y4499995D01*
X2995571Y4499995D02*
G01*
X2996565Y4517364D01*
X2996565Y4517364D02*
G01*
X2995571Y4534733D01*
X2995571Y4534733D02*
G01*
X2992605Y4551876D01*
X2992605Y4551876D02*
G01*
X2987703Y4568569D01*
X2987703Y4568569D02*
G01*
X2980931Y4584595D01*
X2980931Y4584595D02*
G01*
X2972376Y4599744D01*
X2972376Y4599744D02*
G01*
X2962150Y4613819D01*
X2962150Y4613819D02*
G01*
X2950386Y4626637D01*
X2950386Y4626637D02*
G01*
X2937237Y4638030D01*
X2937237Y4638030D02*
G01*
X2922876Y4647850D01*
X2922876Y4647850D02*
G01*
X2907488Y4655969D01*
X2907488Y4655969D02*
G01*
X2891276Y4662281D01*
X2891276Y4662281D02*
G01*
X2874450Y4666704D01*
X2874450Y4666704D02*
G01*
X2857229Y4669180D01*
X2857229Y4669180D02*
G01*
X2839839Y4669676D01*
X2839839Y4669676D02*
G01*
X2822505Y4668188D01*
X2822505Y4668188D02*
G01*
X2805453Y4664733D01*
X2805453Y4664733D02*
G01*
X2788907Y4659356D01*
X2788907Y4659356D02*
G01*
X2773082Y4652129D01*
X2773082Y4652129D02*
G01*
X2758183Y4643145D01*
X2758183Y4643145D02*
G01*
X2744406Y4632521D01*
X2744406Y4632521D02*
G01*
X2731929Y4620396D01*
X2731929Y4620396D02*
G01*
X2720916Y4606928D01*
X2720916Y4606928D02*
G01*
X2711510Y4592292D01*
X2711510Y4592292D02*
G01*
X2703834Y4576679D01*
X2703834Y4576679D02*
G01*
X2697988Y4560293D01*
X2697988Y4560293D02*
G01*
X2694047Y4543347D01*
X2694047Y4543347D02*
G01*
X2692064Y4526063D01*
X2692064Y4526063D02*
G01*
X2692064Y4508665D01*
X2692064Y4508665D02*
G01*
X2694047Y4491381D01*
X2694047Y4491381D02*
G01*
X2697988Y4474435D01*
X2697988Y4474435D02*
G01*
X2703834Y4458049D01*
X2703834Y4458049D02*
G01*
X2711510Y4442436D01*
X2711510Y4442436D02*
G01*
X2720916Y4427801D01*
X2720916Y4427801D02*
G01*
X2731929Y4414332D01*
X2731929Y4414332D02*
G01*
X2744406Y4402207D01*
X2744406Y4402207D02*
G01*
X2758183Y4391583D01*
X2758183Y4391583D02*
G01*
X2773082Y4382599D01*
X2773082Y4382599D02*
G01*
X2788907Y4375372D01*
X2788907Y4375372D02*
G01*
X2805453Y4369996D01*
X2805453Y4369996D02*
G01*
X2822505Y4366540D01*
X2822505Y4366540D02*
G01*
X2839839Y4365052D01*
X1117423Y3963849D02*
G01*
X1128445Y3962885D01*
X1128445Y3962885D02*
G01*
X1285925Y3962885D01*
X1285925Y3962885D02*
G01*
X1301128Y3964253D01*
X1301128Y3964253D02*
G01*
X1311816Y3967117D01*
X1311816Y3967117D02*
G01*
X1321843Y3971792D01*
X1321843Y3971792D02*
G01*
X1330907Y3978139D01*
X1330907Y3978139D02*
G01*
X1338731Y3985962D01*
X1338731Y3985962D02*
G01*
X1345077Y3995026D01*
X1345077Y3995026D02*
G01*
X1349753Y4005053D01*
X1349753Y4005053D02*
G01*
X1352616Y4015741D01*
X1352616Y4015741D02*
G01*
X1353581Y4026763D01*
X1353581Y4026763D02*
G01*
X1353581Y4184243D01*
X1353581Y4184243D02*
G01*
X1352616Y4195265D01*
X1352616Y4195265D02*
G01*
X1349753Y4205953D01*
X1349753Y4205953D02*
G01*
X1345077Y4215980D01*
X1345077Y4215980D02*
G01*
X1338731Y4225044D01*
X1338731Y4225044D02*
G01*
X1330907Y4232868D01*
X1330907Y4232868D02*
G01*
X1321843Y4239214D01*
X1321843Y4239214D02*
G01*
X1311816Y4243890D01*
X1311816Y4243890D02*
G01*
X1301128Y4246753D01*
X1301128Y4246753D02*
G01*
X1290106Y4247718D01*
X1290106Y4247718D02*
G01*
X1132626Y4247718D01*
X1132626Y4247718D02*
G01*
X1117423Y4246349D01*
X1117423Y4246349D02*
G01*
X1106736Y4243486D01*
X1106736Y4243486D02*
G01*
X1096708Y4238810D01*
X1096708Y4238810D02*
G01*
X1087645Y4232464D01*
X1087645Y4232464D02*
G01*
X1079821Y4224640D01*
X1079821Y4224640D02*
G01*
X1073475Y4215577D01*
X1073475Y4215577D02*
G01*
X1068799Y4205549D01*
X1068799Y4205549D02*
G01*
X1065935Y4194862D01*
X1065935Y4194862D02*
G01*
X1064971Y4183839D01*
X1064971Y4183839D02*
G01*
X1064971Y4026359D01*
X1064971Y4026359D02*
G01*
X1065935Y4015337D01*
X1065935Y4015337D02*
G01*
X1068799Y4004650D01*
X1068799Y4004650D02*
G01*
X1073475Y3994622D01*
X1073475Y3994622D02*
G01*
X1079821Y3985558D01*
X1079821Y3985558D02*
G01*
X1087645Y3977735D01*
X1087645Y3977735D02*
G01*
X1096708Y3971389D01*
X1096708Y3971389D02*
G01*
X1106736Y3966713D01*
X1106736Y3966713D02*
G01*
X1117423Y3963849D01*
X353593Y845400D02*
G01*
X2400399Y845400D01*
X261229Y896200D02*
G01*
X2401306Y896200D01*
X168866Y947000D02*
G01*
X2402213Y947000D01*
X114328Y997800D02*
G01*
X2403120Y997800D01*
X113926Y1048600D02*
G01*
X2404027Y1048600D01*
X113524Y1099400D02*
G01*
X2404934Y1099400D01*
X113121Y1150200D02*
G01*
X262042Y1150200D01*
X447937Y1150200D02*
G01*
X1786042Y1150200D01*
X1971937Y1150200D02*
G01*
X2405842Y1150200D01*
X112719Y1201000D02*
G01*
X217380Y1201000D01*
X492600Y1201000D02*
G01*
X1741380Y1201000D01*
X2016600Y1201000D02*
G01*
X2406749Y1201000D01*
X112317Y1251800D02*
G01*
X199813Y1251800D01*
X510167Y1251800D02*
G01*
X1723813Y1251800D01*
X2034167Y1251800D02*
G01*
X2407656Y1251800D01*
X111915Y1302600D02*
G01*
X199878Y1302600D01*
X525601Y1302600D02*
G01*
X1723878Y1302600D01*
X2034102Y1302600D02*
G01*
X2408563Y1302600D01*
X111513Y1353400D02*
G01*
X217590Y1353400D01*
X532574Y1353400D02*
G01*
X1740515Y1353400D01*
X2017464Y1353400D02*
G01*
X2409470Y1353400D01*
X111111Y1404200D02*
G01*
X262579Y1404200D01*
X532574Y1404200D02*
G01*
X1740515Y1404200D01*
X2017464Y1404200D02*
G01*
X2410377Y1404200D01*
X110709Y1455000D02*
G01*
X305625Y1455000D01*
X532574Y1455000D02*
G01*
X1740515Y1455000D01*
X2017464Y1455000D02*
G01*
X2411284Y1455000D01*
X110307Y1505800D02*
G01*
X305625Y1505800D01*
X532574Y1505800D02*
G01*
X1740515Y1505800D01*
X2017464Y1505800D02*
G01*
X2412192Y1505800D01*
X109905Y1556600D02*
G01*
X305625Y1556600D01*
X532574Y1556600D02*
G01*
X1742816Y1556600D01*
X2015164Y1556600D02*
G01*
X2413099Y1556600D01*
X109503Y1607400D02*
G01*
X305625Y1607400D01*
X532574Y1607400D02*
G01*
X1762533Y1607400D01*
X1995446Y1607400D02*
G01*
X2414006Y1607400D01*
X109101Y1658200D02*
G01*
X305625Y1658200D01*
X532574Y1658200D02*
G01*
X1820689Y1658200D01*
X1937291Y1658200D02*
G01*
X2414913Y1658200D01*
X108699Y1709000D02*
G01*
X305625Y1709000D01*
X532574Y1709000D02*
G01*
X2415820Y1709000D01*
X108296Y1759800D02*
G01*
X305625Y1759800D01*
X532574Y1759800D02*
G01*
X2416727Y1759800D01*
X107894Y1810600D02*
G01*
X305625Y1810600D01*
X532574Y1810600D02*
G01*
X2417634Y1810600D01*
X107492Y1861400D02*
G01*
X305625Y1861400D01*
X532574Y1861400D02*
G01*
X2418542Y1861400D01*
X107090Y1912200D02*
G01*
X305625Y1912200D01*
X532574Y1912200D02*
G01*
X2419449Y1912200D01*
X106688Y1963000D02*
G01*
X305625Y1963000D01*
X532574Y1963000D02*
G01*
X2420356Y1963000D01*
X106286Y2013800D02*
G01*
X305625Y2013800D01*
X532574Y2013800D02*
G01*
X2421263Y2013800D01*
X105884Y2064600D02*
G01*
X305625Y2064600D01*
X532574Y2064600D02*
G01*
X2422170Y2064600D01*
X105482Y2115400D02*
G01*
X305625Y2115400D01*
X532574Y2115400D02*
G01*
X1265087Y2115400D01*
X1452712Y2115400D02*
G01*
X2423077Y2115400D01*
X105080Y2166200D02*
G01*
X305625Y2166200D01*
X532574Y2166200D02*
G01*
X1223171Y2166200D01*
X1543400Y2166200D02*
G01*
X2423984Y2166200D01*
X104678Y2217000D02*
G01*
X305625Y2217000D01*
X532574Y2217000D02*
G01*
X1207776Y2217000D01*
X1599173Y2217000D02*
G01*
X2424892Y2217000D01*
X104276Y2267800D02*
G01*
X305625Y2267800D01*
X532574Y2267800D02*
G01*
X1165819Y2267800D01*
X1645538Y2267800D02*
G01*
X2425799Y2267800D01*
X103874Y2318600D02*
G01*
X285616Y2318600D01*
X1661801Y2318600D02*
G01*
X2426706Y2318600D01*
X103471Y2369400D02*
G01*
X268554Y2369400D01*
X1663520Y2369400D02*
G01*
X2427613Y2369400D01*
X103069Y2420200D02*
G01*
X269662Y2420200D01*
X1334373Y2420200D02*
G01*
X1437929Y2420200D01*
X1664970Y2420200D02*
G01*
X2428520Y2420200D01*
X102667Y2471000D02*
G01*
X289231Y2471000D01*
X1283573Y2471000D02*
G01*
X1439378Y2471000D01*
X1666419Y2471000D02*
G01*
X2429427Y2471000D01*
X102265Y2521800D02*
G01*
X339996Y2521800D01*
X497778Y2521800D02*
G01*
X1440828Y2521800D01*
X1667869Y2521800D02*
G01*
X2430334Y2521800D01*
X101863Y2572600D02*
G01*
X1442277Y2572600D01*
X1669319Y2572600D02*
G01*
X2431242Y2572600D01*
X101461Y2623400D02*
G01*
X1443727Y2623400D01*
X1670768Y2623400D02*
G01*
X2432149Y2623400D01*
X101059Y2674200D02*
G01*
X1445176Y2674200D01*
X1672218Y2674200D02*
G01*
X2433056Y2674200D01*
X100657Y2725000D02*
G01*
X1446626Y2725000D01*
X1673667Y2725000D02*
G01*
X2433963Y2725000D01*
X100255Y2775800D02*
G01*
X1448076Y2775800D01*
X1675117Y2775800D02*
G01*
X2434870Y2775800D01*
X99853Y2826600D02*
G01*
X1449525Y2826600D01*
X1676567Y2826600D02*
G01*
X2435777Y2826600D01*
X99451Y2877400D02*
G01*
X1450975Y2877400D01*
X1678016Y2877400D02*
G01*
X2436684Y2877400D01*
X99049Y2928200D02*
G01*
X1452424Y2928200D01*
X1679466Y2928200D02*
G01*
X2437592Y2928200D01*
X98646Y2979000D02*
G01*
X1453874Y2979000D01*
X1680915Y2979000D02*
G01*
X2438499Y2979000D01*
X98244Y3029800D02*
G01*
X1455323Y3029800D01*
X1682365Y3029800D02*
G01*
X2439406Y3029800D01*
X97842Y3080600D02*
G01*
X1456773Y3080600D01*
X1683815Y3080600D02*
G01*
X2440313Y3080600D01*
X97440Y3131400D02*
G01*
X1458223Y3131400D01*
X1685264Y3131400D02*
G01*
X2441220Y3131400D01*
X97038Y3182200D02*
G01*
X1459672Y3182200D01*
X1847346Y3182200D02*
G01*
X2442127Y3182200D01*
X96636Y3233000D02*
G01*
X1461122Y3233000D01*
X2078557Y3233000D02*
G01*
X2443034Y3233000D01*
X96234Y3283800D02*
G01*
X1470837Y3283800D01*
X2245213Y3283800D02*
G01*
X2443942Y3283800D01*
X95832Y3334600D02*
G01*
X1514915Y3334600D01*
X2279021Y3334600D02*
G01*
X2444849Y3334600D01*
X95430Y3385400D02*
G01*
X1714617Y3385400D01*
X2284564Y3385400D02*
G01*
X2445756Y3385400D01*
X95028Y3436200D02*
G01*
X1945828Y3436200D01*
X2284564Y3436200D02*
G01*
X2446663Y3436200D01*
X94626Y3487000D02*
G01*
X2057615Y3487000D01*
X2284564Y3487000D02*
G01*
X2447570Y3487000D01*
X94224Y3537800D02*
G01*
X2057615Y3537800D01*
X2284564Y3537800D02*
G01*
X2448477Y3537800D01*
X93822Y3588600D02*
G01*
X2057615Y3588600D01*
X2284564Y3588600D02*
G01*
X2449384Y3588600D01*
X93419Y3639400D02*
G01*
X2057615Y3639400D01*
X2284564Y3639400D02*
G01*
X2450292Y3639400D01*
X93017Y3690200D02*
G01*
X2057615Y3690200D01*
X2284564Y3690200D02*
G01*
X2560594Y3690200D01*
X92615Y3741000D02*
G01*
X2057615Y3741000D01*
X2284564Y3741000D02*
G01*
X3271794Y3741000D01*
X92213Y3791800D02*
G01*
X2057615Y3791800D01*
X2284564Y3791800D02*
G01*
X3341497Y3791800D01*
X91811Y3842600D02*
G01*
X2057615Y3842600D01*
X2284564Y3842600D02*
G01*
X3342949Y3842600D01*
X91409Y3893400D02*
G01*
X2057615Y3893400D01*
X2284564Y3893400D02*
G01*
X3344400Y3893400D01*
X91007Y3944200D02*
G01*
X2057615Y3944200D01*
X2284564Y3944200D02*
G01*
X3345852Y3944200D01*
X90605Y3995000D02*
G01*
X1073298Y3995000D01*
X1345059Y3995000D02*
G01*
X2057615Y3995000D01*
X2284564Y3995000D02*
G01*
X3347303Y3995000D01*
X90203Y4045800D02*
G01*
X1064971Y4045800D01*
X1353581Y4045800D02*
G01*
X2057615Y4045800D01*
X2284564Y4045800D02*
G01*
X3348755Y4045800D01*
X89800Y4096600D02*
G01*
X1064971Y4096600D01*
X1353581Y4096600D02*
G01*
X2057615Y4096600D01*
X2284564Y4096600D02*
G01*
X3350206Y4096600D01*
X89398Y4147400D02*
G01*
X1064971Y4147400D01*
X1353581Y4147400D02*
G01*
X2057615Y4147400D01*
X2284564Y4147400D02*
G01*
X3351657Y4147400D01*
X89403Y4198200D02*
G01*
X1066830Y4198200D01*
X1351830Y4198200D02*
G01*
X2057615Y4198200D01*
X2284564Y4198200D02*
G01*
X3343882Y4198200D01*
X90038Y4249000D02*
G01*
X2057615Y4249000D01*
X2284564Y4249000D02*
G01*
X3324168Y4249000D01*
X90673Y4299800D02*
G01*
X2057615Y4299800D01*
X2284564Y4299800D02*
G01*
X3304455Y4299800D01*
X91308Y4350600D02*
G01*
X2057615Y4350600D01*
X2284564Y4350600D02*
G01*
X3284741Y4350600D01*
X91943Y4401400D02*
G01*
X2057615Y4401400D01*
X2284564Y4401400D02*
G01*
X2745452Y4401400D01*
X2942664Y4401400D02*
G01*
X3265028Y4401400D01*
X92578Y4452200D02*
G01*
X2057615Y4452200D01*
X2284564Y4452200D02*
G01*
X2706710Y4452200D01*
X2981804Y4452200D02*
G01*
X3245314Y4452200D01*
X93213Y4503000D02*
G01*
X2057615Y4503000D01*
X2284564Y4503000D02*
G01*
X2692714Y4503000D01*
X2995743Y4503000D02*
G01*
X3225601Y4503000D01*
X93848Y4553800D02*
G01*
X2057615Y4553800D01*
X2284564Y4553800D02*
G01*
X2696478Y4553800D01*
X2992040Y4553800D02*
G01*
X3205887Y4553800D01*
X94483Y4604600D02*
G01*
X2057615Y4604600D01*
X2284564Y4604600D02*
G01*
X2719421Y4604600D01*
X2968847Y4604600D02*
G01*
X3186174Y4604600D01*
X95118Y4655400D02*
G01*
X2057615Y4655400D01*
X2284564Y4655400D02*
G01*
X2780245Y4655400D01*
X2908566Y4655400D02*
G01*
X3166461Y4655400D01*
X95753Y4706200D02*
G01*
X2057615Y4706200D01*
X2284564Y4706200D02*
G01*
X3146747Y4706200D01*
X96388Y4757000D02*
G01*
X2057615Y4757000D01*
X2284564Y4757000D02*
G01*
X3127034Y4757000D01*
X97023Y4807800D02*
G01*
X2057615Y4807800D01*
X2284564Y4807800D02*
G01*
X3107320Y4807800D01*
X97658Y4858600D02*
G01*
X2057615Y4858600D01*
X2284564Y4858600D02*
G01*
X3087607Y4858600D01*
X98293Y4909400D02*
G01*
X2057615Y4909400D01*
X2284564Y4909400D02*
G01*
X3067894Y4909400D01*
X98928Y4960200D02*
G01*
X2057615Y4960200D01*
X2284564Y4960200D02*
G01*
X3048180Y4960200D01*
X99563Y5011000D02*
G01*
X2044580Y5011000D01*
X2348399Y5011000D02*
G01*
X2591183Y5011000D01*
X2817797Y5011000D02*
G01*
X3028467Y5011000D01*
X100198Y5061800D02*
G01*
X2043015Y5061800D01*
X2349964Y5061800D02*
G01*
X2560427Y5061800D01*
X2848553Y5061800D02*
G01*
X3016859Y5061800D01*
X100833Y5112600D02*
G01*
X2043015Y5112600D01*
X2349964Y5112600D02*
G01*
X2551156Y5112600D01*
X2857824Y5112600D02*
G01*
X3008576Y5112600D01*
X101468Y5163400D02*
G01*
X2043015Y5163400D01*
X2349964Y5163400D02*
G01*
X2559193Y5163400D01*
X2849787Y5163400D02*
G01*
X3000294Y5163400D01*
X102103Y5214200D02*
G01*
X2043885Y5214200D01*
X2349095Y5214200D02*
G01*
X2588341Y5214200D01*
X2820639Y5214200D02*
G01*
X2992011Y5214200D01*
X102738Y5265000D02*
G01*
X2061126Y5265000D01*
X2338135Y5265000D02*
G01*
X2676954Y5265000D01*
X2732026Y5265000D02*
G01*
X2983729Y5265000D01*
X103373Y5315800D02*
G01*
X2062184Y5315800D01*
X2339193Y5315800D02*
G01*
X2975446Y5315800D01*
X104008Y5366600D02*
G01*
X2063243Y5366600D01*
X2340251Y5366600D02*
G01*
X2967163Y5366600D01*
X104643Y5417400D02*
G01*
X2064301Y5417400D01*
X2341310Y5417400D02*
G01*
X2958881Y5417400D01*
X105278Y5468200D02*
G01*
X2065359Y5468200D01*
X2342368Y5468200D02*
G01*
X2950598Y5468200D01*
X105913Y5519000D02*
G01*
X2066418Y5519000D01*
X2343426Y5519000D02*
G01*
X2942316Y5519000D01*
X106548Y5569800D02*
G01*
X2067476Y5569800D01*
X2344485Y5569800D02*
G01*
X2934033Y5569800D01*
X107183Y5620600D02*
G01*
X2041894Y5620600D01*
X2345543Y5620600D02*
G01*
X2925750Y5620600D01*
X107818Y5671400D02*
G01*
X323459Y5671400D01*
X1154289Y5671400D02*
G01*
X1823454Y5671400D01*
X2346601Y5671400D02*
G01*
X2917468Y5671400D01*
X108453Y5722200D02*
G01*
X277667Y5722200D01*
X2347647Y5722200D02*
G01*
X2909185Y5722200D01*
X109088Y5773000D02*
G01*
X258659Y5773000D01*
X2338633Y5773000D02*
G01*
X2900903Y5773000D01*
X109723Y5823800D02*
G01*
X257004Y5823800D01*
X2304896Y5823800D02*
G01*
X2892620Y5823800D01*
X110358Y5874600D02*
G01*
X271881Y5874600D01*
X2172354Y5874600D02*
G01*
X2884337Y5874600D01*
X110993Y5925400D02*
G01*
X310077Y5925400D01*
X1953914Y5925400D02*
G01*
X2876055Y5925400D01*
X111628Y5976200D02*
G01*
X363438Y5976200D01*
X1767677Y5976200D02*
G01*
X2867772Y5976200D01*
X112263Y6027000D02*
G01*
X414238Y6027000D01*
X875208Y6027000D02*
G01*
X2859490Y6027000D01*
X112898Y6077800D02*
G01*
X465038Y6077800D01*
X784897Y6077800D02*
G01*
X2851207Y6077800D01*
X113533Y6128600D02*
G01*
X528417Y6128600D01*
X693826Y6128600D02*
G01*
X2842924Y6128600D01*
X114168Y6179400D02*
G01*
X2834642Y6179400D01*
X3314700Y3744065D02*
G01*
X3314700Y4273400D01*
X3263900Y3740437D02*
G01*
X3263900Y4404308D01*
X3213100Y3736808D02*
G01*
X3213100Y4535216D01*
X3162300Y3733179D02*
G01*
X3162300Y4666124D01*
X3111500Y3729551D02*
G01*
X3111500Y4797031D01*
X3060700Y3725922D02*
G01*
X3060700Y4927939D01*
X3009900Y3722294D02*
G01*
X3009900Y5104486D01*
X2959100Y3718665D02*
G01*
X2959100Y4417586D01*
X2959100Y4617142D02*
G01*
X2959100Y5416059D01*
X2908300Y3715037D02*
G01*
X2908300Y4379187D01*
X2908300Y4655541D02*
G01*
X2908300Y5727632D01*
X2857500Y3711408D02*
G01*
X2857500Y4365587D01*
X2857500Y4669141D02*
G01*
X2857500Y5105198D01*
X2857500Y5123961D02*
G01*
X2857500Y6039206D01*
X2806700Y3707779D02*
G01*
X2806700Y4369743D01*
X2806700Y4664985D02*
G01*
X2806700Y4999913D01*
X2806700Y5228433D02*
G01*
X2806700Y6184822D01*
X2755900Y3704151D02*
G01*
X2755900Y4393344D01*
X2755900Y4641384D02*
G01*
X2755900Y4969922D01*
X2755900Y5258862D02*
G01*
X2755900Y6185057D01*
X2705100Y3700522D02*
G01*
X2705100Y4455475D01*
X2705100Y4579253D02*
G01*
X2705100Y4961040D01*
X2705100Y5267704D02*
G01*
X2705100Y6185292D01*
X2654300Y3696894D02*
G01*
X2654300Y4969487D01*
X2654300Y5259220D02*
G01*
X2654300Y6185527D01*
X2603500Y3693265D02*
G01*
X2603500Y4998916D01*
X2603500Y5229551D02*
G01*
X2603500Y6185763D01*
X2552700Y3689637D02*
G01*
X2552700Y5091821D01*
X2552700Y5135195D02*
G01*
X2552700Y6185998D01*
X2501900Y3686008D02*
G01*
X2501900Y6186233D01*
X2451100Y3672002D02*
G01*
X2451100Y6186468D01*
X2400300Y839839D02*
G01*
X2400300Y6186703D01*
X2349500Y838577D02*
G01*
X2349500Y5018951D01*
X2349500Y5209577D02*
G01*
X2349500Y6186938D01*
X2298700Y838677D02*
G01*
X2298700Y4962072D01*
X2298700Y5829443D02*
G01*
X2298700Y6187174D01*
X2247900Y838776D02*
G01*
X2247900Y3286021D01*
X2247900Y5856698D02*
G01*
X2247900Y6187409D01*
X2197100Y838875D02*
G01*
X2197100Y3259161D01*
X2197100Y5868846D02*
G01*
X2197100Y6187644D01*
X2146300Y838974D02*
G01*
X2146300Y3247884D01*
X2146300Y5880660D02*
G01*
X2146300Y6187879D01*
X2095500Y839073D02*
G01*
X2095500Y3236723D01*
X2095500Y5892473D02*
G01*
X2095500Y6188114D01*
X2044700Y839172D02*
G01*
X2044700Y3225562D01*
X2044700Y3457924D02*
G01*
X2044700Y5010556D01*
X2044700Y5217972D02*
G01*
X2044700Y5619948D01*
X2044700Y5904287D02*
G01*
X2044700Y6188350D01*
X1993900Y839271D02*
G01*
X1993900Y1169670D01*
X1993900Y1609959D02*
G01*
X1993900Y3214400D01*
X1993900Y3446762D02*
G01*
X1993900Y5631762D01*
X1993900Y5916101D02*
G01*
X1993900Y6188585D01*
X1943100Y839370D02*
G01*
X1943100Y1133405D01*
X1943100Y1655586D02*
G01*
X1943100Y3203239D01*
X1943100Y3435601D02*
G01*
X1943100Y5643576D01*
X1943100Y5927915D02*
G01*
X1943100Y6188820D01*
X1892300Y839469D02*
G01*
X1892300Y1120303D01*
X1892300Y1670533D02*
G01*
X1892300Y3192077D01*
X1892300Y3424439D02*
G01*
X1892300Y5655390D01*
X1892300Y5939729D02*
G01*
X1892300Y6189055D01*
X1841500Y839568D02*
G01*
X1841500Y1124210D01*
X1841500Y1665959D02*
G01*
X1841500Y3180916D01*
X1841500Y3413278D02*
G01*
X1841500Y5667204D01*
X1841500Y5951543D02*
G01*
X1841500Y6189290D01*
X1790700Y839667D02*
G01*
X1790700Y1146896D01*
X1790700Y1639283D02*
G01*
X1790700Y3169754D01*
X1790700Y3402117D02*
G01*
X1790700Y5679018D01*
X1790700Y5963357D02*
G01*
X1790700Y6189525D01*
X1739900Y839766D02*
G01*
X1739900Y1203679D01*
X1739900Y1350341D02*
G01*
X1739900Y3158593D01*
X1739900Y3390955D02*
G01*
X1739900Y5690832D01*
X1739900Y5994899D02*
G01*
X1739900Y6189761D01*
X1689100Y839865D02*
G01*
X1689100Y3147432D01*
X1689100Y3379794D02*
G01*
X1689100Y5689714D01*
X1689100Y6012014D02*
G01*
X1689100Y6189996D01*
X1638300Y839965D02*
G01*
X1638300Y2257362D01*
X1638300Y3368632D02*
G01*
X1638300Y5687390D01*
X1638300Y6014338D02*
G01*
X1638300Y6190231D01*
X1587500Y840064D02*
G01*
X1587500Y2205327D01*
X1587500Y3357471D02*
G01*
X1587500Y5687390D01*
X1587500Y6014338D02*
G01*
X1587500Y6190466D01*
X1536700Y840163D02*
G01*
X1536700Y2162496D01*
X1536700Y3345246D02*
G01*
X1536700Y5687390D01*
X1536700Y6014338D02*
G01*
X1536700Y6190701D01*
X1485900Y840262D02*
G01*
X1485900Y2147429D01*
X1485900Y3308877D02*
G01*
X1485900Y5687390D01*
X1485900Y6014338D02*
G01*
X1485900Y6190937D01*
X1435100Y840361D02*
G01*
X1435100Y2103338D01*
X1435100Y2373881D02*
G01*
X1435100Y5687390D01*
X1435100Y6014338D02*
G01*
X1435100Y6191172D01*
X1384300Y840460D02*
G01*
X1384300Y2084990D01*
X1384300Y2385191D02*
G01*
X1384300Y5687390D01*
X1384300Y6014338D02*
G01*
X1384300Y6191407D01*
X1333500Y840559D02*
G01*
X1333500Y2084990D01*
X1333500Y2421074D02*
G01*
X1333500Y3980731D01*
X1333500Y4230275D02*
G01*
X1333500Y5687390D01*
X1333500Y6014338D02*
G01*
X1333500Y6191642D01*
X1282700Y840658D02*
G01*
X1282700Y2103338D01*
X1282700Y2471871D02*
G01*
X1282700Y3962885D01*
X1282700Y4247718D02*
G01*
X1282700Y5685159D01*
X1282700Y6013693D02*
G01*
X1282700Y6191877D01*
X1231900Y840757D02*
G01*
X1231900Y2151214D01*
X1231900Y2501205D02*
G01*
X1231900Y3962885D01*
X1231900Y4247718D02*
G01*
X1231900Y5679716D01*
X1231900Y6008536D02*
G01*
X1231900Y6192113D01*
X1181100Y840857D02*
G01*
X1181100Y2252520D01*
X1181100Y2505087D02*
G01*
X1181100Y3962885D01*
X1181100Y4247718D02*
G01*
X1181100Y5674273D01*
X1181100Y6003093D02*
G01*
X1181100Y6192348D01*
X1130300Y840956D02*
G01*
X1130300Y2278138D01*
X1130300Y2505087D02*
G01*
X1130300Y3962885D01*
X1130300Y4247508D02*
G01*
X1130300Y5668830D01*
X1130300Y5997650D02*
G01*
X1130300Y6192583D01*
X1079500Y841055D02*
G01*
X1079500Y2278138D01*
X1079500Y2505087D02*
G01*
X1079500Y3986018D01*
X1079500Y4224181D02*
G01*
X1079500Y5663387D01*
X1079500Y5992207D02*
G01*
X1079500Y6192818D01*
X1028700Y841154D02*
G01*
X1028700Y2278138D01*
X1028700Y2505087D02*
G01*
X1028700Y5657944D01*
X1028700Y5986765D02*
G01*
X1028700Y6193053D01*
X977900Y841253D02*
G01*
X977900Y2278138D01*
X977900Y2505087D02*
G01*
X977900Y5652502D01*
X977900Y5981322D02*
G01*
X977900Y6193288D01*
X927100Y841352D02*
G01*
X927100Y2278138D01*
X927100Y2505087D02*
G01*
X927100Y5649060D01*
X927100Y5999946D02*
G01*
X927100Y6193524D01*
X876300Y841451D02*
G01*
X876300Y2278138D01*
X876300Y2505087D02*
G01*
X876300Y5648194D01*
X876300Y6026386D02*
G01*
X876300Y6193759D01*
X825500Y841550D02*
G01*
X825500Y2278138D01*
X825500Y2505087D02*
G01*
X825500Y5647328D01*
X825500Y6054961D02*
G01*
X825500Y6193994D01*
X774700Y841649D02*
G01*
X774700Y2278138D01*
X774700Y2505087D02*
G01*
X774700Y5646462D01*
X774700Y6083536D02*
G01*
X774700Y6194229D01*
X723900Y841748D02*
G01*
X723900Y2278138D01*
X723900Y2505087D02*
G01*
X723900Y5645597D01*
X723900Y6112111D02*
G01*
X723900Y6194464D01*
X673100Y841847D02*
G01*
X673100Y2278138D01*
X673100Y2505087D02*
G01*
X673100Y5644731D01*
X673100Y6137074D02*
G01*
X673100Y6194700D01*
X622300Y841947D02*
G01*
X622300Y2278138D01*
X622300Y2505087D02*
G01*
X622300Y5643865D01*
X622300Y6145184D02*
G01*
X622300Y6194935D01*
X571500Y842046D02*
G01*
X571500Y2278138D01*
X571500Y2505087D02*
G01*
X571500Y5642999D01*
X571500Y6142519D02*
G01*
X571500Y6195170D01*
X520700Y842145D02*
G01*
X520700Y1291131D01*
X520700Y2505087D02*
G01*
X520700Y5642133D01*
X520700Y6124437D02*
G01*
X520700Y6195405D01*
X469900Y842244D02*
G01*
X469900Y1169670D01*
X469900Y2535049D02*
G01*
X469900Y5641267D01*
X469900Y6082661D02*
G01*
X469900Y6195640D01*
X419100Y842343D02*
G01*
X419100Y1133405D01*
X419100Y2543788D02*
G01*
X419100Y5640552D01*
X419100Y6031861D02*
G01*
X419100Y6195875D01*
X368300Y842442D02*
G01*
X368300Y1120303D01*
X368300Y2535071D02*
G01*
X368300Y5648589D01*
X368300Y5981061D02*
G01*
X368300Y6196111D01*
X317500Y865252D02*
G01*
X317500Y1124210D01*
X317500Y2504855D02*
G01*
X317500Y5676113D01*
X317500Y5931926D02*
G01*
X317500Y6196346D01*
X266700Y893192D02*
G01*
X266700Y1146896D01*
X266700Y1407124D02*
G01*
X266700Y5745276D01*
X266700Y5862881D02*
G01*
X266700Y6196581D01*
X215900Y921132D02*
G01*
X215900Y1203679D01*
X215900Y1350341D02*
G01*
X215900Y6196816D01*
X165100Y949072D02*
G01*
X165100Y6197051D01*
X114300Y1001355D02*
G01*
X114300Y6189898D01*
G36*
X7315200Y5651500D02*
G01*
X7378700Y5651500D01*
X7378700Y4203700D01*
X7315200Y4203700D01*
G37*
G36*
X7086600Y5473700D02*
G01*
X7404100Y5473700D01*
X7404100Y5283200D01*
X7086600Y5283200D01*
G37*
G36*
X6959600Y2768600D02*
G01*
X7366000Y2768600D01*
X7366000Y1714500D01*
X6959600Y1714500D01*
G37*
G36*
X6781800Y2095500D02*
G01*
X7035800Y2095500D01*
X7035800Y1689100D01*
X6781800Y1689100D01*
G37*
G36*
X6432550Y5543550D02*
G01*
X7435850Y5543550D01*
X7435850Y4210050D01*
X6432550Y4210050D01*
G37*
G36*
X5880100Y6616700D02*
G01*
X7607300Y6616700D01*
X7607300Y5473700D01*
X5880100Y5473700D01*
G37*
G36*
X5854700Y1803400D02*
G01*
X7620000Y1803400D01*
X7620000Y609600D01*
X5854700Y609600D01*
G37*
G36*
X5969000Y3136900D02*
G01*
X6591300Y3136900D01*
X6591300Y1739900D01*
X5969000Y1739900D01*
G37*
G36*
X5435600Y3340100D02*
G01*
X5880100Y3340100D01*
X5880100Y3111500D01*
X5435600Y3111500D01*
G37*
G36*
X6400800Y4229100D02*
G01*
X6896100Y4229100D01*
X6896100Y3835400D01*
X6400800Y3835400D01*
G37*
D20*
G01*
X1207185Y4105097D03*
G01*
X1207185Y3851097D03*
D21*
G01*
X5854700Y3214166D03*
D22*
G01*
X5854700Y4304207D03*
D21*
G01*
X5854700Y3759174D03*
D23*
G01*
X1878990Y1277010D03*
G01*
X354990Y1277010D03*
D18*
G01*
X5854700Y1600200D03*
G01*
X5854700Y1092200D03*
D24*
G01*
X939190Y5812764D03*
D25*
G01*
X431190Y5812764D03*
D24*
G01*
X939190Y5330164D03*
D25*
G01*
X431190Y5330164D03*
D20*
G01*
X1211376Y3850436D03*
G01*
X1211376Y4105503D03*
D26*
G01*
X2209190Y5723864D03*
G01*
X2463190Y5723864D03*
D27*
G01*
X4504004Y2829991D03*
G01*
X3996004Y2829991D03*
G01*
X1358900Y2743200D03*
G01*
X1358900Y2235200D03*
G01*
X4544009Y4880000D03*
G01*
X4036009Y4880000D03*
G01*
X2844190Y4517364D03*
G01*
X2336190Y4517364D03*
D28*
G01*
X2196490Y5114264D03*
D25*
G01*
X2450490Y5114264D03*
G01*
X2704490Y5114264D03*
G01*
X4032605Y5715000D03*
G01*
X4542586Y5715000D03*
G01*
X4526584Y2015464D03*
G01*
X4016603Y2015464D03*
D23*
G01*
X4318000Y4114800D03*
G01*
X5334000Y4114800D03*
G01*
X4318000Y3835400D03*
G01*
X5334000Y3835400D03*
D27*
G01*
X419100Y2901594D03*
G01*
X419100Y2391613D03*
D18*
G01*
X5867400Y6616700D03*
G01*
X5867400Y6108700D03*
D29*
G01*
X685190Y3597097D03*
G01*
X685190Y4613097D03*
G01*
X1701190Y3597097D03*
D25*
G01*
X1624990Y5324297D03*
G01*
X1269390Y5324297D03*
G01*
X1663090Y5850864D03*
G01*
X1294790Y5850864D03*
D15*
G01*
X5346700Y3340100D03*
G01*
X4634890Y3482797D03*
D18*
G01*
X5854700Y609600D03*
D30*
G01*
X1878990Y1532864D03*
G01*
X3225190Y1532864D03*
G01*
X3479190Y1532864D03*
G01*
X1878990Y3107664D03*
G01*
X3225190Y3107664D03*
G01*
X3479190Y3107664D03*
D25*
G01*
X622300Y5981700D03*
G01*
X635000Y5156200D03*
D18*
G01*
X6388100Y609600D03*
G01*
X6400800Y5613400D03*
G01*
X5867400Y5613400D03*
G01*
X6832600Y622300D03*
G01*
X6832600Y1079500D03*
G01*
X7150100Y1079500D03*
G01*
X7150100Y622300D03*
G01*
X7467600Y1079500D03*
G01*
X7467600Y622300D03*
G01*
X6832600Y6616700D03*
G01*
X7150100Y6616700D03*
G01*
X7454900Y6604000D03*
G01*
X7454900Y6108700D03*
G01*
X7150100Y6108700D03*
G01*
X6832600Y6108700D03*
D26*
G01*
X2705100Y5727700D03*
D18*
G01*
X6400800Y6616700D03*
G01*
X6400800Y6108700D03*
G01*
X6388100Y1600200D03*
G01*
X6388100Y1092200D03*
M02*
