G04 Layer: TopSilkscreenLayer*
G04 EasyEDA v6.5.34, 2023-10-25 23:35:01*
G04 b0c90d07580345d6a9a575a3640b0f1e,d8e1fe4a71354f51b54a745932dbb16f,10*
G04 Gerber Generator version 0.2*
G04 Scale: 100 percent, Rotated: No, Reflected: No *
G04 Dimensions in millimeters *
G04 leading zeros omitted , absolute positions ,4 integer and 5 decimal *
%FSLAX45Y45*%
%MOMM*%

%ADD10C,0.2032*%
%ADD11C,0.1524*%
%ADD12C,1.0000*%
%ADD13C,0.2540*%
%ADD14C,0.2030*%
%ADD15C,0.1999*%
%ADD16C,0.2007*%
%ADD17C,0.1778*%
%ADD18C,0.0181*%

%LPD*%
D10*
X6463029Y2737053D02*
G01*
X6453886Y2755341D01*
X6435343Y2773883D01*
X6417056Y2783027D01*
X6379972Y2783027D01*
X6361429Y2773883D01*
X6343141Y2755341D01*
X6333743Y2737053D01*
X6324600Y2709367D01*
X6324600Y2663139D01*
X6333743Y2635453D01*
X6343141Y2616911D01*
X6361429Y2598369D01*
X6379972Y2589225D01*
X6417056Y2589225D01*
X6435343Y2598369D01*
X6453886Y2616911D01*
X6463029Y2635453D01*
X6542531Y2783027D02*
G01*
X6644131Y2783027D01*
X6588759Y2709367D01*
X6616445Y2709367D01*
X6634988Y2699969D01*
X6644131Y2690825D01*
X6653529Y2663139D01*
X6653529Y2644597D01*
X6644131Y2616911D01*
X6625590Y2598369D01*
X6597904Y2589225D01*
X6570218Y2589225D01*
X6542531Y2598369D01*
X6533388Y2607767D01*
X6523990Y2626055D01*
X6714490Y2783027D02*
G01*
X6714490Y2589225D01*
X6714490Y2783027D02*
G01*
X6788150Y2589225D01*
X6862063Y2783027D02*
G01*
X6788150Y2589225D01*
X6862063Y2783027D02*
G01*
X6862063Y2589225D01*
X1139819Y4568652D02*
G01*
X1130675Y4587194D01*
X1112133Y4605736D01*
X1093845Y4614880D01*
X1056761Y4614880D01*
X1038219Y4605736D01*
X1019931Y4587194D01*
X1010533Y4568652D01*
X1001389Y4540966D01*
X1001389Y4494992D01*
X1010533Y4467052D01*
X1019931Y4448764D01*
X1038219Y4430222D01*
X1056761Y4421078D01*
X1093845Y4421078D01*
X1112133Y4430222D01*
X1130675Y4448764D01*
X1139819Y4467052D01*
X1256405Y4614880D02*
G01*
X1237863Y4605736D01*
X1219321Y4587194D01*
X1210177Y4568652D01*
X1200779Y4540966D01*
X1200779Y4494992D01*
X1210177Y4467052D01*
X1219321Y4448764D01*
X1237863Y4430222D01*
X1256405Y4421078D01*
X1293235Y4421078D01*
X1311777Y4430222D01*
X1330319Y4448764D01*
X1339463Y4467052D01*
X1348607Y4494992D01*
X1348607Y4540966D01*
X1339463Y4568652D01*
X1330319Y4587194D01*
X1311777Y4605736D01*
X1293235Y4614880D01*
X1256405Y4614880D01*
X1483481Y4614880D02*
G01*
X1409567Y4421078D01*
X1483481Y4614880D02*
G01*
X1557395Y4421078D01*
X1437253Y4485594D02*
G01*
X1529709Y4485594D01*
X1618355Y4614880D02*
G01*
X1747641Y4421078D01*
X1747641Y4614880D02*
G01*
X1618355Y4421078D01*
X4838700Y3278355D02*
G01*
X4838700Y3084553D01*
X4838700Y3278355D02*
G01*
X4921758Y3278355D01*
X4949443Y3269211D01*
X4958841Y3260067D01*
X4967986Y3241525D01*
X4967986Y3222983D01*
X4958841Y3204441D01*
X4949443Y3195297D01*
X4921758Y3186153D01*
X4838700Y3186153D02*
G01*
X4921758Y3186153D01*
X4949443Y3176755D01*
X4958841Y3167611D01*
X4967986Y3149069D01*
X4967986Y3121383D01*
X4958841Y3102841D01*
X4949443Y3093697D01*
X4921758Y3084553D01*
X4838700Y3084553D01*
X5028945Y3278355D02*
G01*
X5028945Y3084553D01*
X5028945Y3278355D02*
G01*
X5112004Y3278355D01*
X5139690Y3269211D01*
X5149088Y3260067D01*
X5158231Y3241525D01*
X5158231Y3222983D01*
X5149088Y3204441D01*
X5139690Y3195297D01*
X5112004Y3186153D01*
X5028945Y3186153D01*
X5093715Y3186153D02*
G01*
X5158231Y3084553D01*
X1256690Y5662119D02*
G01*
X1256690Y5468317D01*
X1256690Y5662119D02*
G01*
X1376832Y5662119D01*
X1256690Y5569917D02*
G01*
X1330604Y5569917D01*
X1511706Y5662119D02*
G01*
X1437792Y5468317D01*
X1511706Y5662119D02*
G01*
X1585620Y5468317D01*
X1465478Y5532833D02*
G01*
X1557680Y5532833D01*
X1646580Y5662119D02*
G01*
X1646580Y5468317D01*
X1646580Y5662119D02*
G01*
X1775866Y5468317D01*
X1775866Y5662119D02*
G01*
X1775866Y5468317D01*
X6386832Y4400778D02*
G01*
X6377688Y4419066D01*
X6359146Y4437608D01*
X6340858Y4446752D01*
X6303774Y4446752D01*
X6285232Y4437608D01*
X6266944Y4419066D01*
X6257546Y4400778D01*
X6248402Y4372838D01*
X6248402Y4326864D01*
X6257546Y4299178D01*
X6266944Y4280636D01*
X6285232Y4262094D01*
X6303774Y4252950D01*
X6340858Y4252950D01*
X6359146Y4262094D01*
X6377688Y4280636D01*
X6386832Y4299178D01*
X6386832Y4326864D01*
X6340858Y4326864D02*
G01*
X6386832Y4326864D01*
X6248402Y3887952D02*
G01*
X6248402Y3694150D01*
X6248402Y3887952D02*
G01*
X6313172Y3887952D01*
X6340858Y3878808D01*
X6359146Y3860266D01*
X6368544Y3841978D01*
X6377688Y3814038D01*
X6377688Y3768064D01*
X6368544Y3740378D01*
X6359146Y3721836D01*
X6340858Y3703294D01*
X6313172Y3694150D01*
X6248402Y3694150D01*
X6377688Y3237966D02*
G01*
X6359146Y3256508D01*
X6331460Y3265652D01*
X6294630Y3265652D01*
X6266944Y3256508D01*
X6248402Y3237966D01*
X6248402Y3219678D01*
X6257546Y3201136D01*
X6266944Y3191738D01*
X6285232Y3182594D01*
X6340858Y3164052D01*
X6359146Y3154908D01*
X6368544Y3145764D01*
X6377688Y3127222D01*
X6377688Y3099536D01*
X6359146Y3080994D01*
X6331460Y3071850D01*
X6294630Y3071850D01*
X6266944Y3080994D01*
X6248402Y3099536D01*
X6121389Y356313D02*
G01*
X6121389Y227027D01*
X6121389Y319229D02*
G01*
X6149075Y347169D01*
X6167617Y356313D01*
X6195303Y356313D01*
X6213845Y347169D01*
X6222989Y319229D01*
X6222989Y227027D01*
X6283949Y300941D02*
G01*
X6394693Y300941D01*
X6394693Y319229D01*
X6385549Y337771D01*
X6376405Y347169D01*
X6357863Y356313D01*
X6330177Y356313D01*
X6311635Y347169D01*
X6293093Y328627D01*
X6283949Y300941D01*
X6283949Y282399D01*
X6293093Y254713D01*
X6311635Y236171D01*
X6330177Y227027D01*
X6357863Y227027D01*
X6376405Y236171D01*
X6394693Y254713D01*
X6566651Y356313D02*
G01*
X6566651Y208485D01*
X6557253Y180799D01*
X6548109Y171655D01*
X6529567Y162257D01*
X6501881Y162257D01*
X6483339Y171655D01*
X6566651Y328627D02*
G01*
X6548109Y347169D01*
X6529567Y356313D01*
X6501881Y356313D01*
X6483339Y347169D01*
X6465051Y328627D01*
X6455653Y300941D01*
X6455653Y282399D01*
X6465051Y254713D01*
X6483339Y236171D01*
X6501881Y227027D01*
X6529567Y227027D01*
X6548109Y236171D01*
X6566651Y254713D01*
X6738355Y356313D02*
G01*
X6738355Y227027D01*
X6738355Y328627D02*
G01*
X6719813Y347169D01*
X6701525Y356313D01*
X6673839Y356313D01*
X6655297Y347169D01*
X6636755Y328627D01*
X6627611Y300941D01*
X6627611Y282399D01*
X6636755Y254713D01*
X6655297Y236171D01*
X6673839Y227027D01*
X6701525Y227027D01*
X6719813Y236171D01*
X6738355Y254713D01*
X6827001Y420829D02*
G01*
X6827001Y263857D01*
X6836399Y236171D01*
X6854687Y227027D01*
X6873229Y227027D01*
X6799315Y356313D02*
G01*
X6864085Y356313D01*
X6934189Y420829D02*
G01*
X6943333Y411685D01*
X6952731Y420829D01*
X6943333Y430227D01*
X6934189Y420829D01*
X6943333Y356313D02*
G01*
X6943333Y227027D01*
X7013691Y356313D02*
G01*
X7069063Y227027D01*
X7124435Y356313D02*
G01*
X7069063Y227027D01*
X7185395Y300941D02*
G01*
X7296139Y300941D01*
X7296139Y319229D01*
X7286995Y337771D01*
X7277851Y347169D01*
X7259309Y356313D01*
X7231623Y356313D01*
X7213081Y347169D01*
X7194539Y328627D01*
X7185395Y300941D01*
X7185395Y282399D01*
X7194539Y254713D01*
X7213081Y236171D01*
X7231623Y227027D01*
X7259309Y227027D01*
X7277851Y236171D01*
X7296139Y254713D01*
X863600Y725627D02*
G01*
X909828Y531825D01*
X956055Y725627D02*
G01*
X909828Y531825D01*
X956055Y725627D02*
G01*
X1002029Y531825D01*
X1048257Y725627D02*
G01*
X1002029Y531825D01*
X1109218Y725627D02*
G01*
X1155445Y531825D01*
X1201673Y725627D02*
G01*
X1155445Y531825D01*
X1201673Y725627D02*
G01*
X1247902Y531825D01*
X1294129Y725627D02*
G01*
X1247902Y531825D01*
X1355089Y725627D02*
G01*
X1401063Y531825D01*
X1447292Y725627D02*
G01*
X1401063Y531825D01*
X1447292Y725627D02*
G01*
X1493520Y531825D01*
X1539747Y725627D02*
G01*
X1493520Y531825D01*
X1609852Y578053D02*
G01*
X1600707Y568655D01*
X1609852Y559511D01*
X1619250Y568655D01*
X1609852Y578053D01*
X1680210Y725627D02*
G01*
X1680210Y531825D01*
X1680210Y725627D02*
G01*
X1753870Y531825D01*
X1827784Y725627D02*
G01*
X1753870Y531825D01*
X1827784Y725627D02*
G01*
X1827784Y531825D01*
X1962658Y725627D02*
G01*
X1888743Y531825D01*
X1962658Y725627D02*
G01*
X2036572Y531825D01*
X1916429Y596341D02*
G01*
X2008886Y596341D01*
X2236215Y679653D02*
G01*
X2226818Y697941D01*
X2208529Y716483D01*
X2189988Y725627D01*
X2152904Y725627D01*
X2134615Y716483D01*
X2116074Y697941D01*
X2106929Y679653D01*
X2097531Y651967D01*
X2097531Y605739D01*
X2106929Y578053D01*
X2116074Y559511D01*
X2134615Y540969D01*
X2152904Y531825D01*
X2189988Y531825D01*
X2208529Y540969D01*
X2226818Y559511D01*
X2236215Y578053D01*
X2236215Y605739D01*
X2189988Y605739D02*
G01*
X2236215Y605739D01*
X2426461Y697941D02*
G01*
X2407920Y716483D01*
X2380234Y725627D01*
X2343150Y725627D01*
X2315463Y716483D01*
X2297175Y697941D01*
X2297175Y679653D01*
X2306320Y661111D01*
X2315463Y651967D01*
X2334006Y642569D01*
X2389377Y624027D01*
X2407920Y614883D01*
X2417063Y605739D01*
X2426461Y587197D01*
X2426461Y559511D01*
X2407920Y540969D01*
X2380234Y531825D01*
X2343150Y531825D01*
X2315463Y540969D01*
X2297175Y559511D01*
X2551938Y725627D02*
G01*
X2551938Y531825D01*
X2487422Y725627D02*
G01*
X2616708Y725627D01*
X2751581Y725627D02*
G01*
X2677668Y531825D01*
X2751581Y725627D02*
G01*
X2825495Y531825D01*
X2705354Y596341D02*
G01*
X2797809Y596341D01*
X2886456Y725627D02*
G01*
X2886456Y531825D01*
X2886456Y725627D02*
G01*
X2969513Y725627D01*
X2997200Y716483D01*
X3006343Y707339D01*
X3015741Y688797D01*
X3015741Y670255D01*
X3006343Y651967D01*
X2997200Y642569D01*
X2969513Y633425D01*
X2886456Y633425D01*
X2950972Y633425D02*
G01*
X3015741Y531825D01*
X3085845Y578053D02*
G01*
X3076702Y568655D01*
X3085845Y559511D01*
X3094990Y568655D01*
X3085845Y578053D01*
X3155950Y725627D02*
G01*
X3155950Y531825D01*
X3155950Y725627D02*
G01*
X3276091Y725627D01*
X3155950Y633425D02*
G01*
X3229863Y633425D01*
X3155950Y531825D02*
G01*
X3276091Y531825D01*
X3337052Y725627D02*
G01*
X3337052Y587197D01*
X3346450Y559511D01*
X3364738Y540969D01*
X3392424Y531825D01*
X3410965Y531825D01*
X3438652Y540969D01*
X3457193Y559511D01*
X3466338Y587197D01*
X3466338Y725627D01*
X876300Y458927D02*
G01*
X876300Y265125D01*
X1038860Y366725D02*
G01*
X1029715Y385267D01*
X1002029Y394411D01*
X974089Y394411D01*
X946404Y385267D01*
X937260Y366725D01*
X946404Y348183D01*
X964945Y339039D01*
X1011173Y329641D01*
X1029715Y320497D01*
X1038860Y301955D01*
X1038860Y292811D01*
X1029715Y274269D01*
X1002029Y265125D01*
X974089Y265125D01*
X946404Y274269D01*
X937260Y292811D01*
X1146047Y394411D02*
G01*
X1127505Y385267D01*
X1108963Y366725D01*
X1099820Y339039D01*
X1099820Y320497D01*
X1108963Y292811D01*
X1127505Y274269D01*
X1146047Y265125D01*
X1173734Y265125D01*
X1192276Y274269D01*
X1210563Y292811D01*
X1219962Y320497D01*
X1219962Y339039D01*
X1210563Y366725D01*
X1192276Y385267D01*
X1173734Y394411D01*
X1146047Y394411D01*
X1280921Y458927D02*
G01*
X1280921Y265125D01*
X1452626Y394411D02*
G01*
X1452626Y265125D01*
X1452626Y366725D02*
G01*
X1434084Y385267D01*
X1415795Y394411D01*
X1388110Y394411D01*
X1369568Y385267D01*
X1351026Y366725D01*
X1341881Y339039D01*
X1341881Y320497D01*
X1351026Y292811D01*
X1369568Y274269D01*
X1388110Y265125D01*
X1415795Y265125D01*
X1434084Y274269D01*
X1452626Y292811D01*
X1541271Y458927D02*
G01*
X1541271Y301955D01*
X1550670Y274269D01*
X1568957Y265125D01*
X1587500Y265125D01*
X1513586Y394411D02*
G01*
X1578355Y394411D01*
X1648460Y339039D02*
G01*
X1759204Y339039D01*
X1759204Y357327D01*
X1750060Y375869D01*
X1740915Y385267D01*
X1722373Y394411D01*
X1694687Y394411D01*
X1676145Y385267D01*
X1657604Y366725D01*
X1648460Y339039D01*
X1648460Y320497D01*
X1657604Y292811D01*
X1676145Y274269D01*
X1694687Y265125D01*
X1722373Y265125D01*
X1740915Y274269D01*
X1759204Y292811D01*
X1931161Y458927D02*
G01*
X1931161Y265125D01*
X1931161Y366725D02*
G01*
X1912620Y385267D01*
X1894077Y394411D01*
X1866391Y394411D01*
X1847850Y385267D01*
X1829561Y366725D01*
X1820163Y339039D01*
X1820163Y320497D01*
X1829561Y292811D01*
X1847850Y274269D01*
X1866391Y265125D01*
X1894077Y265125D01*
X1912620Y274269D01*
X1931161Y292811D01*
X2245106Y394411D02*
G01*
X2245106Y246583D01*
X2235961Y218897D01*
X2226563Y209753D01*
X2208275Y200355D01*
X2180590Y200355D01*
X2162047Y209753D01*
X2245106Y366725D02*
G01*
X2226563Y385267D01*
X2208275Y394411D01*
X2180590Y394411D01*
X2162047Y385267D01*
X2143506Y366725D01*
X2134361Y339039D01*
X2134361Y320497D01*
X2143506Y292811D01*
X2162047Y274269D01*
X2180590Y265125D01*
X2208275Y265125D01*
X2226563Y274269D01*
X2245106Y292811D01*
X2416809Y394411D02*
G01*
X2416809Y265125D01*
X2416809Y366725D02*
G01*
X2398522Y385267D01*
X2379979Y394411D01*
X2352293Y394411D01*
X2333752Y385267D01*
X2315209Y366725D01*
X2306065Y339039D01*
X2306065Y320497D01*
X2315209Y292811D01*
X2333752Y274269D01*
X2352293Y265125D01*
X2379979Y265125D01*
X2398522Y274269D01*
X2416809Y292811D01*
X2505709Y458927D02*
G01*
X2505709Y301955D01*
X2514854Y274269D01*
X2533395Y265125D01*
X2551684Y265125D01*
X2477770Y394411D02*
G01*
X2542540Y394411D01*
X2612643Y339039D02*
G01*
X2723641Y339039D01*
X2723641Y357327D01*
X2714243Y375869D01*
X2705100Y385267D01*
X2686558Y394411D01*
X2658872Y394411D01*
X2640329Y385267D01*
X2622041Y366725D01*
X2612643Y339039D01*
X2612643Y320497D01*
X2622041Y292811D01*
X2640329Y274269D01*
X2658872Y265125D01*
X2686558Y265125D01*
X2705100Y274269D01*
X2723641Y292811D01*
X3037586Y458927D02*
G01*
X3037586Y265125D01*
X3037586Y366725D02*
G01*
X3019043Y385267D01*
X3000756Y394411D01*
X2973070Y394411D01*
X2954527Y385267D01*
X2935986Y366725D01*
X2926841Y339039D01*
X2926841Y320497D01*
X2935986Y292811D01*
X2954527Y274269D01*
X2973070Y265125D01*
X3000756Y265125D01*
X3019043Y274269D01*
X3037586Y292811D01*
X3098545Y394411D02*
G01*
X3098545Y265125D01*
X3098545Y339039D02*
G01*
X3107690Y366725D01*
X3126231Y385267D01*
X3144774Y394411D01*
X3172459Y394411D01*
X3233420Y458927D02*
G01*
X3242563Y449783D01*
X3251961Y458927D01*
X3242563Y468325D01*
X3233420Y458927D01*
X3242563Y394411D02*
G01*
X3242563Y265125D01*
X3312922Y394411D02*
G01*
X3368293Y265125D01*
X3423665Y394411D02*
G01*
X3368293Y265125D01*
X3484625Y339039D02*
G01*
X3595370Y339039D01*
X3595370Y357327D01*
X3586225Y375869D01*
X3577081Y385267D01*
X3558540Y394411D01*
X3530854Y394411D01*
X3512311Y385267D01*
X3493770Y366725D01*
X3484625Y339039D01*
X3484625Y320497D01*
X3493770Y292811D01*
X3512311Y274269D01*
X3530854Y265125D01*
X3558540Y265125D01*
X3577081Y274269D01*
X3595370Y292811D01*
X3656329Y394411D02*
G01*
X3656329Y265125D01*
X3656329Y339039D02*
G01*
X3665727Y366725D01*
X3684270Y385267D01*
X3702558Y394411D01*
X3730243Y394411D01*
X3933443Y458927D02*
G01*
X4007358Y265125D01*
X4081272Y458927D02*
G01*
X4007358Y265125D01*
X4253229Y431241D02*
G01*
X4243831Y449783D01*
X4216145Y458927D01*
X4197604Y458927D01*
X4169918Y449783D01*
X4151629Y422097D01*
X4142231Y375869D01*
X4142231Y329641D01*
X4151629Y292811D01*
X4169918Y274269D01*
X4197604Y265125D01*
X4207002Y265125D01*
X4234688Y274269D01*
X4253229Y292811D01*
X4262374Y320497D01*
X4262374Y329641D01*
X4253229Y357327D01*
X4234688Y375869D01*
X4207002Y385267D01*
X4197604Y385267D01*
X4169918Y375869D01*
X4151629Y357327D01*
X4142231Y329641D01*
X4332477Y311353D02*
G01*
X4323334Y301955D01*
X4332477Y292811D01*
X4341875Y301955D01*
X4332477Y311353D01*
X4411979Y412953D02*
G01*
X4411979Y422097D01*
X4421124Y440639D01*
X4430522Y449783D01*
X4448809Y458927D01*
X4485893Y458927D01*
X4504436Y449783D01*
X4513579Y440639D01*
X4522724Y422097D01*
X4522724Y403555D01*
X4513579Y385267D01*
X4495038Y357327D01*
X4402836Y265125D01*
X4532122Y265125D01*
X5905500Y2440127D02*
G01*
X5951727Y2246325D01*
X5997956Y2440127D02*
G01*
X5951727Y2246325D01*
X5997956Y2440127D02*
G01*
X6043929Y2246325D01*
X6090158Y2440127D02*
G01*
X6043929Y2246325D01*
X6197345Y2375611D02*
G01*
X6178804Y2366467D01*
X6160515Y2347925D01*
X6151118Y2320239D01*
X6151118Y2301697D01*
X6160515Y2274011D01*
X6178804Y2255469D01*
X6197345Y2246325D01*
X6225031Y2246325D01*
X6243574Y2255469D01*
X6262115Y2274011D01*
X6271259Y2301697D01*
X6271259Y2320239D01*
X6262115Y2347925D01*
X6243574Y2366467D01*
X6225031Y2375611D01*
X6197345Y2375611D01*
X6332220Y2440127D02*
G01*
X6332220Y2246325D01*
X6467093Y2440127D02*
G01*
X6448552Y2440127D01*
X6430009Y2430983D01*
X6420865Y2403297D01*
X6420865Y2246325D01*
X6393179Y2375611D02*
G01*
X6457950Y2375611D01*
X6629654Y2347925D02*
G01*
X6620509Y2366467D01*
X6592570Y2375611D01*
X6564884Y2375611D01*
X6537197Y2366467D01*
X6528054Y2347925D01*
X6537197Y2329383D01*
X6555740Y2320239D01*
X6601968Y2310841D01*
X6620509Y2301697D01*
X6629654Y2283155D01*
X6629654Y2274011D01*
X6620509Y2255469D01*
X6592570Y2246325D01*
X6564884Y2246325D01*
X6537197Y2255469D01*
X6528054Y2274011D01*
X6690613Y2375611D02*
G01*
X6690613Y2181555D01*
X6690613Y2347925D02*
G01*
X6709156Y2366467D01*
X6727443Y2375611D01*
X6755129Y2375611D01*
X6773672Y2366467D01*
X6792213Y2347925D01*
X6801358Y2320239D01*
X6801358Y2301697D01*
X6792213Y2274011D01*
X6773672Y2255469D01*
X6755129Y2246325D01*
X6727443Y2246325D01*
X6709156Y2255469D01*
X6690613Y2274011D01*
X6862318Y2320239D02*
G01*
X6973315Y2320239D01*
X6973315Y2338527D01*
X6963918Y2357069D01*
X6954774Y2366467D01*
X6936231Y2375611D01*
X6908545Y2375611D01*
X6890004Y2366467D01*
X6871715Y2347925D01*
X6862318Y2320239D01*
X6862318Y2301697D01*
X6871715Y2274011D01*
X6890004Y2255469D01*
X6908545Y2246325D01*
X6936231Y2246325D01*
X6954774Y2255469D01*
X6973315Y2274011D01*
X7034275Y2320239D02*
G01*
X7145020Y2320239D01*
X7145020Y2338527D01*
X7135875Y2357069D01*
X7126477Y2366467D01*
X7108190Y2375611D01*
X7080250Y2375611D01*
X7061961Y2366467D01*
X7043420Y2347925D01*
X7034275Y2320239D01*
X7034275Y2301697D01*
X7043420Y2274011D01*
X7061961Y2255469D01*
X7080250Y2246325D01*
X7108190Y2246325D01*
X7126477Y2255469D01*
X7145020Y2274011D01*
X7316724Y2440127D02*
G01*
X7316724Y2246325D01*
X7316724Y2347925D02*
G01*
X7298436Y2366467D01*
X7279893Y2375611D01*
X7252208Y2375611D01*
X7233665Y2366467D01*
X7215124Y2347925D01*
X7205979Y2320239D01*
X7205979Y2301697D01*
X7215124Y2274011D01*
X7233665Y2255469D01*
X7252208Y2246325D01*
X7279893Y2246325D01*
X7298436Y2255469D01*
X7316724Y2274011D01*
X6047486Y2056841D02*
G01*
X6028943Y2075383D01*
X6001258Y2084527D01*
X5964427Y2084527D01*
X5936741Y2075383D01*
X5918200Y2056841D01*
X5918200Y2038553D01*
X5927343Y2020011D01*
X5936741Y2010867D01*
X5955029Y2001469D01*
X6010656Y1982927D01*
X6028943Y1973783D01*
X6038341Y1964639D01*
X6047486Y1946097D01*
X6047486Y1918411D01*
X6028943Y1899869D01*
X6001258Y1890725D01*
X5964427Y1890725D01*
X5936741Y1899869D01*
X5918200Y1918411D01*
X6108445Y2084527D02*
G01*
X6117590Y2075383D01*
X6126988Y2084527D01*
X6117590Y2093925D01*
X6108445Y2084527D01*
X6117590Y2020011D02*
G01*
X6117590Y1890725D01*
X6326377Y2038553D02*
G01*
X6317234Y2056841D01*
X6298691Y2075383D01*
X6280150Y2084527D01*
X6243320Y2084527D01*
X6224777Y2075383D01*
X6206490Y2056841D01*
X6197091Y2038553D01*
X6187947Y2010867D01*
X6187947Y1964639D01*
X6197091Y1936953D01*
X6206490Y1918411D01*
X6224777Y1899869D01*
X6243320Y1890725D01*
X6280150Y1890725D01*
X6298691Y1899869D01*
X6317234Y1918411D01*
X6326377Y1936953D01*
X6529577Y2084527D02*
G01*
X6529577Y1890725D01*
X6529577Y2084527D02*
G01*
X6603491Y1890725D01*
X6677406Y2084527D02*
G01*
X6603491Y1890725D01*
X6677406Y2084527D02*
G01*
X6677406Y1890725D01*
X6793738Y2084527D02*
G01*
X6775450Y2075383D01*
X6756908Y2056841D01*
X6747509Y2038553D01*
X6738365Y2010867D01*
X6738365Y1964639D01*
X6747509Y1936953D01*
X6756908Y1918411D01*
X6775450Y1899869D01*
X6793738Y1890725D01*
X6830822Y1890725D01*
X6849109Y1899869D01*
X6867652Y1918411D01*
X6877050Y1936953D01*
X6886193Y1964639D01*
X6886193Y2010867D01*
X6877050Y2038553D01*
X6867652Y2056841D01*
X6849109Y2075383D01*
X6830822Y2084527D01*
X6793738Y2084527D01*
X7076440Y2056841D02*
G01*
X7057897Y2075383D01*
X7030211Y2084527D01*
X6993381Y2084527D01*
X6965695Y2075383D01*
X6947154Y2056841D01*
X6947154Y2038553D01*
X6956297Y2020011D01*
X6965695Y2010867D01*
X6983984Y2001469D01*
X7039609Y1982927D01*
X7057897Y1973783D01*
X7067295Y1964639D01*
X7076440Y1946097D01*
X7076440Y1918411D01*
X7057897Y1899869D01*
X7030211Y1890725D01*
X6993381Y1890725D01*
X6965695Y1899869D01*
X6947154Y1918411D01*
X7137400Y2084527D02*
G01*
X7137400Y1890725D01*
X7137400Y2084527D02*
G01*
X7257541Y2084527D01*
X7137400Y1992325D02*
G01*
X7211313Y1992325D01*
X7318502Y2084527D02*
G01*
X7318502Y1890725D01*
X7318502Y2084527D02*
G01*
X7438390Y2084527D01*
X7318502Y1992325D02*
G01*
X7392415Y1992325D01*
X7318502Y1890725D02*
G01*
X7438390Y1890725D01*
X7564120Y2084527D02*
G01*
X7564120Y1890725D01*
X7499350Y2084527D02*
G01*
X7628890Y2084527D01*
X6299200Y6973011D02*
G01*
X6299200Y6778955D01*
X6299200Y6945325D02*
G01*
X6317741Y6963867D01*
X6336029Y6973011D01*
X6363970Y6973011D01*
X6382258Y6963867D01*
X6400800Y6945325D01*
X6409943Y6917639D01*
X6409943Y6899097D01*
X6400800Y6871411D01*
X6382258Y6852869D01*
X6363970Y6843725D01*
X6336029Y6843725D01*
X6317741Y6852869D01*
X6299200Y6871411D01*
X6517131Y6973011D02*
G01*
X6498590Y6963867D01*
X6480302Y6945325D01*
X6470904Y6917639D01*
X6470904Y6899097D01*
X6480302Y6871411D01*
X6498590Y6852869D01*
X6517131Y6843725D01*
X6544818Y6843725D01*
X6563359Y6852869D01*
X6581902Y6871411D01*
X6591045Y6899097D01*
X6591045Y6917639D01*
X6581902Y6945325D01*
X6563359Y6963867D01*
X6544818Y6973011D01*
X6517131Y6973011D01*
X6753606Y6945325D02*
G01*
X6744461Y6963867D01*
X6716775Y6973011D01*
X6689090Y6973011D01*
X6661150Y6963867D01*
X6652006Y6945325D01*
X6661150Y6926783D01*
X6679691Y6917639D01*
X6725920Y6908241D01*
X6744461Y6899097D01*
X6753606Y6880555D01*
X6753606Y6871411D01*
X6744461Y6852869D01*
X6716775Y6843725D01*
X6689090Y6843725D01*
X6661150Y6852869D01*
X6652006Y6871411D01*
X6814565Y7037527D02*
G01*
X6823709Y7028383D01*
X6833108Y7037527D01*
X6823709Y7046925D01*
X6814565Y7037527D01*
X6823709Y6973011D02*
G01*
X6823709Y6843725D01*
X6921754Y7037527D02*
G01*
X6921754Y6880555D01*
X6930897Y6852869D01*
X6949440Y6843725D01*
X6967981Y6843725D01*
X6894068Y6973011D02*
G01*
X6958584Y6973011D01*
X7028941Y7037527D02*
G01*
X7038086Y7028383D01*
X7047229Y7037527D01*
X7038086Y7046925D01*
X7028941Y7037527D01*
X7038086Y6973011D02*
G01*
X7038086Y6843725D01*
X7108190Y6973011D02*
G01*
X7163815Y6843725D01*
X7219188Y6973011D02*
G01*
X7163815Y6843725D01*
X7280147Y6917639D02*
G01*
X7390891Y6917639D01*
X7390891Y6935927D01*
X7381747Y6954469D01*
X7372350Y6963867D01*
X7354061Y6973011D01*
X7326375Y6973011D01*
X7307834Y6963867D01*
X7289291Y6945325D01*
X7280147Y6917639D01*
X7280147Y6899097D01*
X7289291Y6871411D01*
X7307834Y6852869D01*
X7326375Y6843725D01*
X7354061Y6843725D01*
X7372350Y6852869D01*
X7390891Y6871411D01*
X1333500Y6605727D02*
G01*
X1333500Y6411925D01*
X1394460Y6541211D02*
G01*
X1449831Y6411925D01*
X1505204Y6541211D02*
G01*
X1449831Y6411925D01*
X1612392Y6541211D02*
G01*
X1593850Y6532067D01*
X1575562Y6513525D01*
X1566163Y6485839D01*
X1566163Y6467297D01*
X1575562Y6439611D01*
X1593850Y6421069D01*
X1612392Y6411925D01*
X1640078Y6411925D01*
X1658620Y6421069D01*
X1677162Y6439611D01*
X1686305Y6467297D01*
X1686305Y6485839D01*
X1677162Y6513525D01*
X1658620Y6532067D01*
X1640078Y6541211D01*
X1612392Y6541211D01*
X1898650Y6559753D02*
G01*
X1898650Y6568897D01*
X1908047Y6587439D01*
X1917191Y6596583D01*
X1935734Y6605727D01*
X1972563Y6605727D01*
X1991106Y6596583D01*
X2000250Y6587439D01*
X2009647Y6568897D01*
X2009647Y6550355D01*
X2000250Y6532067D01*
X1981961Y6504127D01*
X1889506Y6411925D01*
X2018791Y6411925D01*
X2135124Y6605727D02*
G01*
X2107438Y6596583D01*
X2089150Y6568897D01*
X2079752Y6522669D01*
X2079752Y6494983D01*
X2089150Y6448755D01*
X2107438Y6421069D01*
X2135124Y6411925D01*
X2153665Y6411925D01*
X2181352Y6421069D01*
X2199893Y6448755D01*
X2209038Y6494983D01*
X2209038Y6522669D01*
X2199893Y6568897D01*
X2181352Y6596583D01*
X2153665Y6605727D01*
X2135124Y6605727D01*
X2279395Y6559753D02*
G01*
X2279395Y6568897D01*
X2288540Y6587439D01*
X2297684Y6596583D01*
X2316225Y6605727D01*
X2353309Y6605727D01*
X2371597Y6596583D01*
X2380995Y6587439D01*
X2390140Y6568897D01*
X2390140Y6550355D01*
X2380995Y6532067D01*
X2362454Y6504127D01*
X2269997Y6411925D01*
X2399284Y6411925D01*
X2478786Y6605727D02*
G01*
X2580386Y6605727D01*
X2525013Y6532067D01*
X2552700Y6532067D01*
X2571241Y6522669D01*
X2580386Y6513525D01*
X2589529Y6485839D01*
X2589529Y6467297D01*
X2580386Y6439611D01*
X2561843Y6421069D01*
X2534158Y6411925D01*
X2506472Y6411925D01*
X2478786Y6421069D01*
X2469641Y6430467D01*
X2460243Y6448755D01*
X1241044Y6948627D02*
G01*
X1241044Y6754825D01*
X1241044Y6856425D02*
G01*
X1222755Y6874967D01*
X1204213Y6884111D01*
X1176528Y6884111D01*
X1157986Y6874967D01*
X1139444Y6856425D01*
X1130300Y6828739D01*
X1130300Y6810197D01*
X1139444Y6782511D01*
X1157986Y6763969D01*
X1176528Y6754825D01*
X1204213Y6754825D01*
X1222755Y6763969D01*
X1241044Y6782511D01*
X1302004Y6828739D02*
G01*
X1413002Y6828739D01*
X1413002Y6847027D01*
X1403604Y6865569D01*
X1394460Y6874967D01*
X1375918Y6884111D01*
X1348231Y6884111D01*
X1329689Y6874967D01*
X1311402Y6856425D01*
X1302004Y6828739D01*
X1302004Y6810197D01*
X1311402Y6782511D01*
X1329689Y6763969D01*
X1348231Y6754825D01*
X1375918Y6754825D01*
X1394460Y6763969D01*
X1413002Y6782511D01*
X1575562Y6856425D02*
G01*
X1566163Y6874967D01*
X1538478Y6884111D01*
X1510792Y6884111D01*
X1483105Y6874967D01*
X1473962Y6856425D01*
X1483105Y6837883D01*
X1501647Y6828739D01*
X1547876Y6819341D01*
X1566163Y6810197D01*
X1575562Y6791655D01*
X1575562Y6782511D01*
X1566163Y6763969D01*
X1538478Y6754825D01*
X1510792Y6754825D01*
X1483105Y6763969D01*
X1473962Y6782511D01*
X1636521Y6948627D02*
G01*
X1645665Y6939483D01*
X1654810Y6948627D01*
X1645665Y6958025D01*
X1636521Y6948627D01*
X1645665Y6884111D02*
G01*
X1645665Y6754825D01*
X1826768Y6884111D02*
G01*
X1826768Y6736283D01*
X1817370Y6708597D01*
X1808225Y6699453D01*
X1789684Y6690055D01*
X1761997Y6690055D01*
X1743710Y6699453D01*
X1826768Y6856425D02*
G01*
X1808225Y6874967D01*
X1789684Y6884111D01*
X1761997Y6884111D01*
X1743710Y6874967D01*
X1725168Y6856425D01*
X1715770Y6828739D01*
X1715770Y6810197D01*
X1725168Y6782511D01*
X1743710Y6763969D01*
X1761997Y6754825D01*
X1789684Y6754825D01*
X1808225Y6763969D01*
X1826768Y6782511D01*
X1887727Y6884111D02*
G01*
X1887727Y6754825D01*
X1887727Y6847027D02*
G01*
X1915413Y6874967D01*
X1933956Y6884111D01*
X1961641Y6884111D01*
X1979929Y6874967D01*
X1989327Y6847027D01*
X1989327Y6754825D01*
X2050288Y6828739D02*
G01*
X2161031Y6828739D01*
X2161031Y6847027D01*
X2151888Y6865569D01*
X2142490Y6874967D01*
X2124202Y6884111D01*
X2096515Y6884111D01*
X2077974Y6874967D01*
X2059431Y6856425D01*
X2050288Y6828739D01*
X2050288Y6810197D01*
X2059431Y6782511D01*
X2077974Y6763969D01*
X2096515Y6754825D01*
X2124202Y6754825D01*
X2142490Y6763969D01*
X2161031Y6782511D01*
X2332990Y6948627D02*
G01*
X2332990Y6754825D01*
X2332990Y6856425D02*
G01*
X2314447Y6874967D01*
X2295906Y6884111D01*
X2268220Y6884111D01*
X2249677Y6874967D01*
X2231390Y6856425D01*
X2221991Y6828739D01*
X2221991Y6810197D01*
X2231390Y6782511D01*
X2249677Y6763969D01*
X2268220Y6754825D01*
X2295906Y6754825D01*
X2314447Y6763969D01*
X2332990Y6782511D01*
X2536190Y6948627D02*
G01*
X2536190Y6754825D01*
X2536190Y6856425D02*
G01*
X2554477Y6874967D01*
X2573020Y6884111D01*
X2600706Y6884111D01*
X2619247Y6874967D01*
X2637790Y6856425D01*
X2646934Y6828739D01*
X2646934Y6810197D01*
X2637790Y6782511D01*
X2619247Y6763969D01*
X2600706Y6754825D01*
X2573020Y6754825D01*
X2554477Y6763969D01*
X2536190Y6782511D01*
X2717038Y6884111D02*
G01*
X2772409Y6754825D01*
X2828036Y6884111D02*
G01*
X2772409Y6754825D01*
X2754122Y6717741D01*
X2735579Y6699453D01*
X2717038Y6690055D01*
X2707893Y6690055D01*
D11*
X1040892Y964641D02*
G01*
X1040892Y855421D01*
X1040892Y855421D02*
G01*
X1103121Y855421D01*
X1137412Y943813D02*
G01*
X1147826Y948893D01*
X1163320Y964641D01*
X1163320Y855421D01*
X1316847Y6106797D02*
G01*
X1316847Y6013325D01*
X1270111Y6060061D02*
G01*
X1363583Y6060061D01*
X1397873Y6101717D02*
G01*
X1408287Y6106797D01*
X1423781Y6122545D01*
X1423781Y6013325D01*
X1463151Y6096383D02*
G01*
X1463151Y6101717D01*
X1468485Y6112131D01*
X1473565Y6117211D01*
X1483979Y6122545D01*
X1504807Y6122545D01*
X1515221Y6117211D01*
X1520301Y6112131D01*
X1525635Y6101717D01*
X1525635Y6091303D01*
X1520301Y6080889D01*
X1510141Y6065395D01*
X1458071Y6013325D01*
X1530715Y6013325D01*
X1565005Y6122545D02*
G01*
X1606661Y6013325D01*
X1648317Y6122545D02*
G01*
X1606661Y6013325D01*
X1377299Y5157345D02*
G01*
X1361805Y5152011D01*
X1351391Y5136517D01*
X1346311Y5110355D01*
X1346311Y5094861D01*
X1351391Y5068953D01*
X1361805Y5053205D01*
X1377299Y5048125D01*
X1387713Y5048125D01*
X1403461Y5053205D01*
X1413621Y5068953D01*
X1418955Y5094861D01*
X1418955Y5110355D01*
X1413621Y5136517D01*
X1403461Y5152011D01*
X1387713Y5157345D01*
X1377299Y5157345D01*
X1453245Y5157345D02*
G01*
X1494901Y5048125D01*
X1536303Y5157345D02*
G01*
X1494901Y5048125D01*
X1434480Y3928313D02*
G01*
X1434480Y3819347D01*
X1434480Y3928313D02*
G01*
X1481216Y3928313D01*
X1496710Y3923233D01*
X1502044Y3917899D01*
X1507124Y3907485D01*
X1507124Y3891991D01*
X1502044Y3881577D01*
X1496710Y3876497D01*
X1481216Y3871163D01*
X1434480Y3871163D01*
X1541414Y3907485D02*
G01*
X1551828Y3912819D01*
X1567576Y3928313D01*
X1567576Y3819347D01*
X1632854Y3928313D02*
G01*
X1617360Y3923233D01*
X1606946Y3907485D01*
X1601866Y3881577D01*
X1601866Y3866083D01*
X1606946Y3839921D01*
X1617360Y3824427D01*
X1632854Y3819347D01*
X1643268Y3819347D01*
X1659016Y3824427D01*
X1669430Y3839921D01*
X1674510Y3866083D01*
X1674510Y3881577D01*
X1669430Y3907485D01*
X1659016Y3923233D01*
X1643268Y3928313D01*
X1632854Y3928313D01*
X1447180Y4182313D02*
G01*
X1447180Y4073347D01*
X1447180Y4182313D02*
G01*
X1493916Y4182313D01*
X1509410Y4177233D01*
X1514744Y4171899D01*
X1519824Y4161485D01*
X1519824Y4145991D01*
X1514744Y4135577D01*
X1509410Y4130497D01*
X1493916Y4125163D01*
X1447180Y4125163D01*
X1621678Y4145991D02*
G01*
X1616598Y4130497D01*
X1606184Y4120083D01*
X1590690Y4114749D01*
X1585356Y4114749D01*
X1569862Y4120083D01*
X1559448Y4130497D01*
X1554114Y4145991D01*
X1554114Y4151071D01*
X1559448Y4166819D01*
X1569862Y4177233D01*
X1585356Y4182313D01*
X1590690Y4182313D01*
X1606184Y4177233D01*
X1616598Y4166819D01*
X1621678Y4145991D01*
X1621678Y4120083D01*
X1616598Y4093921D01*
X1606184Y4078427D01*
X1590690Y4073347D01*
X1580276Y4073347D01*
X1564528Y4078427D01*
X1559448Y4088841D01*
X2363977Y6020307D02*
G01*
X2358643Y6030721D01*
X2348229Y6041135D01*
X2338070Y6046215D01*
X2317241Y6046215D01*
X2306827Y6041135D01*
X2296413Y6030721D01*
X2291079Y6020307D01*
X2286000Y6004560D01*
X2286000Y5978652D01*
X2291079Y5963157D01*
X2296413Y5952744D01*
X2306827Y5942329D01*
X2317241Y5937250D01*
X2338070Y5937250D01*
X2348229Y5942329D01*
X2358643Y5952744D01*
X2363977Y5963157D01*
X2470911Y6046215D02*
G01*
X2419095Y5937250D01*
X2398268Y6046215D02*
G01*
X2470911Y6046215D01*
X4238927Y2868609D02*
G01*
X4233847Y2879023D01*
X4223433Y2889437D01*
X4213019Y2894517D01*
X4192191Y2894517D01*
X4181777Y2889437D01*
X4171617Y2879023D01*
X4166283Y2868609D01*
X4161203Y2852861D01*
X4161203Y2826953D01*
X4166283Y2811459D01*
X4171617Y2801045D01*
X4181777Y2790631D01*
X4192191Y2785551D01*
X4213019Y2785551D01*
X4223433Y2790631D01*
X4233847Y2801045D01*
X4238927Y2811459D01*
X4278551Y2868609D02*
G01*
X4278551Y2873689D01*
X4283631Y2884103D01*
X4288965Y2889437D01*
X4299379Y2894517D01*
X4320207Y2894517D01*
X4330367Y2889437D01*
X4335701Y2884103D01*
X4340781Y2873689D01*
X4340781Y2863275D01*
X4335701Y2852861D01*
X4325287Y2837367D01*
X4273217Y2785551D01*
X4346115Y2785551D01*
X1322578Y1969007D02*
G01*
X1317244Y1979421D01*
X1306829Y1989835D01*
X1296670Y1994915D01*
X1275842Y1994915D01*
X1265428Y1989835D01*
X1255013Y1979421D01*
X1249679Y1969007D01*
X1244600Y1953260D01*
X1244600Y1927352D01*
X1249679Y1911857D01*
X1255013Y1901444D01*
X1265428Y1891029D01*
X1275842Y1885950D01*
X1296670Y1885950D01*
X1306829Y1891029D01*
X1317244Y1901444D01*
X1322578Y1911857D01*
X1361947Y1969007D02*
G01*
X1361947Y1974087D01*
X1367281Y1984502D01*
X1372362Y1989835D01*
X1382776Y1994915D01*
X1403604Y1994915D01*
X1414018Y1989835D01*
X1419097Y1984502D01*
X1424431Y1974087D01*
X1424431Y1963673D01*
X1419097Y1953260D01*
X1408684Y1937765D01*
X1356868Y1885950D01*
X1429512Y1885950D01*
X1495044Y1994915D02*
G01*
X1479550Y1989835D01*
X1469136Y1974087D01*
X1463802Y1948179D01*
X1463802Y1932685D01*
X1469136Y1906523D01*
X1479550Y1891029D01*
X1495044Y1885950D01*
X1505457Y1885950D01*
X1520952Y1891029D01*
X1531365Y1906523D01*
X1536700Y1932685D01*
X1536700Y1948179D01*
X1531365Y1974087D01*
X1520952Y1989835D01*
X1505457Y1994915D01*
X1495044Y1994915D01*
X4304936Y4433011D02*
G01*
X4299856Y4443425D01*
X4289442Y4453839D01*
X4279028Y4458919D01*
X4258200Y4458919D01*
X4247786Y4453839D01*
X4237626Y4443425D01*
X4232292Y4433011D01*
X4227212Y4417263D01*
X4227212Y4391355D01*
X4232292Y4375861D01*
X4237626Y4365447D01*
X4247786Y4355033D01*
X4258200Y4349953D01*
X4279028Y4349953D01*
X4289442Y4355033D01*
X4299856Y4365447D01*
X4304936Y4375861D01*
X4401710Y4443425D02*
G01*
X4396376Y4453839D01*
X4380882Y4458919D01*
X4370468Y4458919D01*
X4354974Y4453839D01*
X4344560Y4438091D01*
X4339226Y4412183D01*
X4339226Y4386275D01*
X4344560Y4365447D01*
X4354974Y4355033D01*
X4370468Y4349953D01*
X4375802Y4349953D01*
X4391296Y4355033D01*
X4401710Y4365447D01*
X4406790Y4380941D01*
X4406790Y4386275D01*
X4401710Y4401769D01*
X4391296Y4412183D01*
X4375802Y4417263D01*
X4370468Y4417263D01*
X4354974Y4412183D01*
X4344560Y4401769D01*
X4339226Y4386275D01*
X2375915Y4187647D02*
G01*
X2370836Y4198061D01*
X2360422Y4208475D01*
X2350008Y4213555D01*
X2329179Y4213555D01*
X2318765Y4208475D01*
X2308606Y4198061D01*
X2303272Y4187647D01*
X2298191Y4172153D01*
X2298191Y4145991D01*
X2303272Y4130497D01*
X2308606Y4120083D01*
X2318765Y4109669D01*
X2329179Y4104589D01*
X2350008Y4104589D01*
X2360422Y4109669D01*
X2370836Y4120083D01*
X2375915Y4130497D01*
X2436368Y4213555D02*
G01*
X2420620Y4208475D01*
X2415540Y4198061D01*
X2415540Y4187647D01*
X2420620Y4177233D01*
X2431034Y4172153D01*
X2451861Y4166819D01*
X2467356Y4161739D01*
X2477770Y4151325D01*
X2483104Y4140911D01*
X2483104Y4125163D01*
X2477770Y4115003D01*
X2472690Y4109669D01*
X2457195Y4104589D01*
X2436368Y4104589D01*
X2420620Y4109669D01*
X2415540Y4115003D01*
X2410206Y4125163D01*
X2410206Y4140911D01*
X2415540Y4151325D01*
X2425954Y4161739D01*
X2441447Y4166819D01*
X2462275Y4172153D01*
X2472690Y4177233D01*
X2477770Y4187647D01*
X2477770Y4198061D01*
X2472690Y4208475D01*
X2457195Y4213555D01*
X2436368Y4213555D01*
X2641600Y5462015D02*
G01*
X2641600Y5384037D01*
X2646679Y5368544D01*
X2657093Y5358129D01*
X2672841Y5353050D01*
X2683256Y5353050D01*
X2698750Y5358129D01*
X2709163Y5368544D01*
X2714243Y5384037D01*
X2714243Y5462015D01*
X2758947Y5462015D02*
G01*
X2816097Y5462015D01*
X2785109Y5420360D01*
X2800604Y5420360D01*
X2811018Y5415279D01*
X2816097Y5410200D01*
X2821431Y5394452D01*
X2821431Y5384037D01*
X2816097Y5368544D01*
X2805684Y5358129D01*
X2790190Y5353050D01*
X2774695Y5353050D01*
X2758947Y5358129D01*
X2753868Y5363210D01*
X2748534Y5373623D01*
X4713325Y5944082D02*
G01*
X4708245Y5954496D01*
X4697831Y5964910D01*
X4687417Y5969990D01*
X4666589Y5969990D01*
X4656175Y5964910D01*
X4646015Y5954496D01*
X4640681Y5944082D01*
X4635601Y5928588D01*
X4635601Y5902426D01*
X4640681Y5886932D01*
X4646015Y5876518D01*
X4656175Y5866104D01*
X4666589Y5861024D01*
X4687417Y5861024D01*
X4697831Y5866104D01*
X4708245Y5876518D01*
X4713325Y5886932D01*
X4815179Y5933668D02*
G01*
X4810099Y5918174D01*
X4799685Y5907760D01*
X4784191Y5902426D01*
X4778857Y5902426D01*
X4763363Y5907760D01*
X4752949Y5918174D01*
X4747615Y5933668D01*
X4747615Y5938748D01*
X4752949Y5954496D01*
X4763363Y5964910D01*
X4778857Y5969990D01*
X4784191Y5969990D01*
X4799685Y5964910D01*
X4810099Y5954496D01*
X4815179Y5933668D01*
X4815179Y5907760D01*
X4810099Y5881598D01*
X4799685Y5866104D01*
X4784191Y5861024D01*
X4773777Y5861024D01*
X4758029Y5866104D01*
X4752949Y5876518D01*
X4153915Y1603705D02*
G01*
X4148836Y1614119D01*
X4138422Y1624533D01*
X4128008Y1629613D01*
X4107179Y1629613D01*
X4096765Y1624533D01*
X4086606Y1614119D01*
X4081272Y1603705D01*
X4076191Y1587957D01*
X4076191Y1562049D01*
X4081272Y1546555D01*
X4086606Y1536141D01*
X4096765Y1525727D01*
X4107179Y1520647D01*
X4128008Y1520647D01*
X4138422Y1525727D01*
X4148836Y1536141D01*
X4153915Y1546555D01*
X4188206Y1608785D02*
G01*
X4198620Y1614119D01*
X4214368Y1629613D01*
X4214368Y1520647D01*
X4279645Y1629613D02*
G01*
X4264152Y1624533D01*
X4253738Y1608785D01*
X4248658Y1582877D01*
X4248658Y1567383D01*
X4253738Y1541221D01*
X4264152Y1525727D01*
X4279645Y1520647D01*
X4290059Y1520647D01*
X4305808Y1525727D01*
X4316222Y1541221D01*
X4321302Y1567383D01*
X4321302Y1582877D01*
X4316222Y1608785D01*
X4305808Y1624533D01*
X4290059Y1629613D01*
X4279645Y1629613D01*
X4762500Y4191965D02*
G01*
X4762500Y4082999D01*
X4762500Y4191965D02*
G01*
X4809236Y4191965D01*
X4824729Y4186885D01*
X4830063Y4181551D01*
X4835143Y4171137D01*
X4835143Y4160977D01*
X4830063Y4150563D01*
X4824729Y4145229D01*
X4809236Y4140149D01*
X4762500Y4140149D01*
X4798822Y4140149D02*
G01*
X4835143Y4082999D01*
X4869434Y4171137D02*
G01*
X4879847Y4176471D01*
X4895595Y4191965D01*
X4895595Y4082999D01*
X4787900Y3874465D02*
G01*
X4787900Y3765499D01*
X4787900Y3874465D02*
G01*
X4834636Y3874465D01*
X4850129Y3869385D01*
X4855463Y3864051D01*
X4860543Y3853637D01*
X4860543Y3843477D01*
X4855463Y3833063D01*
X4850129Y3827729D01*
X4834636Y3822649D01*
X4787900Y3822649D01*
X4824222Y3822649D02*
G01*
X4860543Y3765499D01*
X4900168Y3848557D02*
G01*
X4900168Y3853637D01*
X4905247Y3864051D01*
X4910581Y3869385D01*
X4920995Y3874465D01*
X4941570Y3874465D01*
X4951984Y3869385D01*
X4957318Y3864051D01*
X4962397Y3853637D01*
X4962397Y3843477D01*
X4957318Y3833063D01*
X4946904Y3817315D01*
X4894834Y3765499D01*
X4967731Y3765499D01*
X306578Y3086607D02*
G01*
X301244Y3097021D01*
X290829Y3107435D01*
X280670Y3112515D01*
X259842Y3112515D01*
X249428Y3107435D01*
X239013Y3097021D01*
X233679Y3086607D01*
X228600Y3070860D01*
X228600Y3044952D01*
X233679Y3029457D01*
X239013Y3019044D01*
X249428Y3008629D01*
X259842Y3003550D01*
X280670Y3003550D01*
X290829Y3008629D01*
X301244Y3019044D01*
X306578Y3029457D01*
X345947Y3086607D02*
G01*
X345947Y3091687D01*
X351281Y3102102D01*
X356362Y3107435D01*
X366776Y3112515D01*
X387604Y3112515D01*
X398018Y3107435D01*
X403097Y3102102D01*
X408431Y3091687D01*
X408431Y3081273D01*
X403097Y3070860D01*
X392684Y3055365D01*
X340868Y3003550D01*
X413512Y3003550D01*
X510286Y3112515D02*
G01*
X458215Y3112515D01*
X453136Y3065779D01*
X458215Y3070860D01*
X473710Y3076194D01*
X489457Y3076194D01*
X504952Y3070860D01*
X515365Y3060700D01*
X520700Y3044952D01*
X520700Y3034537D01*
X515365Y3019044D01*
X504952Y3008629D01*
X489457Y3003550D01*
X473710Y3003550D01*
X458215Y3008629D01*
X453136Y3013710D01*
X447802Y3024123D01*
G36*
X4292600Y6014974D02*
G01*
X4276902Y6014567D01*
X4261256Y6013348D01*
X4245660Y6011316D01*
X4230217Y6008420D01*
X4214977Y6004763D01*
X4199890Y6000292D01*
X4192473Y5997803D01*
X4177792Y5992164D01*
X4163466Y5985764D01*
X4149445Y5978652D01*
X4135831Y5970778D01*
X4122674Y5962243D01*
X4109974Y5952998D01*
X4097782Y5943142D01*
X4086098Y5932627D01*
X4074972Y5921502D01*
X4064457Y5909818D01*
X4054601Y5897626D01*
X4045356Y5884926D01*
X4036822Y5871768D01*
X4028948Y5858154D01*
X4021836Y5844133D01*
X4015435Y5829808D01*
X4009796Y5815126D01*
X4004970Y5800191D01*
X4000906Y5785053D01*
X3997604Y5769660D01*
X3995165Y5754166D01*
X3993540Y5738520D01*
X3992727Y5722874D01*
X3992727Y5707126D01*
X3993540Y5691479D01*
X3995165Y5675833D01*
X3997604Y5660339D01*
X4000906Y5644946D01*
X4004970Y5629808D01*
X4009796Y5614873D01*
X4015435Y5600192D01*
X4021836Y5585866D01*
X4028948Y5571845D01*
X4036822Y5558231D01*
X4045356Y5545074D01*
X4054601Y5532374D01*
X4064457Y5520182D01*
X4074972Y5508498D01*
X4086098Y5497372D01*
X4097782Y5486857D01*
X4109974Y5477002D01*
X4122674Y5467756D01*
X4135831Y5459222D01*
X4149445Y5451348D01*
X4163466Y5444236D01*
X4177792Y5437835D01*
X4192473Y5432196D01*
X4207408Y5427370D01*
X4222546Y5423306D01*
X4237939Y5420004D01*
X4253433Y5417566D01*
X4269079Y5415940D01*
X4284726Y5415127D01*
X4292600Y5414975D01*
G37*
G36*
X4266590Y2315464D02*
G01*
X4266590Y1715465D01*
X4282287Y1715871D01*
X4297934Y1717090D01*
X4313529Y1719173D01*
X4328972Y1722018D01*
X4344212Y1725675D01*
X4359300Y1730146D01*
X4374083Y1735378D01*
X4388612Y1741424D01*
X4402785Y1748180D01*
X4416602Y1755648D01*
X4429963Y1763877D01*
X4442917Y1772767D01*
X4455363Y1782318D01*
X4467352Y1792528D01*
X4478731Y1803349D01*
X4489551Y1814728D01*
X4499711Y1826666D01*
X4509312Y1839112D01*
X4518202Y1852066D01*
X4526381Y1865477D01*
X4533900Y1879244D01*
X4540656Y1893468D01*
X4546650Y1907946D01*
X4549394Y1915312D01*
X4554220Y1930247D01*
X4558284Y1945436D01*
X4561586Y1960778D01*
X4564024Y1976323D01*
X4565650Y1991918D01*
X4566462Y2007616D01*
X4566462Y2023313D01*
X4565650Y2039010D01*
X4564024Y2054606D01*
X4561586Y2070150D01*
X4558284Y2085492D01*
X4554220Y2100681D01*
X4549394Y2115616D01*
X4543755Y2130247D01*
X4537354Y2144623D01*
X4530242Y2158593D01*
X4522368Y2172208D01*
X4513834Y2185365D01*
X4504588Y2198116D01*
X4494733Y2210308D01*
X4484217Y2221992D01*
X4473092Y2233066D01*
X4461408Y2243582D01*
X4449216Y2253488D01*
X4436516Y2262682D01*
X4423359Y2271268D01*
X4409744Y2279091D01*
X4395724Y2286254D01*
X4381398Y2292604D01*
X4374083Y2295550D01*
X4359300Y2300782D01*
X4344212Y2305253D01*
X4328972Y2308910D01*
X4313529Y2311755D01*
X4297934Y2313838D01*
X4282287Y2315057D01*
G37*
G36*
X419100Y2941624D02*
G01*
X403402Y2941167D01*
X387756Y2939948D01*
X372160Y2937916D01*
X356717Y2935020D01*
X341477Y2931363D01*
X326390Y2926892D01*
X318973Y2924403D01*
X304292Y2918764D01*
X289966Y2912364D01*
X275945Y2905252D01*
X262331Y2897378D01*
X249174Y2888843D01*
X236474Y2879598D01*
X224282Y2869742D01*
X212598Y2859227D01*
X201472Y2848102D01*
X190957Y2836418D01*
X181102Y2824226D01*
X171856Y2811526D01*
X163322Y2798368D01*
X155448Y2784754D01*
X148336Y2770733D01*
X141935Y2756408D01*
X136296Y2741726D01*
X131470Y2726791D01*
X127406Y2711653D01*
X124104Y2696260D01*
X121666Y2680766D01*
X120040Y2665120D01*
X119227Y2649474D01*
X119075Y2641600D01*
X719124Y2641600D01*
X718667Y2657297D01*
X717448Y2672943D01*
X715416Y2688539D01*
X712520Y2703982D01*
X708863Y2719222D01*
X704392Y2734310D01*
X701903Y2741726D01*
X696264Y2756408D01*
X689864Y2770733D01*
X682752Y2784754D01*
X674878Y2798368D01*
X666343Y2811526D01*
X657098Y2824226D01*
X647242Y2836418D01*
X636727Y2848102D01*
X625602Y2859227D01*
X613918Y2869742D01*
X601726Y2879598D01*
X589026Y2888843D01*
X575868Y2897378D01*
X562254Y2905252D01*
X548233Y2912364D01*
X533908Y2918764D01*
X519226Y2924403D01*
X504291Y2929229D01*
X489153Y2933293D01*
X473760Y2936595D01*
X458266Y2939034D01*
X442620Y2940659D01*
X426974Y2941472D01*
G37*
D12*
X4667250Y3492500D02*
G01*
X5346700Y3340100D01*
D13*
X3407501Y4206697D02*
G01*
X3407501Y3724097D01*
X3722458Y3724097D01*
X3722458Y4206697D01*
X3501486Y4206697D02*
G01*
X3407501Y4206697D01*
X3722458Y4206697D02*
G01*
X3628486Y4206697D01*
D12*
X4647590Y3495497D02*
G01*
X4634890Y3482797D01*
D10*
X1080185Y3978099D02*
G01*
X1080185Y4232099D01*
X1334185Y4232099D01*
X1334185Y3978099D01*
X1143685Y3978099D01*
D14*
X1080185Y3978099D02*
G01*
X1143685Y3978099D01*
D10*
X1080185Y3724099D02*
G01*
X1080185Y3978099D01*
X1334185Y3978099D01*
X1334185Y3724099D01*
X1143685Y3724099D01*
D14*
X1080185Y3724099D02*
G01*
X1143685Y3724099D01*
D15*
X6124702Y4554283D02*
G01*
X5594604Y4554283D01*
X5594604Y2964243D01*
X6124702Y2964243D01*
X6124702Y4554283D01*
X6074663Y4554283D02*
G01*
X6074663Y2964243D01*
D13*
X1691030Y1503070D02*
G01*
X1691030Y1050950D01*
X1691030Y1050950D02*
G01*
X542950Y1050950D01*
X542950Y1050950D02*
G01*
X542950Y1503070D01*
X542950Y1503070D02*
G01*
X1691030Y1503070D01*
D14*
X5981700Y965202D02*
G01*
X5981700Y1600202D01*
D10*
X5981700Y965202D02*
G01*
X5727700Y965202D01*
X5727700Y1473202D01*
X5727700Y1473202D01*
X5727700Y1473202D02*
G01*
X5727700Y1473202D01*
X5727700Y1727202D01*
X5981700Y1727202D01*
X5981700Y1600202D01*
D14*
X304190Y5685764D02*
G01*
X939190Y5685764D01*
D10*
X304190Y5685764D02*
G01*
X304190Y5939764D01*
X812190Y5939764D01*
X812190Y5939764D01*
X812190Y5939764D02*
G01*
X812190Y5939764D01*
X1066190Y5939764D01*
X1066190Y5685764D01*
X939190Y5685764D01*
D14*
X304190Y5203167D02*
G01*
X939190Y5203167D01*
D10*
X304190Y5203167D02*
G01*
X304190Y5457167D01*
X812190Y5457167D01*
X812190Y5457167D01*
X812190Y5457167D02*
G01*
X812190Y5457167D01*
X1066190Y5457167D01*
X1066190Y5203167D01*
X939190Y5203167D01*
X1338366Y3723436D02*
G01*
X1084366Y3723436D01*
X1084366Y3977436D01*
X1338366Y3977436D01*
X1338366Y3786936D01*
D14*
X1338366Y3723436D02*
G01*
X1338366Y3786936D01*
D10*
X1338366Y3978503D02*
G01*
X1084366Y3978503D01*
X1084366Y4232503D01*
X1338366Y4232503D01*
X1338366Y4042003D01*
D14*
X1338366Y3978503D02*
G01*
X1338366Y4042003D01*
D16*
X2589936Y5850610D02*
G01*
X2081936Y5850610D01*
X2081936Y5596610D01*
X2589936Y5596610D01*
X2589936Y5850610D01*
D17*
X3843601Y2830001D02*
G01*
X3843601Y3084001D01*
X4656401Y3084001D01*
X4656401Y2576001D01*
X3843601Y2576001D01*
X3843601Y2830001D01*
X1358900Y2082800D02*
G01*
X1104900Y2082800D01*
X1104900Y2895600D01*
X1612900Y2895600D01*
X1612900Y2082800D01*
X1358900Y2082800D01*
X3883601Y4880002D02*
G01*
X3883601Y5134002D01*
X4696401Y5134002D01*
X4696401Y4626002D01*
X3883601Y4626002D01*
X3883601Y4880002D01*
X2183790Y4517364D02*
G01*
X2183790Y4771364D01*
X2996590Y4771364D01*
X2996590Y4263364D01*
X2183790Y4263364D01*
X2183790Y4517364D01*
D13*
X2252499Y5264251D02*
G01*
X2648480Y5264251D01*
X4702599Y5754999D02*
G01*
X4702599Y5676259D01*
X4658784Y5717001D02*
G01*
X4742604Y5717001D01*
X3856591Y1975464D02*
G01*
X3856591Y2054204D01*
X3900406Y2013463D02*
G01*
X3816586Y2013463D01*
X4511040Y3995419D02*
G01*
X4511040Y4234179D01*
X4511040Y4234179D02*
G01*
X5140959Y4234179D01*
X5140959Y4234179D02*
G01*
X5140959Y3995419D01*
X5140959Y3995419D02*
G01*
X4511040Y3995419D01*
X4511040Y3716019D02*
G01*
X4511040Y3954779D01*
X4511040Y3954779D02*
G01*
X5140959Y3954779D01*
X5140959Y3954779D02*
G01*
X5140959Y3716019D01*
X5140959Y3716019D02*
G01*
X4511040Y3716019D01*
X459099Y2231600D02*
G01*
X380359Y2231600D01*
X421101Y2275415D02*
G01*
X421101Y2191595D01*
D14*
X5994400Y5981700D02*
G01*
X5994400Y6616700D01*
D10*
X5994400Y5981700D02*
G01*
X5740400Y5981700D01*
X5740400Y6489700D01*
X5740400Y6489700D01*
X5740400Y6489700D02*
G01*
X5740400Y6489700D01*
X5740400Y6743700D01*
X5994400Y6743700D01*
X5994400Y6616700D01*
D13*
G75*
G01*
X3628479Y4206700D02*
G02*
X3501479Y4206700I-63500J0D01*
G75*
G01*
X2252370Y5264379D02*
G03*
X2648610Y5264379I198120J-149840D01*
G75*
G01
X3368142Y4229557D02*
G03X3368142Y4229557I-19050J0D01*
G75*
G01
X4592549Y5715000D02*
G03X4592549Y5715000I-299999J0D01*
G75*
G01
X4566641Y2015465D02*
G03X4566641Y2015465I-299999J0D01*
G75*
G01
X719099Y2641651D02*
G03X719099Y2641651I-299999J0D01*
X177190Y6172200D02*
G01*
X1943100Y6172200D01*
X1943100Y4965700D01*
X177190Y4965700D01*
X177190Y6172200D01*
X444500Y4851400D02*
G01*
X1943100Y4851400D01*
X1943100Y3327400D01*
X444500Y3327400D01*
X444500Y4851400D01*
M02*
