G04 Layer: TopSolderMaskLayer*
G04 EasyEDA v6.5.34, 2023-10-25 23:35:01*
G04 b0c90d07580345d6a9a575a3640b0f1e,d8e1fe4a71354f51b54a745932dbb16f,10*
G04 Gerber Generator version 0.2*
G04 Scale: 100 percent, Rotated: No, Reflected: No *
G04 Dimensions in millimeters *
G04 leading zeros omitted , absolute positions ,4 integer and 5 decimal *
%FSLAX45Y45*%
%MOMM*%

%AMMACRO1*1,1,$1,$2,$3*1,1,$1,$4,$5*1,1,$1,0-$2,0-$3*1,1,$1,0-$4,0-$5*20,1,$1,$2,$3,$4,$5,0*20,1,$1,$4,$5,0-$2,0-$3,0*20,1,$1,0-$2,0-$3,0-$4,0-$5,0*20,1,$1,0-$4,0-$5,$2,$3,0*4,1,4,$2,$3,$4,$5,0-$2,0-$3,0-$4,0-$5,$2,$3,0*%
%ADD10C,3.1016*%
%ADD11O,1.4031976X0.9031986000000001*%
%ADD12MACRO1,0.2032X0.7874X-0.7874X-0.7874X-0.7874*%
%ADD13C,3.1032*%
%ADD14MACRO1,0.2032X1.45X1.45X1.45X-1.45*%
%ADD15C,2.0828*%
%ADD16C,2.4032*%
%ADD17C,2.1032*%
%ADD18C,2.0032*%
%ADD19MACRO1,0.2032X0.7874X0.7874X0.7874X-0.7874*%
%ADD20C,1.6032*%
%ADD21C,1.9812*%
%ADD22MACRO1,0.2032X-0.9X-0.9X-0.9X0.9*%
%ADD23C,4.2032*%
%ADD24C,2.2032*%
%ADD25C,1.6532*%

%LPD*%
D10*
X5854700Y1600200D02*
G01*
X5854700Y1600200D01*
X5854700Y1600200D01*
X5854700Y609600D01*
X5854700Y609600D02*
G01*
X7467600Y622300D01*
X5867400Y5613400D02*
G01*
X5867400Y6616700D01*
X5867400Y6616700D02*
G01*
X5880100Y6604000D01*
X7454900Y6604000D01*
D11*
G01*
X3819779Y3766896D03*
G01*
X3819779Y3893896D03*
G01*
X3819779Y4020896D03*
G01*
X3819779Y4147896D03*
G01*
X3309797Y3766896D03*
G01*
X3309797Y3893896D03*
G01*
X3309797Y4020896D03*
G01*
X3309797Y4147896D03*
D12*
G01*
X1207185Y4105099D03*
G01*
X1207185Y3851099D03*
D13*
G01*
X5854700Y3214166D03*
D14*
G01*
X5854700Y4304220D03*
D13*
G01*
X5854700Y3759174D03*
D15*
G01*
X1878990Y1277010D03*
G01*
X354990Y1277010D03*
D16*
G01*
X5854700Y1600200D03*
G01*
X5854700Y1092200D03*
D17*
G01*
X939190Y5812764D03*
D18*
G01*
X431190Y5812764D03*
D17*
G01*
X939190Y5330164D03*
D18*
G01*
X431190Y5330164D03*
D19*
G01*
X1211366Y3850436D03*
G01*
X1211366Y4105503D03*
D20*
G01*
X2209190Y5723864D03*
G01*
X2463190Y5723864D03*
D21*
G01*
X4504004Y2829991D03*
G01*
X3996004Y2829991D03*
G01*
X1358900Y2743200D03*
G01*
X1358900Y2235200D03*
G01*
X4544009Y4880000D03*
G01*
X4036009Y4880000D03*
G01*
X2844190Y4517364D03*
G01*
X2336190Y4517364D03*
D22*
G01*
X2196490Y5114264D03*
D18*
G01*
X2450490Y5114264D03*
G01*
X2704490Y5114264D03*
G01*
X4032605Y5715000D03*
G01*
X4542586Y5715000D03*
G01*
X4526584Y2015464D03*
G01*
X4016603Y2015464D03*
D15*
G01*
X4318000Y4114800D03*
G01*
X5334000Y4114800D03*
G01*
X4318000Y3835400D03*
G01*
X5334000Y3835400D03*
D21*
G01*
X419100Y2901594D03*
G01*
X419100Y2391613D03*
D16*
G01*
X5867400Y6616700D03*
G01*
X5867400Y6108700D03*
D23*
G01*
X685190Y3597097D03*
G01*
X685190Y4613097D03*
G01*
X1701190Y3597097D03*
D18*
G01*
X1624990Y5324297D03*
G01*
X1269390Y5324297D03*
G01*
X1663090Y5850864D03*
G01*
X1294790Y5850864D03*
D24*
G01*
X5346700Y3340100D03*
G01*
X4634890Y3482797D03*
D16*
G01*
X5854700Y609600D03*
D25*
G01*
X1878990Y1532864D03*
G01*
X3225190Y1532864D03*
G01*
X3479190Y1532864D03*
G01*
X1878990Y3107664D03*
G01*
X3225190Y3107664D03*
G01*
X3479190Y3107664D03*
D18*
G01*
X622300Y5981700D03*
G01*
X635000Y5156200D03*
D16*
G01*
X6388100Y609600D03*
G01*
X6400800Y5613400D03*
G01*
X5867400Y5613400D03*
G01*
X6832600Y622300D03*
G01*
X6832600Y1079500D03*
G01*
X7150100Y1079500D03*
G01*
X7150100Y622300D03*
G01*
X7467600Y1079500D03*
G01*
X7467600Y622300D03*
G01*
X6832600Y6616700D03*
G01*
X7150100Y6616700D03*
G01*
X7454900Y6604000D03*
G01*
X7454900Y6108700D03*
G01*
X7150100Y6108700D03*
G01*
X6832600Y6108700D03*
D20*
G01*
X2705100Y5727700D03*
D16*
G01*
X6400800Y6616700D03*
G01*
X6400800Y6108700D03*
G01*
X6388100Y1600200D03*
G01*
X6388100Y1092200D03*
G36*
X5925820Y6609079D02*
G01*
X7612379Y6609079D01*
X7612379Y5519419D01*
X5925820Y5519419D01*
G37*
G36*
X5875020Y1795779D02*
G01*
X7625079Y1795779D01*
X7625079Y604519D01*
X5875020Y604519D01*
G37*
M02*
